<?xml version="1.0" encoding="utf-8"?>
<svg version="1.1" id="Ebene_1" xmlns="http://www.w3.org/2000/svg" xmlns:xlink="http://www.w3.org/1999/xlink" x="0px" y="0px" width="737" height="283.5" viewBox="0 0 737 283.5" xml:space="preserve">
<g id="_23M_Logo" fill="#FFFFFF">
	<path fill="#FFFFFF" d="M113.4,56.7C129,57,141.5,70,141.2,85.6c-0.3,15.2-12.6,27.5-27.8,27.8H85c-46.9,0.1-84.9,38.1-85,85v56.7
		c0,15.7,12.7,28.4,28.4,28.4c0,0,0,0,0,0h170v-56.7H56.7v-28.3c0-15.6,12.7-28.3,28.3-28.4h28.4c47,0,85-38.1,85-85s-38.1-85-85-85
		l0,0H56.7v56.7H113.4z"/>
	<path fill="#FFFFFF" d="M340.1,283.5c47,0,85-38.1,85-85s-38.1-85-85-85h-16.6l65-65c11.1-11.1,11.1-29,0-40.1C383.2,3,376,0,368.5,0
		H226.7v56.7H300l-65,65c-11.1,11.1-11.1,29,0,40.1c5.3,5.3,12.5,8.3,20,8.3h85c15.7-0.3,28.6,12.2,28.9,27.8
		c0.3,15.7-12.2,28.6-27.8,28.9c-0.4,0-0.7,0-1.1,0H226.7v56.7L340.1,283.5z"/>
	<path fill="#FFFFFF" d="M728.7,8.3c-11.1-11.1-29-11.1-40.1,0l-93.4,93.4L501.9,8.3c-11.1-11.1-29-11.1-40.1,0
		c-5.3,5.3-8.3,12.5-8.3,20v198.5h56.7v-130l65,65c11.1,11.1,29,11.1,40.1,0l65-65v130H737V28.4l0,0C737,20.8,734,13.6,728.7,8.3z"
		/>
</g>
</svg>
