<svg xmlns="http://www.w3.org/2000/svg" aria-hidden="true" viewBox="0 0 231.69101 66.82036" fill="white"><g transform="translate(-50.600026,-120.24454)"><path d="m 116.984,138.78637 v 30.53821 h -5.22816 v -3.76238 a 15.27175,15.27175 0 1 1 0,-23.01875 v -3.76766 z m -5.21493,15.30085 a 10.025062,10.025062 0 1 0 -10.02771,10.02507 10.033,10.033 0 0 0 10.01448,-10.02507 z"></path><path d="m 121.78619,128.97033 h 5.21494 v 40.35425 h -5.21494 z"></path><path d="m 161.94465,178.88927 v 0.11641 a 8.6862707,8.6862707 0 0 1 -1.10067,3.99786 7.4903541,7.4903541 0 0 1 -2.20133,2.43416 c -1.16152,0.86784 -2.83898,1.56369 -5.15938,1.62719 h -13.15243 c -3.13002,0 -5.10117,-1.28058 -6.14627,-2.38125 -2.48973,-2.61144 -2.43152,-6.26269 -2.43152,-6.66221 l 5.21758,0.16934 c -0.0609,0.52916 0.11642,2.0267 0.98425,2.91041 0.52917,0.52917 1.27529,0.75406 2.38125,0.75406 h 13.16037 c 2.667,-0.0556 3.19088,-1.74095 3.24644,-2.78077 -0.17198,-2.25954 -2.14312,-2.72256 -3.24644,-2.78341 h -12.98045 c -6.43203,0 -8.74978,-5.21494 -8.74978,-8.74977 0,-0.2884 0,-3.30465 1.9685,-5.73617 a 15.08125,15.08125 0 0 1 -2.08491,-7.70731 15.306146,15.306146 0 0 1 23.75958,-12.7 c 1.79652,-1.85209 4.40531,-2.60615 6.42938,-2.60615 v 5.21494 c -0.635,0 -1.9103,0.17462 -2.71992,0.9869 l 0.0582,0.0556 a 15.369646,15.369646 0 0 1 2.9554,9.04346 15.496646,15.496646 0 0 1 -8.636,13.79537 15.824729,15.824729 0 0 1 -6.61459,1.44198 15.507229,15.507229 0 0 1 -9.6176,-3.35492 4.6672499,4.6672499 0 0 0 -0.29104,1.50284 c 0,1.10331 0.40216,3.59304 3.53218,3.59304 h 12.99104 a 8.9614374,8.9614374 0 0 1 5.15938,1.6801 8.6545207,8.6545207 0 0 1 3.28877,6.13834 z m -25.09044,-24.80205 a 10.146771,10.146771 0 0 0 1.32292,4.98475 9.3053957,9.3053957 0 0 0 2.26219,2.72257 10.038292,10.038292 0 0 0 6.43202,2.31775 9.9377499,9.9377499 0 0 0 10.02506,-10.02507 10.146771,10.146771 0 0 0 -10.02506,-10.0277 10.054167,10.054167 0 0 0 -10.01713,10.0277 z"></path><path d="m 195.15515,154.08722 a 15.269104,15.269104 0 1 1 -15.24265,-15.30085 15.255875,15.255875 0 0 1 15.24265,15.30085 z m -15.24265,-10.0277 a 10.027708,10.027708 0 1 0 10.02771,10.0277 10.067396,10.067396 0 0 0 -10.02771,-10.0277 z"></path><path d="m 213.90088,146.8985 h -5.21759 c 0,-0.92605 -0.23547,-1.68011 -0.63764,-2.08492 -0.63765,-0.63765 -1.68011,-0.75406 -2.02671,-0.75406 -1.10067,0.0609 -2.91042,0.40745 -3.13002,2.49237 v 22.77269 h -5.207 v -30.53821 h 5.21758 v 0.63765 a 8.4851874,8.4851874 0 0 1 3.01361,-0.5768 c 0.57679,0 3.53218,0.0582 5.73616,2.14048 1.03188,1.04246 2.25161,2.84163 2.25161,5.9108 z"></path><path d="m 245.29104,138.78637 v 30.53821 h -5.21758 v -3.76238 a 15.27175,15.27175 0 1 1 0,-23.01875 v -3.76766 z m -5.21758,15.30085 a 10.025062,10.025062 0 1 0 -10.02242,10.02507 10.027708,10.027708 0 0 0 10.02242,-10.02507 z"></path></g></svg>