<svg width="180" height="34" viewBox="0 0 180 34" fill="none" xmlns="http://www.w3.org/2000/svg">
<g clip-path="url(#clip0_895_28532)">
<path d="M71.778 11.4586C68.5942 11.4586 67.1236 13.781 67.1236 16.0253C67.1236 18.2687 68.513 20.5125 71.778 20.5125C72.963 20.5125 74.2283 20.0331 75.1281 19.1906L76.5145 20.5125C75.2093 21.7541 73.5331 22.3563 71.7776 22.3563C67.2045 22.3563 65.1628 19.2704 65.1628 16.0253C65.1628 12.7797 67.2857 9.57618 71.7776 9.57618C73.4516 9.57618 75.0855 10.1779 76.3934 11.4586L75.0462 12.7415C74.1464 11.8578 72.963 11.4586 71.778 11.4586ZM77.6596 22.0752V9.73585H79.6993V20.2305H86.3141V22.0747H77.6596V22.0752ZM94.0354 22.3563C89.6636 22.3563 87.58 19.2292 87.58 15.9832C87.58 12.2196 90.275 9.5341 94.0354 9.5341C98.3613 9.5341 100.482 12.6196 100.482 15.9832C100.482 19.3094 98.397 22.3563 94.0354 22.3563ZM94.0711 11.3389C91.1751 11.3389 89.5824 13.3393 89.5824 16.0248C89.622 18.1884 90.9295 20.5502 94.0354 20.5502C97.1763 20.5502 98.4815 18.3875 98.4815 16.0248C98.4815 13.7402 97.135 11.378 94.0711 11.3389ZM107.012 22.3138C104.197 22.234 101.829 20.4704 101.829 16.9849V9.77447H103.835V16.9849C103.835 19.2292 105.176 20.4326 107.012 20.5125C109.017 20.6305 110.486 19.3502 110.486 16.9849V9.77447H112.485V16.9849C112.486 20.6305 110.033 22.4361 107.012 22.3138ZM119.143 22.0752C117.634 22.0752 115.874 22.0752 114.366 22.0752V9.73585H119.143C123.434 9.73585 125.39 12.7411 125.427 15.7853C125.512 18.9094 123.511 22.0752 119.143 22.0752ZM119.143 11.6179H116.364V20.1919H119.143C122.2 20.1919 123.511 17.9879 123.469 15.7853C123.434 13.7016 122.121 11.6179 119.143 11.6179ZM140.131 22.1147H138.331L136.658 17.7467L135.31 13.6209L133.921 17.7888L132.29 22.1151H130.538L125.959 9.7749H128.206L131.395 19.2704L134.659 9.7749H135.963L139.274 19.2704L142.416 9.7749H144.663L140.131 22.1147ZM155.562 22.1147L154.341 19.5099H147.521L146.336 22.1147H144.215L149.846 9.77447H152.052L157.687 22.1147H155.562ZM150.945 11.8192L148.299 17.709H153.604L150.945 11.8192ZM163.241 17.0274V22.0752H161.24V17.0274L156.383 9.81653V9.73585H158.788L162.219 15.1832L165.807 9.73585H168.224V9.81653L163.241 17.0274ZM174.266 11.1376C172.586 11.1376 171.366 11.8192 171.366 13.02C171.366 14.2231 172.756 14.5445 174.423 14.7827C176.996 15.1454 179.492 15.8235 179.492 18.5884C179.492 21.3541 176.917 22.3936 174.266 22.3936C171.856 22.3936 170.018 21.6739 168.876 19.5906L170.387 18.588C171.282 20.0695 172.835 20.63 174.301 20.63C175.812 20.63 177.492 20.1506 177.492 18.588C177.492 17.266 176.018 16.7867 174.266 16.5454C171.776 16.2257 169.409 15.5827 169.409 12.9398C169.409 10.3758 171.976 9.41523 174.266 9.41523C176.059 9.41523 177.897 9.85386 178.96 11.4985L177.371 12.5007C176.754 11.6595 175.571 11.1376 174.266 11.1376ZM40.5013 25.3199C33.3761 25.3199 27.6001 19.653 27.6001 12.6617C27.6001 5.66945 33.3761 0 40.5013 0C47.6281 0 53.4064 5.66945 53.4064 12.6617C53.4064 19.653 47.6281 25.3199 40.5013 25.3199ZM49.9747 31.7707C43.7732 31.7707 38.7468 26.8401 38.7468 20.7524C38.7468 14.6673 43.7732 9.73585 49.9747 9.73585C56.1756 9.73585 61.2023 14.6673 61.2023 20.7524C61.2023 26.8401 56.1763 31.7707 49.9747 31.7707ZM31.1925 31.7707C24.9937 31.7707 19.9645 26.8401 19.9645 20.7524C19.9645 14.6673 24.9937 9.73585 31.1925 9.73585C37.3934 9.73585 42.4231 14.6673 42.4231 20.7524C42.4224 26.8401 37.3934 31.7707 31.1925 31.7707ZM31.1925 31.8071V23.0344H49.9361V31.8071H31.1925ZM12.8596 25.0795H1.95729C1.46797 25.0795 1.10239 24.7177 1.10239 24.2374V22.9958C1.10239 22.516 1.46797 22.1546 1.95729 22.1546H12.8196C13.309 22.1546 13.678 22.516 13.678 22.9958V24.2374C13.7175 24.6795 13.309 25.0795 12.8596 25.0795ZM29.316 25.0795H18.4536C17.9647 25.0795 17.5957 24.7177 17.5957 24.2374V22.9958C17.5957 22.516 17.9643 22.1546 18.4536 22.1546H29.3164C29.8057 22.1546 30.1743 22.516 30.1743 22.9958V24.2374C30.1739 24.6795 29.8053 25.0795 29.316 25.0795ZM40.9515 31.8071H10.8203C10.0018 31.8071 9.31059 31.1312 9.31059 30.3256C9.31059 29.5247 10.0018 28.8431 10.8203 28.8431H40.9515C41.7675 28.8431 42.462 29.5247 42.462 30.3256C42.462 31.1316 41.7675 31.8071 40.9515 31.8071ZM31.6419 18.3485H1.51052C0.692085 18.3485 0 17.6674 0 16.8673C0 16.0639 0.691652 15.3849 1.51052 15.3849H31.6419C32.4599 15.3849 33.1523 16.0639 33.1523 16.8673C33.1523 17.6669 32.4603 18.3485 31.6419 18.3485ZM39.7285 11.6179H9.59411C8.77827 11.6179 8.08358 10.9363 8.08358 10.1359C8.08358 9.33541 8.77827 8.65386 9.59411 8.65386H39.7285C40.5442 8.65386 41.239 9.33541 41.239 10.1359C41.239 10.9363 40.5831 11.6179 39.7285 11.6179ZM42.6254 4.88679H12.4936C11.6751 4.88679 10.9831 4.20871 10.9831 3.40479C10.9831 2.60479 11.6751 1.92279 12.4936 1.92279H42.6254C43.4437 1.92279 44.136 2.60435 44.136 3.40479C44.136 4.20871 43.4437 4.88679 42.6254 4.88679Z" fill="white"/>
<path d="M134.725 26.1638C134.09 25.7253 133.305 25.4985 132.383 25.4985H130.388V31.8483H132.383C133.305 31.8483 134.09 31.6064 134.725 31.1529C135.073 30.911 135.345 30.5633 135.526 30.1399C135.707 29.7166 135.813 29.2026 135.813 28.6432C135.813 28.0838 135.722 27.5849 135.526 27.1616C135.345 26.7383 135.073 26.4057 134.725 26.1638ZM131.552 26.5871H132.186C132.882 26.5871 133.456 26.7232 133.894 26.9953C134.378 27.2825 134.619 27.8419 134.619 28.6432C134.619 29.4747 134.378 30.0492 133.894 30.3667C133.471 30.6388 132.912 30.79 132.202 30.79H131.567V26.5871H131.552Z" fill="white"/>
<path d="M137.022 25.4382C136.826 25.4382 136.659 25.5138 136.538 25.6348C136.402 25.7708 136.342 25.922 136.342 26.1186C136.342 26.3151 136.418 26.4814 136.538 26.6175C136.674 26.7536 136.84 26.814 137.037 26.814C137.234 26.814 137.4 26.7385 137.536 26.6175C137.672 26.4814 137.732 26.3151 137.732 26.1186C137.732 25.922 137.656 25.7557 137.536 25.6348C137.384 25.4987 137.218 25.4382 137.022 25.4382Z" fill="white"/>
<path d="M137.566 27.3884H136.448V31.8635H137.566V27.3884Z" fill="white"/>
<path d="M141.464 27.7663C141.132 27.4639 140.754 27.2825 140.331 27.2825C139.712 27.2825 139.198 27.4941 138.805 27.9174C138.397 28.3408 138.2 28.8699 138.2 29.52C138.2 30.155 138.397 30.6842 138.79 31.1226C139.183 31.5459 139.712 31.7576 140.331 31.7576C140.769 31.7576 141.132 31.6366 141.434 31.3947V31.5005C141.434 31.8785 141.328 32.1658 141.132 32.3623C140.936 32.5588 140.664 32.6647 140.331 32.6647C139.817 32.6647 139.485 32.4681 139.092 31.9239L138.322 32.6647L138.336 32.6949C138.503 32.9217 138.76 33.1486 139.092 33.3754C139.424 33.587 139.848 33.6926 140.346 33.6926C141.011 33.6926 141.555 33.481 141.948 33.0879C142.341 32.6798 142.552 32.1355 142.552 31.4703V27.3883H141.449V27.7663H141.464ZM141.162 30.3969C140.966 30.6237 140.709 30.7295 140.392 30.7295C140.074 30.7295 139.817 30.6237 139.621 30.3969C139.424 30.1701 139.334 29.8829 139.334 29.52C139.334 29.1572 139.424 28.8548 139.621 28.628C139.817 28.4013 140.074 28.2954 140.392 28.2954C140.709 28.2954 140.966 28.4013 141.162 28.628C141.359 28.8548 141.464 29.1421 141.464 29.52C141.464 29.8829 141.359 30.1701 141.162 30.3969Z" fill="white"/>
<path d="M144.456 27.3884H143.338V31.8635H144.456V27.3884Z" fill="white"/>
<path d="M143.912 25.4382C143.716 25.4382 143.55 25.5138 143.429 25.6348C143.293 25.7708 143.232 25.922 143.232 26.1186C143.232 26.3151 143.308 26.4814 143.429 26.6175C143.565 26.7536 143.731 26.814 143.928 26.814C144.124 26.814 144.29 26.7385 144.426 26.6175C144.562 26.4814 144.622 26.3151 144.622 26.1186C144.622 25.922 144.547 25.7557 144.426 25.6348C144.26 25.4987 144.094 25.4382 143.912 25.4382Z" fill="white"/>
<path d="M146.859 26.179H145.756V27.3884H145.121V28.4165H145.771V30.2761C145.771 30.8506 145.892 31.2739 146.118 31.5158C146.345 31.7577 146.753 31.8786 147.327 31.8786C147.509 31.8786 147.69 31.8786 147.871 31.8635H147.917V30.8354L147.524 30.8506C147.252 30.8506 147.07 30.8052 146.995 30.7145C146.904 30.6238 146.859 30.4272 146.859 30.1249V28.4165H147.902V27.3884H146.859V26.179Z" fill="white"/>
<path d="M154.021 25.5137H152.903V31.8635H154.021V25.5137Z" fill="white"/>
<path d="M165.052 30.2609C164.856 30.4877 164.644 30.6842 164.493 30.79C164.342 30.8959 164.145 30.9412 163.904 30.9412C163.571 30.9412 163.299 30.8203 163.088 30.5784C162.876 30.3365 162.755 30.019 162.755 29.641C162.755 29.2631 162.861 28.9456 163.073 28.7037C163.284 28.4618 163.556 28.3408 163.889 28.3408C164.251 28.3408 164.629 28.5676 164.961 28.9456L165.702 28.235C165.218 27.6 164.599 27.3127 163.858 27.3127C163.239 27.3127 162.71 27.5395 162.272 27.978C161.834 28.4164 161.622 28.9758 161.622 29.641C161.622 30.3062 161.849 30.8656 162.272 31.304C162.71 31.7425 163.239 31.9693 163.858 31.9693C164.674 31.9693 165.324 31.6215 165.777 30.9714L165.052 30.2609Z" fill="white"/>
<path d="M169.706 28.0082C169.54 27.7814 169.329 27.6 169.057 27.479C168.785 27.3429 168.482 27.2825 168.135 27.2825C167.5 27.2825 167.001 27.5092 166.609 27.978C166.231 28.4315 166.049 28.9909 166.049 29.6561C166.049 30.3364 166.261 30.8958 166.669 31.3191C167.077 31.7424 167.621 31.9541 168.286 31.9541C169.041 31.9541 169.661 31.6517 170.129 31.047L170.159 31.0168L169.419 30.3062C169.359 30.3818 169.253 30.4876 169.162 30.5632C169.057 30.669 168.951 30.7446 168.83 30.8051C168.663 30.8958 168.467 30.9261 168.255 30.9261C167.938 30.9261 167.681 30.8353 167.485 30.6539C167.304 30.4876 167.198 30.2608 167.168 29.9736H170.144L170.159 29.5654C170.159 29.2781 170.114 28.9909 170.039 28.7339C169.978 28.4769 169.857 28.235 169.706 28.0082ZM167.243 29.0665C167.304 28.8548 167.394 28.6734 167.53 28.5373C167.681 28.3861 167.878 28.3106 168.119 28.3106C168.391 28.3106 168.603 28.3861 168.739 28.5373C168.875 28.6734 168.951 28.8548 168.966 29.0665H167.243Z" fill="white"/>
<path d="M173.997 27.7209C173.65 27.4337 173.182 27.2825 172.592 27.2825C172.215 27.2825 171.867 27.3581 171.55 27.5244C171.263 27.6755 170.975 27.9175 170.794 28.235L170.809 28.2501L171.535 28.9455C171.837 28.4769 172.154 28.3106 172.592 28.3106C172.834 28.3106 173.015 28.371 173.167 28.492C173.318 28.6129 173.393 28.7792 173.393 28.9758V29.1874C173.121 29.0967 172.834 29.0665 172.562 29.0665C172.003 29.0665 171.55 29.2025 171.202 29.4596C170.855 29.7166 170.688 30.0945 170.688 30.5783C170.688 31.0016 170.839 31.3342 171.127 31.5913C171.414 31.8332 171.776 31.9541 172.215 31.9541C172.638 31.9541 173.046 31.7878 173.408 31.4854V31.8483H174.511V28.9758C174.511 28.4315 174.345 28.0082 173.997 27.7209ZM172.003 30.1399C172.124 30.0492 172.305 30.0038 172.532 30.0038C172.804 30.0038 173.091 30.0643 173.378 30.1701V30.6086C173.136 30.8353 172.804 30.9563 172.411 30.9563C172.215 30.9563 172.063 30.9109 171.958 30.8202C171.852 30.7295 171.807 30.6237 171.807 30.4876C171.822 30.3515 171.882 30.2306 172.003 30.1399Z" fill="white"/>
<path d="M178.697 27.8116C178.38 27.4639 177.942 27.2825 177.382 27.2825C176.944 27.2825 176.582 27.4034 176.31 27.6604V27.3883H175.207V31.8634H176.325V29.384C176.325 29.0514 176.4 28.7792 176.566 28.5827C176.718 28.3861 176.944 28.2954 177.231 28.2954C177.488 28.2954 177.685 28.371 177.821 28.5525C177.957 28.7188 178.032 28.9607 178.032 29.263V31.8483H179.15V29.263C179.166 28.6432 178.999 28.1594 178.697 27.8116Z" fill="white"/>
<path d="M151.679 27.7209C151.332 27.4337 150.863 27.2825 150.274 27.2825C149.896 27.2825 149.549 27.3581 149.231 27.5244C148.944 27.6755 148.657 27.9175 148.476 28.235L148.491 28.2501L149.216 28.9455C149.519 28.4769 149.836 28.3106 150.274 28.3106C150.516 28.3106 150.697 28.371 150.848 28.492C150.999 28.6129 151.075 28.7792 151.075 28.9758V29.1874C150.803 29.0967 150.516 29.0665 150.244 29.0665C149.685 29.0665 149.231 29.2025 148.884 29.4596C148.536 29.7166 148.37 30.0945 148.37 30.5783C148.37 31.0016 148.521 31.3342 148.808 31.5913C149.095 31.8332 149.458 31.9541 149.896 31.9541C150.319 31.9541 150.727 31.7878 151.09 31.4854V31.8483H152.193V28.9758C152.193 28.4315 152.027 28.0082 151.679 27.7209ZM149.685 30.1399C149.806 30.0492 149.987 30.0038 150.214 30.0038C150.486 30.0038 150.773 30.0643 151.06 30.1701V30.6086C150.818 30.8353 150.486 30.9563 150.093 30.9563C149.896 30.9563 149.745 30.9109 149.639 30.8202C149.534 30.7295 149.488 30.6237 149.488 30.4876C149.503 30.3515 149.564 30.2306 149.685 30.1399Z" fill="white"/>
<path d="M157.905 31.9543C156.107 31.9543 154.641 30.4878 154.641 28.6887C154.641 26.8896 156.107 25.4231 157.905 25.4231C159.703 25.4231 161.169 26.8896 161.169 28.6887C161.169 30.4878 159.718 31.9543 157.905 31.9543ZM157.905 26.557C156.741 26.557 155.789 27.5095 155.789 28.6736C155.789 29.8377 156.741 30.7902 157.905 30.7902C159.068 30.7902 160.02 29.8377 160.02 28.6736C160.02 27.5095 159.083 26.557 157.905 26.557Z" fill="white"/>
<path d="M123.826 31.9179C123.52 31.9179 123.275 31.8211 123.092 31.6275V31.8598H122.5V28.1575H123.102V29.462C123.3 29.293 123.541 29.2085 123.826 29.2085C124.196 29.2085 124.498 29.337 124.734 29.5941C124.97 29.8511 125.088 30.175 125.088 30.5659C125.088 30.9567 124.97 31.2807 124.734 31.5377C124.495 31.7912 124.192 31.9179 123.826 31.9179ZM123.277 31.1574C123.4 31.3123 123.569 31.3898 123.784 31.3898C123.999 31.3898 124.168 31.3123 124.291 31.1574C124.414 31.0025 124.476 30.8053 124.476 30.5659C124.476 30.3264 124.414 30.1293 124.291 29.9743C124.168 29.8194 123.999 29.7419 123.784 29.7419C123.569 29.7419 123.4 29.8194 123.277 29.9743C123.154 30.1293 123.092 30.3264 123.092 30.5659C123.092 30.8053 123.154 31.0025 123.277 31.1574ZM128.061 29.2719L126.613 32.8845H125.98L126.381 31.8915L125.356 29.2719H126.043L126.719 31.1415L127.406 29.2719H128.061Z" fill="white"/>
</g>
<defs>
<clipPath id="clip0_895_28532">
<rect width="179.573" height="34" fill="white"/>
</clipPath>
</defs>
</svg>
