
<svg id="Layer_1" data-name="Layer 1" xmlns="http://www.w3.org/2000/svg" viewBox="0 0 1100 901.91"><defs><style>.cls-1{fill:#472d81;}.cls-2{fill:#fff;}.cls-3{fill:#8469ae;}</style></defs><path class="cls-1" d="M832.69,213c.23-3.22.39-6.46.39-9.74a135.53,135.53,0,0,0-196-121.31A217.63,217.63,0,0,0,466.83,0C349.29,0,253.51,93,248.94,209.42c-87.1,20.39-152,98.49-152,191.8,0,108.83,88.22,197,197.05,197a196,196,0,0,0,105.26-30.5c-22.76-2.91-30.49-38.74-4.92-42.64C427.91,520,433.6,475,444.82,448.85c7.12-16.57,16-30.83,31.67-40.58,16.47-10.21,36.06-14.1,53.1-23.18s39.59-17.54,56.87-13.74c.09-.88.21-1.77.32-2.65,0-.12,0-.23,0-.34h.08c.24-2,.41-3.92.71-5.88,4.15-26.8,40.88-16.44,43.34,5.87,3.24,29.33,4.65,57,13.07,85.56,7.82,26.57,23,49.17,31.52,75.27a19.67,19.67,0,0,1,.84,8.59c.34,1.49.65,3,.91,4.5a22.44,22.44,0,0,1-7,20.84A196,196,0,0,0,765,600.44c-2.5-8.54-.22-18.23,9.84-23.92,13-7.34,27.25-9,41.64-12,16.34-3.4,31.41-8.26,47.13-13.78,16.55-5.81,27.24,8.11,26.82,21.86a196.91,196.91,0,0,0,93.92-167.91C984.35,311.48,919.63,233.45,832.69,213Z"/><path class="cls-2" d="M827.63,234.42a22.06,22.06,0,0,1-16.94-23c.22-3.17.33-5.77.33-8.17A113.6,113.6,0,0,0,697.55,89.74,112.29,112.29,0,0,0,647,101.64a22,22,0,0,1-27.08-6A196,196,0,0,0,271,210.28a22.06,22.06,0,0,1-17,20.62,175.85,175.85,0,0,0-96.48,60.89A173,173,0,0,0,119,401.22c0,96.49,78.49,175,175,175a175,175,0,0,0,75.18-16.87l171.46,15.08L659.8,601.91,748,575.15a174.76,174.76,0,0,0,39.34,4.51c96.49,0,175-78.5,175-175A174.22,174.22,0,0,0,827.63,234.42Z"/><path class="cls-2" d="M667.54,546.13l-.44-.29c-2.2-1.5-8.79-6-16.14-.17a362.18,362.18,0,0,1-32.61,17.2,101.2,101.2,0,0,1,19.6,8.54q10.24-5.24,20.91-11.53c3.4,2.28,6.76,4.63,10.12,7,3.61,2.52,7.29,5.06,11,7.56a152.41,152.41,0,0,1,9.87-12.94c-3.83-2.54-7.66-5.2-11.58-7.94C674.72,551,671.15,548.55,667.54,546.13Z"/><path class="cls-2" d="M251.56,213.58Z"/><path class="cls-2" d="M827.88,209.84Z"/><path class="cls-2" d="M639.83,85.26Z"/><path class="cls-3" d="M396.18,383.07a64,64,0,1,1,64-64A64,64,0,0,1,396.18,383.07Z"/><path class="cls-2" d="M396.18,274.06a45.06,45.06,0,1,0,45.06,45.05A45.1,45.1,0,0,0,396.18,274.06Z"/><path class="cls-1" d="M413.34,288.16c-15.36-8.29-33.49-4.79-44.3,8a35.59,35.59,0,0,0-.76,44.89c10,12.95,28.3,17.21,43.37,10.08,14-6.6,22.66-22.91,19.31-36.82-7.94,2.78-15.34,2.07-20.34-5.37C405.76,301.7,407.52,294.66,413.34,288.16Z"/><path class="cls-3" d="M647.17,383.07a64,64,0,1,1,64-64A64,64,0,0,1,647.17,383.07Z"/><path class="cls-2" d="M647.17,274.06a45.06,45.06,0,1,0,45.06,45.05A45.1,45.1,0,0,0,647.17,274.06Z"/><path class="cls-1" d="M664.33,288.16c-15.35-8.29-33.49-4.79-44.3,8a35.59,35.59,0,0,0-.76,44.89c10,12.95,28.3,17.21,43.38,10.08,14-6.6,22.65-22.91,19.3-36.82-7.94,2.78-15.34,2.07-20.34-5.37C656.76,301.7,658.51,294.66,664.33,288.16Z"/><path class="cls-1" d="M427.52,215.26s16.61,3.53,10.22-10.48a20.49,20.49,0,0,0-5.83-5.18c-25.19-13.69-50.47-12.35-74.09,3.92a9,9,0,0,0-2.42,2.59c-4.17,6.46,3.21,14.88,9.86,11l.12-.07C386,204.64,406.34,203.82,427.52,215.26Z"/><path class="cls-1" d="M612.74,218.93s-16,5.54-11.43-9.15a20.42,20.42,0,0,1,5.14-5.85c23.33-16.68,48.58-18.45,74-5.2a9.08,9.08,0,0,1,2.71,2.27c4.94,5.9-1.36,15.16-8.43,12.16l-.13,0C652.65,203.29,632.35,205,612.74,218.93Z"/><path class="cls-1" d="M787.16,239.07l-.45-.29c-1.61-.83-3.24-1.65-4.84-2.43a61,61,0,0,0-11.79-4.63c-49.93-11.23-101.07-11.83-156.34-1.86a321.87,321.87,0,0,1-55.23,5.08,321.87,321.87,0,0,1-55.27-5.08c-55.27-10-106.41-9.37-156.34,1.86-9.14,2.06-18.28,4.1-27.44,6.05a30.26,30.26,0,0,1-5.93.64c-4.35,0-8.7,0-13,0-5.22,0-10.43,0-15.64.07-7.34.09-11.8,4.25-11.94,11.12-.2,9.61-.21,19.82,0,30.34.12,6.62,4.8,10.77,12.21,10.83l5.57.07c6.47.1,13.16.21,19.76-.24,4.43-.29,6.65,1.11,7.88,5,1.35,4.29,2.59,8.61,3.83,12.94,1.7,5.9,3.45,12,5.47,17.95,4.24,12.55,8.63,25.52,14,38.11,8.29,19.29,22.58,32.19,42.46,38.34a158.45,158.45,0,0,0,46.9,7.37,139.06,139.06,0,0,0,35.12-4.47c29.53-7.68,50.7-27,64.72-59.18,3.36-7.71,6.28-15.71,9.1-23.45,1.52-4.18,3-8.36,4.65-12.51,1-2.52,2.12-5.06,3.23-7.52l1.4-3.11c2-4.6,5-7.16,9.26-8,4.27.86,7.23,3.42,9.25,8l1.4,3.11c1.12,2.46,2.27,5,3.24,7.52,1.6,4.15,3.12,8.33,4.65,12.51,2.82,7.74,5.74,15.74,9.1,23.45,14,32.14,35.18,51.5,64.71,59.18,26.19,6.81,53.78,5.83,82-2.9,19.88-6.15,34.16-19.05,42.46-38.34,5.43-12.62,9.81-25.58,14.07-38.18C808.37,266,796.14,245.76,787.16,239.07ZM757.53,359.18c-6.73,14.65-18.47,24.4-34.88,29a118.35,118.35,0,0,1-62.53.75c-20.23-5.29-37.19-18.52-51.84-40.41a121,121,0,0,1-19.58-51.22c-2.41-17.4,3.38-29.7,18.23-38.71,16.48-10,35.37-13.07,53.33-14.9,3.86-.4,7.73-.6,11.82-.81,1.9-.1,3.83-.2,5.53-.32,21.18.39,46.07,1.76,70,9.05,19.63,6,27.43,16.61,26.9,36.74-.61,23.77-6.34,47.61-17,70.86ZM528.28,297.27a121.16,121.16,0,0,1-19.58,51.22c-14.65,21.89-31.61,35.11-51.85,40.41a118.15,118.15,0,0,1-62.53-.75c-16.41-4.57-28.14-14.32-34.87-29-10.68-23.25-16.41-47.09-17-70.86-.52-20.13,7.28-30.77,26.91-36.74,24-7.29,48.85-8.66,69.77-9.06,2,.13,3.9.23,5.8.33,4.09.21,8,.41,11.82.81,18,1.83,36.85,4.9,53.33,14.9C524.89,267.57,530.69,279.87,528.28,297.27Z"/><path class="cls-3" d="M563.13,593.24h-4.29v3.61l99,38-1.78-108-150.4,19.77a4.79,4.79,0,0,0-4.17,4.75v20.26a4.8,4.8,0,0,0,3,4.45l47.25,18.12V589h4.51V585.9h4.44v-2.69h3v-2.55h4.22V586h-.44v4.36h-4.36Z"/><path class="cls-1" d="M659.8,601.91,538,559.73a1.14,1.14,0,0,1,.21-2.21l132-19Z"/><path class="cls-1" d="M862.36,366.35,677.92,399.42a24.37,24.37,0,0,0-20.07,24v202A38.59,38.59,0,0,1,669,623.66a39.49,39.49,0,0,1,18.62,4.61l201-53.92a22.68,22.68,0,0,0,2.43-.88V390.34A24.37,24.37,0,0,0,862.36,366.35Z"/><path class="cls-3" d="M864.36,346.59,655.71,384a23.27,23.27,0,0,0-19.17,22.91V611.63a23,23,0,0,0,4.48,13.7c1.77-1.45,4.08-1.08,5.82.29,3,2.39,7.29,3.06,11,4.38V423.41a24.37,24.37,0,0,1,20.07-24l184.44-33.07a24.37,24.37,0,0,1,28.67,24V573.47a23.24,23.24,0,0,0,14.82-21.61V381.29A35.26,35.26,0,0,0,864.36,346.59Z"/><polyline class="cls-3" points="656.07 616.08 899.23 551.39 891.03 573.47 665.85 634.11 657.85 634.83 651.27 627.92"/><circle class="cls-3" cx="940.67" cy="490.68" r="57.93"/><path class="cls-1" d="M985.18,450.08a57.93,57.93,0,0,1-102.12,45.27,57.93,57.93,0,1,0,102.12-45.27Z"/><path class="cls-2" d="M940.67,553.48a62.8,62.8,0,1,1,62.8-62.8A62.87,62.87,0,0,1,940.67,553.48Zm0-115.85a53.05,53.05,0,1,0,53.05,53.05A53.11,53.11,0,0,0,940.67,437.63Z"/><path class="cls-1" d="M556.85,474.57c-20.78.16-42.31-18.51-45.34-38.92-1.41-9.47,3.09-14.13,11.72-14.81,21.45-1.71,42.94-3,64.43-4.26,9-.54,13.79,3.62,13.67,13C601,452.65,579.61,474.4,556.85,474.57Z"/><path class="cls-3" d="M523.71,438.14c17.54,22.68,30.34,26.85,56,17.75C564.06,438.25,545.85,434.3,523.71,438.14Z"/><path class="cls-2" d="M514.84,624.72a65.61,65.61,0,0,1-47.19-20,181,181,0,0,1-68.83,3.16c-85.27-12.31-149.5-81.77-152.73-165.15a16.64,16.64,0,0,1,8.06-14.94l2.71,4.06-2.51-4.18a16.15,16.15,0,0,1,14.52-1.12,16.6,16.6,0,0,1,9.84,11.29c15.5,59.4,65.9,103.61,128.4,112.64a159.4,159.4,0,0,0,42.58.42l.15-1.16a65.63,65.63,0,0,1,74.34-55.58h0a65.63,65.63,0,0,1-9.34,130.59Z"/><path class="cls-2" d="M471,593.79l2,2.24a55.86,55.86,0,1,0,49.85-92.25h0a55.88,55.88,0,0,0-63.29,47.32c-.2,1.38-.3,2.8-.4,4.39l-.26,3.92L455,560a168.85,168.85,0,0,1-49.23.11c-66.4-9.59-120-56.63-136.44-119.84a6.93,6.93,0,0,0-4.1-4.71,6.39,6.39,0,0,0-5.81.45l-.21.12a6.91,6.91,0,0,0-3.33,6.2c3,78.68,63.77,144.24,144.39,155.88a171.15,171.15,0,0,0,67.83-3.66Z"/><path class="cls-3" d="M521.25,492.26a60.75,60.75,0,0,0-68.81,51.45c-.24,1.59-.38,3.18-.49,4.77a163.67,163.67,0,0,1-47.77.09c-66.09-9.54-117-57.05-132.42-116.23a11.6,11.6,0,0,0-17.14-7.22l-.2.12a11.77,11.77,0,0,0-5.69,10.57c3.07,79.49,64.45,148.38,148.56,160.52A176.86,176.86,0,0,0,467,592.57a60.75,60.75,0,1,0,54.24-100.31Z"/><path class="cls-1" d="M503.88,587A60.58,60.58,0,0,1,467,567a176.67,176.67,0,0,1-69.72,3.76c-77.42-11.18-135.54-70.45-146.7-141.8a11.78,11.78,0,0,0-1.86,6.81c3.07,79.49,64.45,148.38,148.56,160.52A176.86,176.86,0,0,0,467,592.57a60.76,60.76,0,0,0,105-53A60.75,60.75,0,0,1,503.88,587Z"/><path class="cls-2" d="M152.57,818.84a83.32,83.32,0,0,1-13,15.88A86.11,86.11,0,0,1,123.12,847,79.5,79.5,0,0,1,103.79,855a82.79,82.79,0,0,1-21.4,2.76,80.92,80.92,0,0,1-32.11-6.44A81.88,81.88,0,0,1,6.44,807.45a83.25,83.25,0,0,1,0-64.21A81.88,81.88,0,0,1,50.28,699.4,80.92,80.92,0,0,1,82.39,693a82.79,82.79,0,0,1,21.4,2.76,79.5,79.5,0,0,1,19.33,7.94A86.11,86.11,0,0,1,139.57,716a83.32,83.32,0,0,1,13,15.88l-26.92,17.26a52.35,52.35,0,0,0-17.72-19.91,45.21,45.21,0,0,0-25.54-7.48A43.94,43.94,0,0,0,63.29,726a50.36,50.36,0,0,0-15.65,11.51,56.46,56.46,0,0,0,0,75.71,50.36,50.36,0,0,0,15.65,11.51A43.94,43.94,0,0,0,82.39,829a45.14,45.14,0,0,0,25.54-7.48,52.32,52.32,0,0,0,17.72-19.9Z"/><path class="cls-2" d="M195.84,694.8V855.89H165.23l.23-161.09Z"/><path class="cls-2" d="M266.94,739a57.6,57.6,0,0,1,23.25,4.72,60.18,60.18,0,0,1,31.64,31.64,58.47,58.47,0,0,1,0,46A60.18,60.18,0,0,1,290.19,853a59.6,59.6,0,0,1-46.49,0,60.18,60.18,0,0,1-31.64-31.64,58.47,58.47,0,0,1,0-46A60.18,60.18,0,0,1,243.7,743.7,57.58,57.58,0,0,1,266.94,739Zm0,91.36a23.15,23.15,0,0,0,10.71-2.53,28.11,28.11,0,0,0,8.74-7,34.6,34.6,0,0,0,6-10.35,36.26,36.26,0,0,0,2.19-12.78,35,35,0,0,0-2.19-12.31,31.68,31.68,0,0,0-6-10.12,30,30,0,0,0-8.74-6.79,23.15,23.15,0,0,0-10.71-2.53,23.8,23.8,0,0,0-10.81,2.53,29.32,29.32,0,0,0-8.86,6.79,31.5,31.5,0,0,0-6,10.12,35,35,0,0,0-2.19,12.31,36.26,36.26,0,0,0,2.19,12.78,34.39,34.39,0,0,0,6,10.35,27.55,27.55,0,0,0,8.86,7A23.8,23.8,0,0,0,266.94,830.34Z"/><path class="cls-2" d="M406.17,826.89l11.05,20v.23q-12,10.59-29.69,10.59-28.06,0-39.81-15.19Q336.91,829,336.91,799.28V740.82h31.52v58.46q0,6.21.35,12a25.83,25.83,0,0,0,2.53,10.13,16.61,16.61,0,0,0,6.79,7q4.61,2.64,13.12,2.65a25.27,25.27,0,0,0,7.59-1.16,34.34,34.34,0,0,0,6.9-3Zm48.33-86.07V856.58H423V740.82Z"/><path class="cls-2" d="M592.11,694.8V855.89H561.28l.23-57.76a28.93,28.93,0,0,0-2.65-12.2,34.22,34.22,0,0,0-6.9-10,30.65,30.65,0,0,0-10.13-6.67,32.43,32.43,0,0,0-12.54-2.42,31.63,31.63,0,0,0-12.43,2.42,30.17,30.17,0,0,0-10,6.78,34.18,34.18,0,0,0-6.79,10.13,31.78,31.78,0,0,0,0,24.85,32.13,32.13,0,0,0,16.8,16.8,30.5,30.5,0,0,0,12.43,2.53,45,45,0,0,0,6.44-.46,19.35,19.35,0,0,0,6-1.84h.46l11.27,20.71-.23.24q-11.28,8.75-27.61,8.74a59,59,0,0,1-42.11-17.26,60.52,60.52,0,0,1-12.78-18.87,58.47,58.47,0,0,1,0-46A60.63,60.63,0,0,1,483.5,756.7a59.12,59.12,0,0,1,42.11-17.26q23.48,0,35.9,17.49V694.8Z"/><path class="cls-2" d="M605.69,694.8h30.6v26.92h-30.6Zm0,161.09V740.82h30.6V855.89Z"/><path class="cls-2" d="M732.49,694.8v26.92H707.4a10.54,10.54,0,0,0-9.2,4.61Q695,730.94,695,739V855.89h-30.6V786.16H647.8V760.62h16.57v-23A41.76,41.76,0,0,1,667.71,721a42.84,42.84,0,0,1,22.89-22.89,42.31,42.31,0,0,1,16.8-3.34Zm-33.83,65.82h33.83v25.54h-19.8Z"/><path class="cls-2" d="M774.37,840.24,734.1,740.82H767v.23l29.68,83.54Zm88.14-99.42-.23.47q-3.91,10.58-7.6,20.59t-6.9,18.76q-11.5,32.22-20.6,55.34t-19.44,37.63q-10.37,15-23.36,21.63t-32.56,6.67h-.46V870.62h.46c4,0,7.55-.16,10.7-.46a33.15,33.15,0,0,0,8.63-2,27.54,27.54,0,0,0,7.25-4.14,32.21,32.21,0,0,0,6.33-7,74,74,0,0,0,6-10.13q3-6,6.21-14.27t7.14-19.21q3.9-10.92,8.74-24.74,3.68-10.35,7.82-22.09t9-25.55v-.23Z"/><path class="cls-2" d="M863,821.6a17.52,17.52,0,0,1,12.88,5.29,16.8,16.8,0,0,1,5.07,12.89,17.39,17.39,0,0,1-5.41,12.89,17.93,17.93,0,0,1-13,5.29,18.17,18.17,0,0,1-12.65-5.52,17,17,0,0,1-5.06-13.12,17.27,17.27,0,0,1,5.29-12.66A16.76,16.76,0,0,1,863,821.6Z"/><path class="cls-2" d="M988.84,745.43l-2.76,4.6L974.35,771l-.23-.23a33.07,33.07,0,0,0-27.62-2.42,30.59,30.59,0,0,0-9.43,5.53,33.55,33.55,0,0,0-7,8.4,29.45,29.45,0,0,0-3.8,10.35v63.29H895V740.82h31.3v15Q938.45,739,961.92,739a58.94,58.94,0,0,1,26.69,6.45Z"/><path class="cls-2" d="M1040.4,739a57.58,57.58,0,0,1,23.24,4.72,60.18,60.18,0,0,1,31.64,31.64,58.47,58.47,0,0,1,0,46A60.18,60.18,0,0,1,1063.64,853a59.6,59.6,0,0,1-46.49,0,60.18,60.18,0,0,1-31.64-31.64,58.47,58.47,0,0,1,0-46,60.18,60.18,0,0,1,31.64-31.64A57.6,57.6,0,0,1,1040.4,739Zm0,91.36a23.14,23.14,0,0,0,10.7-2.53,28.11,28.11,0,0,0,8.74-7,34.62,34.62,0,0,0,6-10.35,36.48,36.48,0,0,0,2.18-12.78,35.19,35.19,0,0,0-2.18-12.31,31.71,31.71,0,0,0-6-10.12,30,30,0,0,0-8.74-6.79,23.14,23.14,0,0,0-10.7-2.53,23.81,23.81,0,0,0-10.82,2.53,29.32,29.32,0,0,0-8.86,6.79,31.5,31.5,0,0,0-6,10.12,35,35,0,0,0-2.19,12.31,36.26,36.26,0,0,0,2.19,12.78,34.39,34.39,0,0,0,6,10.35,27.55,27.55,0,0,0,8.86,7A23.81,23.81,0,0,0,1040.4,830.34Z"/></svg>