<svg width="200px" height="60px" viewBox="0 0 333.942 70" fill="none" xmlns="http://www.w3.org/2000/svg" ><g clip-path="url(#a)" fill="white" data-darkreader-inline-fill="" style="--darkreader-inline-fill: currentColor;"><path d="M117.26 54.456q-4.631 -3.062 -6.98 -8.191 -2.345 -5.124 -2.348 -11.316c-0.003 -6.192 0.781 -7.895 2.348 -11.311q2.345 -5.123 6.98 -8.191 4.631 -3.063 11.213 -3.065 5.06 0 8.992 1.94c3.931 1.94 4.752 3.074 6.401 5.337 1.649 2.267 2.731 4.83 3.261 7.704h-4.022q-0.853 -4.974 -4.844 -8.065c-3.99 -3.091 -5.922 -3.094 -9.782 -3.094q-5.365 -0.001 -9.051 2.488 -3.69 2.491 -5.515 6.731 -1.83 4.243 -1.83 9.526c0 3.521 0.609 6.691 1.83 9.526q1.83 4.246 5.515 6.731 3.688 2.489 9.051 2.488 4.082 0 7.312 -1.61 3.23 -1.604 5.211 -4.459c1.981 -2.855 2.122 -4.063 2.409 -6.49h4.022c-0.409 3.115 -1.431 5.914 -3.08 8.401q-2.472 3.731 -6.523 5.853c-4.05 2.122 -5.821 2.122 -9.355 2.122q-6.586 0 -11.213 -3.066zm40.687 0.942q-3.381 -2.122 -5.242 -5.884 -1.861 -3.759 -1.861 -8.492 0 -4.731 1.861 -8.492c1.861 -3.762 2.989 -4.469 5.242 -5.883q3.38 -2.122 7.892 -2.122 4.514 0 7.892 2.122 3.381 2.122 5.242 5.883c1.861 3.76 1.861 5.337 1.861 8.492s-0.62 5.984 -1.861 8.492 -2.989 4.469 -5.242 5.884 -4.889 2.121 -7.892 2.121 -5.639 -0.707 -7.892 -2.121m16.064 -5.006q2.863 -3.55 2.862 -9.374c-0.001 -5.823 -0.958 -7.007 -2.862 -9.37q-2.863 -3.55 -8.17 -3.55c-5.306 0 -6.261 1.184 -8.17 3.55s-2.862 5.492 -2.862 9.37 0.952 7.007 2.862 9.374 4.633 3.546 8.17 3.546 6.261 -1.184 8.17 -3.546m11.577 -25.145h3.599v5.516q1.467 -2.911 4.113 -4.578 2.653 -1.67 6.612 -1.67 4.631 0 7.192 2.092 2.561 2.093 3.472 5.366 1.338 -3.459 4.113 -5.457 2.776 -2.001 7.161 -2.001 6.034 0 8.593 3.366 2.558 3.363 2.561 7.734V56.784h-3.78V35.92c0 -2.387 -0.711 -4.284 -2.131 -5.704q-2.134 -2.121 -6.22 -2.122 -3.17 0 -6.49 2.152c-2.218 1.435 -3.321 4.339 -3.321 8.702v17.836h-3.78V35.918c0 -2.387 -0.711 -4.284 -2.131 -5.704q-2.134 -2.122 -6.22 -2.122 -2.926 0 -6.093 1.882t-3.661 7.466v19.351h-3.599V25.246zm58.212 0.003v7.158q2.624 -7.885 11.642 -7.885 6.401 -0.001 10.121 4.368t3.718 12.132c0 7.763 -1.239 9.219 -3.718 12.132q-3.718 4.367 -10.121 4.368 -4.571 0 -7.312 -1.73c-2.743 -1.73 -3.191 -2.839 -4.082 -5.067v18.197h-3.84V25.249h3.599zm2.743 25.295q2.804 3.338 7.862 3.336c3.373 0 6.184 -1.114 8.075 -3.336s2.832 -5.397 2.832 -9.526 -0.942 -7.298 -2.832 -9.526q-2.835 -3.335 -8.075 -3.336c-3.493 0 -5.992 1.114 -7.862 3.336s-2.801 5.397 -2.801 9.526 0.932 7.298 2.801 9.526m70.277 -6.91h-21.515l-4.813 13.161h-4.511l16.334 -43.679h7.434l16.215 43.677h-4.329zm-1.401 -3.822 -9.384 -25.542 -9.324 25.542h18.714zM329.981 13.118h3.961v43.677h-3.963zm-271.506 0.522 -2.444 -1.705L39.008 0.076 0.06 27.201v15.504l38.944 27.132 38.938 -27.132V27.201L58.467 13.639zM39.01 6.909l12.121 8.446 -6.224 4.333 -0.554 0.386 -5.338 -3.717 -15.579 10.849 5.338 3.721 4.899 3.416 5.338 3.721 15.574 -10.854 -5.333 -3.717 0.554 -0.386 6.223 -4.333 12.116 8.441 -6.223 4.339 -22.911 15.96 -12.121 -8.446 -4.899 -3.412 -5.897 -4.102 -6.222 -4.339z"></path></g><defs><clipPath id="a"><path fill="currentColor" d="M0 0h333.942v69.912H0z" data-darkreader-inline-fill="" style="--darkreader-inline-fill: currentColor;"></path></clipPath></defs></svg>