<svg width="147" height="32" viewBox="0 0 147 32" fill="none" xmlns="http://www.w3.org/2000/svg"><g id="dataforest-logo" clip-path="url(#clip0_1857_130)"><path id="Vector" d="M26.6395 29.7233H24.9141V27.0787H25.8782C26.4163 27.0787 26.775 26.7424 26.775 25.9801V21.8568C26.775 20.109 27.5597 19.1674 29.016 18.6976C27.5597 18.2267 26.775 17.2861 26.775 15.5383V11.415C26.775 10.6527 26.4163 10.3175 25.8782 10.3175H24.9141V7.67287H26.6395C28.5666 7.67287 29.9108 8.86013 29.9108 10.7434V15.0685C29.9108 16.5921 30.8301 17.3544 32.3985 17.3544V20.0438C30.8301 20.0438 29.9108 20.8061 29.9108 22.3297V26.6548C29.9108 28.5371 28.5666 29.7243 26.6395 29.7243V29.7233Z" fill="#FFFFFF"/><path id="Vector_2" d="M0 20.0418V17.3524C1.56841 17.3524 2.48764 16.5901 2.48764 15.0665V10.7414C2.48764 8.85911 3.83185 7.67083 5.75898 7.67083H7.48433V10.3154H6.52026C5.98217 10.3154 5.62344 10.6517 5.62344 11.413V15.5363C5.62344 17.2841 4.83873 18.2257 3.38242 18.6955C4.83873 19.1664 5.62344 20.107 5.62344 21.8548V25.9781C5.62344 26.7404 5.98217 27.0767 6.52026 27.0767H7.48433V29.7213H5.75898C3.83185 29.7213 2.48764 28.534 2.48764 26.6517V22.3266C2.48764 20.8031 1.56841 20.0408 0 20.0408V20.0418Z" fill="#FFFFFF"/><path id="Vector_3" fill-rule="evenodd" clip-rule="evenodd" d="M16.1997 0.0509834L21.8639 5.71519L19.2224 8.3557L16.1987 5.332L13.175 8.3557L10.5345 5.71519L16.1987 0.0509834H16.1997Z" fill="#02C382"/><path id="Vector_4" fill-rule="evenodd" clip-rule="evenodd" d="M16.1997 7.81248L22.9503 14.5631L20.3098 17.2036L16.1997 13.0935L12.0897 17.2036L9.44917 14.5631L16.1997 7.81248Z" fill="#02C382"/><path id="Vector_5" fill-rule="evenodd" clip-rule="evenodd" d="M16.1997 15.574L24.0367 23.411L21.3962 26.0525L16.2008 20.8571L11.0053 26.0525L8.36484 23.411L16.2018 15.574H16.1997Z" fill="#02C382"/><path id="Vector_6" fill-rule="evenodd" clip-rule="evenodd" d="M14.3327 31.949V24.8897H18.0678V31.949H14.3327Z" fill="#FFFFFF"/><path id="Vector_7" d="M144.623 24.3027H141.172V15.9664H139.043V13.0976H141.172V9.62446H144.623V13.0976H146.752V15.9664H144.623V24.3027Z" fill="#FFFFFF"/><path id="Vector_8" d="M128.522 20.7613H131.793C131.838 21.546 132.421 22.0158 133.474 22.0158C134.526 22.0158 135.042 21.6346 135.042 21.0517C135.042 20.7154 134.863 20.3567 134.033 20.1773L131.971 19.7289C129.91 19.2805 128.902 18.3847 128.902 16.4127C128.902 14.082 130.896 12.7378 133.586 12.7378C136.275 12.7378 138.001 14.2614 138.001 16.5248H134.729C134.729 15.7625 134.258 15.2479 133.43 15.2479C132.645 15.2479 132.153 15.6515 132.153 16.2568C132.153 16.7725 132.579 17.0639 133.363 17.2433L135.447 17.6917C137.284 18.0953 138.293 18.9462 138.293 20.7399C138.293 23.1378 136.254 24.5941 133.34 24.5941C130.427 24.5941 128.522 23.0257 128.522 20.7623V20.7613Z" fill="#FFFFFF"/><path id="Vector_9" d="M121.638 24.5941C118.254 24.5941 115.834 22.1289 115.834 18.6782C115.834 15.2275 118.187 12.7399 121.57 12.7399C124.954 12.7399 127.285 15.0482 127.285 18.7006V19.575L119.15 19.6199C119.352 21.0986 120.181 21.7936 121.705 21.7936C123.004 21.7936 123.924 21.3228 124.17 20.5167H127.329C126.926 23.0043 124.707 24.5952 121.638 24.5952V24.5941ZM121.593 15.5404C120.226 15.5404 119.464 16.1457 119.195 17.4899H123.856C123.856 16.3017 122.982 15.5404 121.593 15.5404Z" fill="#FFFFFF"/><path id="Vector_10" d="M115.022 13.0976V16.3465H113.924C111.952 16.3465 110.765 17.2209 110.765 19.4395V24.3027H107.314V13.12H110.563L110.742 14.7781C111.213 13.6795 112.199 12.9406 113.701 12.9406C114.104 12.9406 114.552 12.9855 115.023 13.0976H115.022Z" fill="#FFFFFF"/><path id="Vector_11" d="M92.9651 18.6782C92.9651 15.1378 95.5648 12.7623 99.1501 12.7623C102.735 12.7623 105.313 15.1378 105.313 18.6782C105.313 22.2186 102.713 24.5717 99.1501 24.5717C95.5873 24.5717 92.9651 22.2186 92.9651 18.6782ZM96.4382 18.6558C96.4382 20.3587 97.5358 21.4797 99.1501 21.4797C100.764 21.4797 101.839 20.3597 101.839 18.6558C101.839 16.9518 100.742 15.8543 99.1501 15.8543C97.5582 15.8543 96.4382 16.9743 96.4382 18.6558Z" fill="#FFFFFF"/><path id="Vector_12" d="M84.6604 13.0976H86.2064V12.2008C86.2064 8.86217 87.9541 7.40484 90.8005 7.40484C91.2713 7.40484 91.8094 7.44968 92.3465 7.53937V10.4978H91.3824C89.9709 10.4978 89.6571 11.2377 89.6571 12.2008V13.0976H92.3465V15.9664H89.6571V24.3027H86.2064V15.9664H84.6604V13.0976Z" fill="#FFFFFF"/><path id="Vector_13" d="M76.4484 24.5941C74.0729 24.5941 72.5941 23.2051 72.5941 21.0089C72.5941 18.9473 74.0505 17.6703 76.7399 17.4685L79.8767 17.2219V17.0425C79.8767 15.9439 79.2041 15.362 77.972 15.362C76.5157 15.362 75.731 15.9226 75.731 16.9304H72.8622C72.8622 14.398 74.9462 12.7399 78.1503 12.7399C81.3544 12.7399 83.2367 14.5549 83.2367 17.76V24.3037H80.1896L79.9654 22.825C79.6066 23.8553 78.1279 24.5952 76.4474 24.5952L76.4484 24.5941ZM77.6581 22.0392C78.9799 22.0392 79.8991 21.389 79.8991 20.1121V19.5068L78.1513 19.6637C76.6502 19.7982 76.1121 20.1345 76.1121 20.851C76.1121 21.6581 76.6054 22.0382 77.6581 22.0382V22.0392Z" fill="#FFFFFF"/><path id="Vector_14" d="M69.385 24.3027H65.9343V15.9664H63.8054V13.0976H65.9343V9.62446H69.385V13.0976H71.5139V15.9664H69.385V24.3027Z" fill="#FFFFFF"/><path id="Vector_15" d="M55.7024 24.5941C53.3269 24.5941 51.8481 23.2051 51.8481 21.0089C51.8481 18.9473 53.3044 17.6703 55.9939 17.4685L59.1317 17.2219V17.0425C59.1317 15.9439 58.4591 15.362 57.227 15.362C55.7707 15.362 54.986 15.9226 54.986 16.9304H52.1172C52.1172 14.398 54.2013 12.7399 57.4053 12.7399C60.6094 12.7399 62.4917 14.5549 62.4917 17.76V24.3037H59.4436L59.2194 22.825C58.8606 23.8553 57.3819 24.5952 55.7014 24.5952L55.7024 24.5941ZM56.9121 22.0392C58.2339 22.0392 59.1531 21.389 59.1531 20.1121V19.5068L57.4053 19.6637C55.9042 19.7982 55.3661 20.1345 55.3661 20.851C55.3661 21.6581 55.8594 22.0382 56.9121 22.0382V22.0392Z" fill="#FFFFFF"/><path id="Vector_16" d="M42.6904 24.5941C39.4639 24.5941 37.3799 22.3083 37.3799 18.7679C37.3799 15.2275 39.5088 12.7399 42.9146 12.7399C44.3037 12.7399 45.6265 13.3004 46.2757 14.1289V7.40586H49.7264V24.3027H46.4775L46.2981 22.8688C45.6927 23.8991 44.3037 24.5941 42.6904 24.5941ZM43.519 21.4339C45.1322 21.4339 46.2532 20.3139 46.2532 18.6324C46.2532 16.9508 45.1332 15.8308 43.519 15.8308C41.9047 15.8308 40.852 16.9733 40.852 18.6324C40.852 20.2915 41.8823 21.4339 43.519 21.4339Z" fill="#FFFFFF"/></g><defs><clipPath id="clip0_1857_130"><rect width="146.752" height="32" fill="white"/></clipPath></defs></svg>