<svg xmlns="http://www.w3.org/2000/svg" width="94" height="18" viewBox="0 0 94 18" fill="none"><path fill-rule="evenodd" clip-rule="evenodd" d="M19.4033 0.124682V1.65029V2.23657H17.563V0.124682C18.1698 -0.00310852 18.7965 -0.00310852 19.4033 0.124682ZM22.1667 4.22546L21.4334 4.46349L20.6778 4.7079L19.9685 4.93794L20.411 5.54499L20.8759 6.18399L21.328 6.80542L21.7737 7.41886C21.5837 7.62959 21.374 7.82164 21.1475 7.99236L21.0197 8.08661C20.7891 8.24648 20.5442 8.38446 20.288 8.49877L19.8295 7.88053L19.3774 7.25751L18.9126 6.61851L18.4732 6.01466L18.0339 6.61851L17.5691 7.25751L17.1186 7.88053L16.6729 8.49238C16.416 8.37789 16.1704 8.23935 15.9396 8.07862L15.815 7.98757C15.5902 7.81762 15.3822 7.62665 15.1936 7.41726L15.6393 6.80382L16.0994 6.17121L16.5642 5.53221L17.0035 4.92836L16.2943 4.69832L15.5418 4.4539L14.8102 4.21587L14.0913 3.98264C14.1181 3.70234 14.1715 3.42524 14.2511 3.15513L14.299 3.00337C14.3913 2.73739 14.5085 2.48066 14.6488 2.23657L15.3693 2.47779L16.101 2.71582L16.8518 2.96503L17.5627 3.19507H19.403L20.1139 2.96024L20.8663 2.71582L21.5964 2.4714L22.3184 2.23657C22.4585 2.47804 22.5756 2.73208 22.6683 2.99538L22.7258 3.1759C22.8046 3.44239 22.858 3.7157 22.8855 3.99222L22.1667 4.22546Z" fill="#FCC237"></path> <path fill-rule="evenodd" clip-rule="evenodd" d="M2.2365 0.0895217C1.49578 -0.0298406 0.740722 -0.0298406 0 0.0895217V2.32602H2.2365V0.0895217ZM2.2349 4.17273H0V13.5948H2.2349V4.17273ZM9.4091 10.4014C9.54245 10.5673 9.60553 10.7789 9.58483 10.9908L9.58163 11.0052C9.56406 11.3247 9.32603 12.034 8.27808 12.1235C7.89168 12.1342 7.50606 12.083 7.13586 11.9717C6.68198 11.8416 6.24295 11.6643 5.82592 11.4429L4.61182 12.6714C5.76361 13.5293 6.85311 13.9925 8.37872 13.9925C9.90433 13.9925 11.1951 13.0245 11.6168 12.1778C11.8383 11.7311 11.951 11.2385 11.9459 10.74C11.957 10.3108 11.8633 9.88524 11.6728 9.50038C11.5158 9.18877 11.2915 8.91595 11.0162 8.70163C10.743 8.49448 10.4382 8.33267 10.1136 8.22238C9.77972 8.10896 9.44585 8.01311 9.11037 7.93163C8.89631 7.87892 8.0049 7.58498 7.79723 7.49871C7.61267 7.42429 7.44842 7.30712 7.31798 7.15685C7.19618 7.00334 7.1338 6.81107 7.14225 6.61529C7.14258 6.48906 7.16981 6.36435 7.22213 6.24947C7.28165 6.12601 7.37117 6.01946 7.48252 5.93955C7.62466 5.83869 7.78454 5.76552 7.95378 5.72389C8.19666 5.66816 8.44638 5.64825 8.69502 5.66478C8.97731 5.68465 9.2562 5.73829 9.52572 5.82453C9.8131 5.92146 10.0952 6.03344 10.3708 6.16001L11.6041 4.92035C10.5737 4.02255 9.06085 3.77494 8.46658 3.77494C7.99591 3.77401 7.52746 3.83963 7.07516 3.96984C6.65517 4.082 6.26299 4.27999 5.92336 4.55133C5.59801 4.82497 5.3303 5.16056 5.1358 5.53858C4.90918 5.94436 4.78626 6.39981 4.77796 6.8645C4.77533 7.25096 4.8594 7.63308 5.02397 7.98275C5.17169 8.27766 5.38281 8.53624 5.6422 8.73997C5.89641 8.94481 6.18241 9.1067 6.48888 9.21922C6.80997 9.35021 8.02727 9.76237 8.27808 9.82946C8.50686 9.88885 8.73023 9.96741 8.94583 10.0643C9.12176 10.1437 9.27946 10.2584 9.4091 10.4014ZM75.6704 5.08808C75.6704 5.08808 76.9803 4.17111 77.8111 3.91392C78.1529 3.81468 78.5079 3.76782 78.8638 3.77493C79.2079 3.7735 79.5507 3.81482 79.8846 3.89794C80.2045 3.97612 80.5094 4.10617 80.7872 4.28294C81.0661 4.46479 81.3106 4.69466 81.5093 4.96188C81.7295 5.26177 81.8965 5.59736 82.0029 5.95392C82.071 6.17989 82.1159 6.41219 82.1371 6.64724C82.1594 6.89804 82.1722 7.18719 82.1722 7.51628V13.5868H79.9357V7.79903C79.9357 7.53225 79.9245 7.30221 79.9054 7.11051C79.8899 6.93882 79.8528 6.76976 79.7951 6.6073C79.6587 6.29604 79.4272 6.036 79.1338 5.86446C78.8633 5.71624 78.5587 5.64134 78.2504 5.6472C77.7473 5.64188 77.2496 5.75114 76.795 5.9667C76.3835 6.16657 76.0061 6.43022 75.6768 6.74788V13.5932H73.4419V4.16792H75.6704V5.08808ZM63.0786 12.1139C63.4512 12.0987 63.8205 12.037 64.1777 11.9302L64.7832 13.6475C64.641 13.6954 64.4301 13.7577 64.3311 13.7849C64.1143 13.8413 63.8946 13.8856 63.6729 13.9175C63.4122 13.9524 63.1499 13.9732 62.8869 13.9798H62.6729C62.1665 13.9638 61.2687 13.8392 60.8086 13.6044C60.3413 13.381 59.9703 12.9964 59.7638 12.5213C59.5995 12.0826 59.5246 11.6155 59.5434 11.1474V5.9827H58.0625V4.20628C58.0724 4.19526 58.0815 4.18352 58.0897 4.17113H59.5434V2.86438C60.2229 2.42789 60.9836 2.13336 61.7799 1.99854V4.17113H64.3534V5.9827H61.7831V10.8758C61.7623 11.1517 61.8175 11.4279 61.9428 11.6746C62.1324 11.9675 62.511 12.1139 63.0786 12.1139ZM54.9541 8.70164C54.6813 8.49465 54.3771 8.33284 54.0531 8.22239C53.7176 8.10897 53.3837 8.01312 53.0498 7.93165C52.8358 7.87893 51.9428 7.58499 51.7367 7.49873C51.5494 7.42519 51.3823 7.30799 51.2495 7.15686C51.1286 7.00293 51.0669 6.81083 51.0753 6.61531C51.0749 6.489 51.1022 6.36412 51.1552 6.24948C51.214 6.12553 51.3036 6.0188 51.4156 5.93957C51.5574 5.83813 51.7174 5.76491 51.8869 5.72391C52.1292 5.6681 52.3784 5.64819 52.6265 5.6648C52.9088 5.68452 53.1877 5.73815 53.4572 5.82455C53.7863 5.93478 54.0259 6.03702 54.224 6.12488L55.51 4.898C54.4812 4.01937 52.9875 3.77975 52.3981 3.77975C51.9287 3.77752 51.4613 3.84152 51.0098 3.96985C50.5895 4.08237 50.1969 4.28032 49.8564 4.55134C49.5315 4.8254 49.2639 5.1609 49.0689 5.5386C48.843 5.94467 48.7201 6.39994 48.711 6.86452C48.7084 7.25097 48.7925 7.6331 48.9571 7.98277C49.1051 8.27747 49.3161 8.53599 49.5753 8.73998C49.8303 8.94451 50.1168 9.10636 50.4236 9.21923C50.7431 9.34224 51.9619 9.76238 52.2128 9.82948C52.4408 9.88797 52.6632 9.96655 52.8773 10.0643C53.0544 10.1426 53.2132 10.2568 53.3438 10.3998C53.4755 10.566 53.5384 10.7764 53.5195 10.9877C53.5019 11.3072 53.2639 12.0212 52.2159 12.1059C51.8295 12.1168 51.4439 12.0656 51.0737 11.9542C50.5722 11.8261 50.0925 11.6242 49.6504 11.3551L48.604 12.6986C49.6664 13.523 50.9719 13.9724 52.3166 13.9766C53.8422 13.9766 55.133 13.0085 55.5547 12.1618C55.7728 11.7144 55.8822 11.2218 55.8742 10.7241C55.8848 10.2955 55.7917 9.87077 55.6026 9.48602C55.445 9.17437 55.2202 8.90156 54.9445 8.68727L54.9541 8.70164ZM67.7164 4.17113H69.9513V13.5932H67.7164V4.17113ZM68.8331 6.3518e-05C68.4585 -0.000252844 68.0846 0.0296643 67.7148 0.0895234V2.2126H69.9513V0.0895234C69.5816 0.029685 69.2076 -0.000232007 68.8331 6.3518e-05ZM45.0014 5.18235C45.4196 5.65066 45.7371 6.19982 45.9344 6.79583C46.1556 7.46825 46.2636 8.17275 46.2539 8.88056C46.261 9.58634 46.1498 10.2883 45.9248 10.9573C45.7238 11.5537 45.403 12.1028 44.9822 12.5708C44.5697 13.0205 44.0637 13.3744 43.4998 13.6076C42.8832 13.858 42.2227 13.9824 41.5572 13.9734C40.8808 13.9838 40.209 13.8595 39.5811 13.6076C39.0163 13.376 38.5099 13.0219 38.0986 12.5708C37.6808 12.1022 37.3633 11.5532 37.1657 10.9573C36.9455 10.2874 36.8375 9.58569 36.8462 8.88056C36.8379 8.17209 36.9491 7.46729 37.1753 6.79583C37.3759 6.19925 37.6967 5.65012 38.1178 5.18235C38.5302 4.73217 39.0362 4.37774 39.6003 4.14398C40.217 3.89408 40.8775 3.77023 41.5428 3.77975C42.2192 3.76881 42.8909 3.89262 43.5189 4.14398C44.0839 4.37613 44.5902 4.73078 45.0014 5.18235ZM43.2761 11.288C43.5031 10.985 43.6711 10.6419 43.7713 10.2768C43.9 9.82265 43.9635 9.35255 43.9598 8.88056C43.9671 8.40911 43.9074 7.93902 43.7825 7.48435C43.6823 7.11774 43.5143 6.77313 43.2873 6.46834C43.0879 6.20328 42.8261 5.99149 42.5253 5.85171C42.221 5.71326 41.8899 5.64345 41.5556 5.64723C41.2249 5.64331 40.8974 5.71316 40.5971 5.85171C40.2983 5.99253 40.0383 6.20421 39.8399 6.46834C39.6135 6.77352 39.4456 7.118 39.3447 7.48435C39.2198 7.93902 39.1601 8.40911 39.1674 8.88056C39.1601 9.35201 39.2198 9.82211 39.3447 10.2768C39.4458 10.6425 39.6155 10.9856 39.8447 11.288C40.0479 11.549 40.3087 11.7595 40.6067 11.903C40.9063 12.0444 41.2339 12.1165 41.5652 12.1139C41.8966 12.1176 42.2244 12.0455 42.5237 11.903C42.8188 11.7591 43.0764 11.5486 43.2761 11.288ZM34.1163 6.64726C34.0959 6.4121 34.0509 6.17972 33.9821 5.95394C33.876 5.59724 33.709 5.26159 33.4884 4.9619C33.2906 4.69392 33.046 4.46391 32.7664 4.28296C32.4882 4.10685 32.1834 3.97684 31.8638 3.89796C31.5299 3.81484 31.187 3.77352 30.843 3.77496C30.4876 3.76786 30.1332 3.81472 29.7918 3.91394C28.9595 4.17114 27.6496 5.0881 27.6496 5.0881V0.33075C26.8371 0.588522 26.079 0.993574 25.4131 1.52568V13.5932H27.6496V6.7511C27.9793 6.43356 28.3566 6.16946 28.7678 5.96832C29.2221 5.75348 29.7191 5.64425 30.2216 5.64882C30.5304 5.64313 30.8354 5.71801 31.1066 5.86608C31.4 6.03762 31.6315 6.29766 31.7679 6.60892C31.825 6.77146 31.8615 6.94051 31.8766 7.11213C31.8988 7.34095 31.9089 7.57077 31.9069 7.80065V13.5932H34.1434V7.52269C34.1434 7.1936 34.1322 6.90446 34.1083 6.65365L34.1163 6.64726ZM93.9954 4.17113H94.0002L93.9954 4.15994V4.17113ZM93.9954 4.17113H91.7637V5.08649C91.527 4.69018 91.1922 4.36158 90.7914 4.1324C90.3907 3.90322 89.9377 3.78121 89.4761 3.77814C88.8744 3.76203 88.2761 3.8734 87.7205 4.10495C87.1649 4.3365 86.6645 4.68298 86.2523 5.12164C85.8088 5.60573 85.469 6.17548 85.2539 6.79582C85.031 7.46783 84.923 8.17262 84.9344 8.88055C84.9242 9.58579 85.0322 10.2878 85.2539 10.9573C85.469 11.5772 85.8088 12.1464 86.2523 12.6299C86.7843 13.1938 87.7859 13.9734 89.4761 13.9734C89.938 13.9706 90.3913 13.8485 90.7921 13.619C91.1929 13.3895 91.5276 13.0604 91.7637 12.6634C91.7637 12.747 91.7651 12.8368 91.7666 12.9312C91.7846 14.0995 91.8137 15.9843 89.3675 15.8424C88.4189 15.7936 87.4947 15.5251 86.6677 15.0581L85.8003 16.5933C86.8152 17.279 87.9974 17.6761 89.2205 17.7419C91.6711 17.8585 92.8245 17.0166 93.4331 15.9687C93.9906 15.0102 93.9986 13.975 93.9954 12.1075V4.17113ZM89.1374 12.0548L89.2029 12.0676L89.2061 12.0771C90.2956 12.2561 91.2573 11.6298 91.7621 11.0196V6.73671C91.2541 6.12646 90.2908 5.50024 89.2061 5.68076L89.1406 5.69194H89.1151C88.9586 5.72894 88.8065 5.78249 88.6614 5.85169C88.3628 5.98846 88.1018 6.19568 87.901 6.45555C87.6746 6.76073 87.5067 7.10521 87.4057 7.47156C87.2809 7.92623 87.2212 8.39632 87.2284 8.86777C87.2213 9.33922 87.281 9.80929 87.4057 10.264C87.5073 10.6301 87.6752 10.9744 87.901 11.28C88.0995 11.5437 88.3594 11.7548 88.6582 11.895C88.8027 11.9657 88.955 12.0193 89.1119 12.0548H89.1374Z" fill="#FFFFFF"></path></svg>