<svg width="64" height="64" viewBox="0 0 64 64" fill="white" xmlns="http://www.w3.org/2000/svg" ><path d="M40.0482 27.792C41.8028 26.0374 41.8028 23.1892 40.0482 21.4346C34.3407 15.7249 25.0841 15.7249 19.3766 21.4346L2.19652 38.6147C1.38687 39.4244 0.000488281 38.8521 0.000488281 37.7053V37.7008C0.000488281 16.8784 16.8789 0 37.7013 0H57.3769C61.0325 0 63.9961 2.96354 63.9961 6.61916C63.9961 9.09025 63.0156 11.4571 61.2676 13.205L39.6245 34.8482C37.4285 37.0442 33.866 37.0442 31.67 34.8482C29.9154 33.0936 27.0672 33.0936 25.3126 34.8482C23.558 36.605 23.558 39.451 25.3126 41.2078C31.0223 46.9153 40.2767 46.9153 45.9863 41.2078L61.8045 25.3897C62.6141 24.5801 64.0005 25.1524 64.0005 26.2992C64.0005 47.1216 47.1221 64 26.2997 64H6.62409C2.96846 64 0.00492482 61.0365 0.00492482 57.3808C0.00492482 54.9097 0.985377 52.5429 2.73333 50.795L25.7385 27.7898C27.9367 25.5916 31.4992 25.5938 33.6952 27.7898C35.4498 29.5466 38.298 29.5466 40.0548 27.7898L40.0482 27.792Z" fill="white" data-darkreader-inline-fill="" style="--darkreader-inline-fill: currentColor;"></path></svg>