<?xml version="1.0" encoding="UTF-8"?><svg id="Layer_1" xmlns="http://www.w3.org/2000/svg" viewBox="0 0 2781.37 794.68"><polygon points="451.79 157 489.44 215.72 572.66 228.34 521.89 174.36 451.79 157" style="fill:#fff; stroke-width:0px;"/><polygon points="649.94 238.24 671.33 290.63 703.45 278.86 699.48 248.09 649.94 238.24" style="fill:#fff; stroke-width:0px;"/><path d="m318.47,379.88h-177.65c-3.24,0-5.68,2.43-5.68,5.68v10.98c0-3.24,2.43-5.68,5.68-5.68h177.65c2.43,0,4.86,2.43,4.87,5.66v-10.96c0-3.24-2.43-5.68-4.87-5.68Z" style="fill:#ec1d23; stroke-width:0px;"/><rect x="28.88" y="744.09" width="106.26" height="10.98" style="fill:#ec1d23; stroke-width:0px;"/><rect x="618.6" y="744.09" width="105.45" height="10.98" style="fill:#ec1d23; stroke-width:0px;"/><polygon points="323.31 755.1 430.65 755.07 430.64 744.09 323.31 744.13 323.31 755.1" style="fill:#ec1d23; stroke-width:0px;"/><path d="m612.11,379.88h-176.84c-3.24,0-4.87,2.43-4.87,5.68v10.75c.08-3.13,1.7-5.46,4.87-5.46h176.84c4.06,0,6.49,2.43,6.49,5.68v-10.98c0-3.24-2.43-5.68-6.49-5.68Z" style="fill:#ec1d23; stroke-width:0px;"/><path d="m612.11,273.61H28.88v10.98h583.24c61.65,0,111.94,50.29,111.94,111.94v-10.98c0-61.65-50.29-111.94-111.94-111.94Z" style="fill:#fff; stroke-width:0px;"/><path d="m430.64,744.09h0l-.23-347.79c0,.07,0,.15,0,.22l.23,347.56Z" style="fill:#fff; stroke-width:0px;"/><path d="m323.34,396.51l-.03,347.61h0l.03-347.6s0-.01,0-.02Z" style="fill:#fff; stroke-width:0px;"/><path d="m612.11,284.59H28.88v459.51h106.26v-358.54c0-3.24,2.43-5.68,5.68-5.68h177.65c2.43,0,4.87,2.43,4.87,5.68v10.96s0,.01,0,.02l-.03,347.6,107.33-.03-.23-347.56c0-.08,0-.15,0-.22v-10.75c0-3.24,1.62-5.68,4.86-5.68h176.84c4.06,0,6.49,2.43,6.49,5.68v358.54h105.45v-347.56c0-61.65-50.29-111.94-111.94-111.94Z" style="fill:#fff; stroke-width:0px;"/><path d="m430.52,546.59l.07,103.4s65.74,26.07,88.22,115.08c0,0,28.59-134.87-88.29-218.48Z" style="fill:#ec1d23; stroke-width:0px;"/><path d="m612.11,273.61H149.97c7.25,12.78-5.9,37.1-45.71,61.85-70.13,43.61-71.93,123.63-71.93,123.63,55.67-80.14,73.36,23.34,102.81,77.27v-150.8c0-3.24,2.43-5.68,5.68-5.68h165.04c1.42,0-.12,0-.12,0,12.64-57.4,79.94-58.35,79.94-58.35,5.39-28.77,35.96-28.77,35.96-28.77-17.98,2.7-25.17,31.47-24.28,48.55.65,12.29,14.32,22.25,35.99,38.92.56-.22,1.19-.35,1.91-.35h56.23c-15.86-25.35-9.62-56.55-9.62-56.55,11.69.9,53.95-6.29,68.33-10.79,14.39-4.5,28.77-8.09,46.75,2.7,17.98,10.79,2.01,46.75,2.01,46.75l40.25-26.97c45.85-33.27,42.33,32.37,42.33,32.37,13.16-11.19,23.59-22.03,30.38-32.39-18.53-36.36-56.35-61.38-99.82-61.38Z" style="fill:#c9c9c9; stroke-width:0px;"/><path d="m34,444.99c59.34-85.41,75.52,37.76,108.79,87.21,33.27,49.45,77.32,56.64,94.41,62.94,17.08,6.29,86.12,18.01,86.12,18.01v-172.63c-31.68-18.27-41.79-57.89-20.08-90.69,27.09-40.9,84.11-42.41,84.11-42.41,5.39-28.77,35.96-28.77,35.96-28.77-17.98,2.7-25.17,31.47-24.28,48.55.9,17.08,26.97,29.67,64.73,62.04,37.76,32.37,38.66,123.18,38.66,123.18,16.18-16.18,25.17-10.79,63.84-25.17,38.66-14.39,35.96-70.13,35.96-70.13-38.66,46.75-55.74,13.49-55.74,13.49,0,0-28.77-33.27-49.45-59.34-20.68-26.07-13.49-62.04-13.49-62.04,11.69.9,53.95-6.29,68.33-10.79,14.39-4.5,28.77-8.09,46.75,2.7,17.98,10.79,4.5,46.75,4.5,46.75l37.76-26.97c45.85-33.27,43.16,32.37,43.16,32.37,89.91-76.42,13.49-136.66,13.49-136.66-24.28,8.09-41.36-8.09-41.36-8.09-49.45-26.07-59.34-22.48-59.34-22.48-37.76-3.6-41.36-15.28-41.36-15.28-27.87-33.27-65.63-34.17-65.63-34.17-123.18-30.57-180.72-106.99-180.72-106.99-20.68,78.22,35.06,114.19,35.06,114.19-195.1,33.27-241.86,111.49-241.86,111.49,61.14-19.78,73.73,22.48,3.6,66.08-70.13,43.61-71.93,123.63-71.93,123.63Zm637.46-196.9s37.76,6.29,16.18,21.58c-21.58,15.28-16.18-21.58-16.18-21.58Zm-192.41-73.73s37.76,12.59,44.06,17.98c6.29,5.39,23.38,23.38,23.38,23.38,0,0-33.27-6.29-40.46-10.79-7.19-4.5-25.17-14.39-26.97-30.57Z" style="fill:#ec1d23; stroke-width:0px;"/><path d="m302.91,609.67c6.86,1.22,20.4,3.49,20.4,3.49v-172.63s-22.65-23-27.05-30.47c0,0,16.03,34.3,15.41,108.94-.77,91.91-8.76,90.68-8.76,90.68Z" style="fill:#cc2541; stroke-width:0px;"/><path d="m435.44,550.2s3.44-.54,2.05,48.09c-1.24,43.53-6.9,51.7-6.9,51.7l-.07-103.4,4.92,3.61Z" style="fill:#cc2541; stroke-width:0px;"/><path d="m833.17,673.57c0,2.04,1.53,3.58,3.58,3.58h163.62v-36.58h-167.2v33Z" style="fill:none; stroke-width:0px;"/><rect x="833.17" y="629.59" width="167.2" height="10.98" style="fill:#ec1d23; stroke-width:0px;"/><path d="m996.79,514.55h-230.6v10.98h230.6c2.05,0,3.58,1.53,3.58,3.58v-10.98c0-2.05-1.53-3.58-3.58-3.58Z" style="fill:#ec1d23; stroke-width:0px;"/><path d="m766.18,673.57v10.98c0,38.86,31.7,70.56,70.56,70.56h230.6v-10.98h-230.6c-38.86,0-70.56-31.7-70.56-70.56Z" style="fill:#ec1d23; stroke-width:0px;"/><path d="m996.79,447.57h-230.6v10.98h230.6c38.86,0,70.56,31.7,70.56,70.56v-10.98c0-38.86-31.7-70.56-70.56-70.56Z" style="fill:#fff; stroke-width:0px;"/><rect x="766.18" y="562.1" width="234.18" height="10.98" style="fill:#fff; stroke-width:0px;"/><path d="m833.17,673.57v10.98c0,2.05,1.53,3.58,3.58,3.58h163.62v-10.98h-163.62c-2.05,0-3.58-1.53-3.58-3.58Z" style="fill:#fff; stroke-width:0px;"/><path d="m996.79,458.54h-230.6v56.01h230.6c2.05,0,3.58,1.53,3.58,3.58v54.95h-234.18v100.49c0,38.86,31.7,70.56,70.56,70.56h230.6v-215.02c0-38.86-31.7-70.56-70.56-70.56Zm3.58,182.03v47.55h-163.62c-2.05,0-3.58-1.53-3.58-3.58v-54.95h167.2v10.98Z" style="fill:#fff; stroke-width:0px;"/><path d="m1107.74,673.57v10.98c0,38.86,31.7,70.56,70.56,70.56h230.6v-10.98h-230.6c-38.86,0-70.56-31.7-70.56-70.56Z" style="fill:#ec1d23; stroke-width:0px;"/><path d="m1174.72,518.13v10.98c0-2.05,1.53-3.58,3.58-3.58h229.58v-10.98h-229.58c-2.05,0-3.58,1.53-3.58,3.58Z" style="fill:#ec1d23; stroke-width:0px;"/><path d="m1178.3,677.15c-2.05,0-3.58-1.53-3.58-3.58v10.98c0,2.05,1.53,3.58,3.58,3.58h230.6v-10.98h-230.6Z" style="fill:#fff; stroke-width:0px;"/><path d="m1178.3,458.54h229.58v-10.98h-229.58c-38.86,0-70.56,31.7-70.56,70.56v10.98c0-38.86,31.7-70.56,70.56-70.56Z" style="fill:#fff; stroke-width:0px;"/><path d="m1174.72,684.54v-166.41c0-2.05,1.53-3.58,3.58-3.58h229.58v-56.01h-229.58c-38.86,0-70.56,31.7-70.56,70.56v144.46c0,38.86,31.7,70.56,70.56,70.56h230.6v-56.01h-230.6c-2.05,0-3.58-1.53-3.58-3.58Z" style="fill:#fff; stroke-width:0px;"/><path d="m1522.92,673.57c0,2.04,1.53,3.58,3.58,3.58h163.62v-36.58h-167.2v33Z" style="fill:none; stroke-width:0px;"/><path d="m1455.94,673.57v10.98c0,38.86,31.7,70.56,70.56,70.56h230.6v-10.98h-230.6c-38.86,0-70.56-31.7-70.56-70.56Z" style="fill:#ec1d23; stroke-width:0px;"/><path d="m1686.54,514.55h-230.6v10.98h230.6c2.05,0,3.58,1.53,3.58,3.58v-10.98c0-2.05-1.53-3.58-3.58-3.58Z" style="fill:#ec1d23; stroke-width:0px;"/><rect x="1522.92" y="629.59" width="167.2" height="10.98" style="fill:#ec1d23; stroke-width:0px;"/><rect x="1455.94" y="562.1" width="234.18" height="10.98" style="fill:#fff; stroke-width:0px;"/><path d="m1686.54,447.57h-230.6v10.98h230.6c38.86,0,70.56,31.7,70.56,70.56v-10.98c0-38.86-31.7-70.56-70.56-70.56Z" style="fill:#fff; stroke-width:0px;"/><path d="m1522.92,673.57v10.98c0,2.05,1.53,3.58,3.58,3.58h163.62v-10.98h-163.62c-2.05,0-3.58-1.53-3.58-3.58Z" style="fill:#fff; stroke-width:0px;"/><path d="m1686.54,458.54h-230.6v56.01h230.6c2.05,0,3.58,1.53,3.58,3.58v54.95h-234.18v100.49c0,38.86,31.7,70.56,70.56,70.56h230.6v-215.02c0-38.86-31.7-70.56-70.56-70.56Zm3.58,182.03v47.55h-163.62c-2.05,0-3.58-1.53-3.58-3.58v-54.95h167.2v10.98Z" style="fill:#fff; stroke-width:0px;"/><path d="m1869.07,518.13v10.98c0-2.05,1.53-3.58,3.58-3.58h164.64v-10.98h-164.64c-2.05,0-3.58,1.53-3.58,3.58Z" style="fill:#ec1d23; stroke-width:0px;"/><rect x="1802.09" y="744.13" width="66.98" height="10.98" style="fill:#ec1d23; stroke-width:0px;"/><path d="m1872.65,447.57c-38.86,0-70.56,31.7-70.56,70.56v10.98c0-38.86,31.7-70.56,70.56-70.56h164.64v-10.98h-164.64Z" style="fill:#fff; stroke-width:0px;"/><path d="m1802.09,529.1v215.02h66.98v-226c0-2.05,1.53-3.58,3.58-3.58h164.64v-56.01h-164.64c-38.86,0-70.56,31.7-70.56,70.56Z" style="fill:#fff; stroke-width:0px;"/><rect x="2073.08" y="744.13" width="66.98" height="10.98" style="fill:#ec1d23; stroke-width:0px;"/><rect x="2307.26" y="744.13" width="66.98" height="10.98" style="fill:#ec1d23; stroke-width:0px;"/><path d="m2303.68,514.55h-160.04c-2.05,0-3.58,1.53-3.58,3.58v10.98c0-2.05,1.53-3.58,3.58-3.58h160.04c2.05,0,3.58,1.53,3.58,3.58v-10.98c0-2.05-1.53-3.58-3.58-3.58Z" style="fill:#ec1d23; stroke-width:0px;"/><path d="m2303.68,447.57h-230.6v10.98h230.6c38.86,0,70.56,31.7,70.56,70.56v-10.98c0-38.86-31.7-70.56-70.56-70.56Z" style="fill:#fff; stroke-width:0px;"/><path d="m2303.68,458.54h-230.6v285.59h66.98v-226c0-2.05,1.53-3.58,3.58-3.58h160.04c2.05,0,3.58,1.53,3.58,3.58v226h66.98v-215.02c0-38.86-31.7-70.56-70.56-70.56Z" style="fill:#fff; stroke-width:0px;"/><path d="m2645.24,525.52h-160.04c-2.05,0-3.58,1.53-3.58,3.58v33h167.2v-33c0-2.05-1.53-3.58-3.58-3.58Z" style="fill:none; stroke-width:0px;"/><path d="m2645.24,514.55h-160.04c-2.05,0-3.58,1.53-3.58,3.58v10.98c0-2.05,1.53-3.58,3.58-3.58h160.04c2.05,0,3.58,1.53,3.58,3.58v-10.98c0-2.05-1.53-3.58-3.58-3.58Z" style="fill:#ec1d23; stroke-width:0px;"/><rect x="2481.62" y="629.59" width="234.18" height="10.98" style="fill:#ec1d23; stroke-width:0px;"/><path d="m2414.64,673.57v10.98c0,38.86,31.7,70.56,70.56,70.56h230.6v-10.98h-230.6c-38.86,0-70.56-31.7-70.56-70.56Z" style="fill:#ec1d23; stroke-width:0px;"/><path d="m2485.2,688.12h230.6v-10.98h-230.6c-2.05,0-3.58-1.53-3.58-3.58v10.98c0,2.05,1.53,3.58,3.58,3.58Z" style="fill:#fff; stroke-width:0px;"/><rect x="2481.62" y="562.1" width="167.2" height="10.98" style="fill:#fff; stroke-width:0px;"/><path d="m2645.24,447.57h-160.04c-38.86,0-70.56,31.7-70.56,70.56v10.98c0-38.86,31.7-70.56,70.56-70.56h160.04c38.86,0,70.56,31.7,70.56,70.56v-10.98c0-38.86-31.7-70.56-70.56-70.56Z" style="fill:#fff; stroke-width:0px;"/><path d="m2645.24,458.54h-160.04c-38.86,0-70.56,31.7-70.56,70.56v144.46c0,38.86,31.7,70.56,70.56,70.56h230.6v-56.01h-230.6c-2.05,0-3.58-1.53-3.58-3.58v-54.95h234.18v-100.49c0-38.86-31.7-70.56-70.56-70.56Zm3.58,70.56v43.97h-167.2v-54.95c0-2.05,1.53-3.58,3.58-3.58h160.04c2.05,0,3.58,1.53,3.58,3.58v10.98Z" style="fill:#fff; stroke-width:0px;"/><path d="m2698.61,424.22v-4.95h21.95v4.95h-8.03v21.84h-5.89v-21.84h-8.03Z" style="fill:#fff; stroke-width:0px;"/><path d="m2731.93,419.27l6.27,18.43h.08l5.93-18.43h8.29v26.79h-5.52v-18.99h-.07l-6.57,18.99h-4.54l-6.57-18.8h-.08v18.8h-5.52v-26.79h8.29Z" style="fill:#fff; stroke-width:0px;"/></svg>