<svg width="116" height="34" viewBox="0 0 116 34" fill="#ffffff" xmlns="http://www.w3.org/2000/svg">
<g clip-path="url(#clip0_7548_203)">
<path d="M62.0358 20.6564V31.218H57.8091V21.6756C57.8242 20.9561 57.7143 20.2393 57.4843 19.5573C57.3087 19.0375 56.9816 18.5821 56.545 18.2496C56.0705 17.9365 55.5091 17.7816 54.9412 17.807C54.3173 17.7881 53.7051 17.979 53.2025 18.349C52.6843 18.7685 52.309 19.3383 52.1284 19.9801C51.8645 20.8839 51.7431 21.8234 51.7686 22.7647V31.218H47.5375V21.6109C47.607 20.6101 47.3625 19.6126 46.8381 18.7574C46.6053 18.4432 46.2979 18.192 45.9438 18.0262C45.5897 17.8604 45.1999 17.7853 44.8095 17.8076C44.1685 17.7876 43.5386 17.9779 43.016 18.3496C42.4898 18.7676 42.1044 19.3369 41.9117 19.9806C41.6334 20.8818 41.5052 21.8225 41.5321 22.7653V31.2186H37.2695V14.4802H41.5363V16.7178C41.8608 16.146 42.2956 15.6444 42.8154 15.2418C43.3163 14.8617 43.8816 14.5751 44.4842 14.3956C45.0433 14.227 45.6241 14.1415 46.208 14.1419C47.0735 14.1353 47.9315 14.3026 48.7311 14.6339C49.567 14.9918 50.2879 15.5733 50.8146 16.3145C50.8945 16.4289 50.9594 16.5582 51.0344 16.6776C51.5899 15.8457 52.3551 15.175 53.2527 14.7333C54.1014 14.3353 55.0282 14.1315 55.9657 14.1366C57.1955 14.0822 58.4116 14.4143 59.443 15.0863C60.3122 15.6972 60.9924 16.5397 61.4065 17.5179C61.827 18.5103 62.0412 19.5779 62.0362 20.6557" fill="#ffffff"/>
<path d="M76.269 15.2597C74.9527 14.5013 73.4554 14.1137 71.9364 14.138C70.4008 14.1118 68.8865 14.4992 67.5522 15.2597C66.2842 15.9893 65.24 17.0521 64.533 18.3329C63.8129 19.7237 63.4385 21.2676 63.4414 22.8339C63.4444 24.4001 63.8246 25.9426 64.5499 27.3307C65.2559 28.621 66.2998 29.6947 67.5695 30.4369C68.8969 31.1988 70.406 31.5864 71.9362 31.5587C73.4573 31.5836 74.9561 31.1902 76.2688 30.4214C77.531 29.6749 78.5683 28.6015 79.2712 27.3146C79.9884 25.9265 80.3628 24.3868 80.3628 22.8244C80.3628 21.262 79.9884 19.7223 79.2712 18.3342C78.5669 17.0571 77.5293 15.995 76.2688 15.2613M75.6033 25.5143C75.3074 26.2206 74.8088 26.8232 74.1704 27.2461C73.5021 27.6655 72.7248 27.8781 71.936 27.8572C71.1309 27.8797 70.3367 27.6673 69.6502 27.2461C69.0019 26.8253 68.4917 26.223 68.1833 25.5143C67.5008 23.7854 67.5008 21.8618 68.1833 20.1329C68.4927 19.4337 69.0034 18.8425 69.6502 18.4348C70.3405 18.0243 71.1332 17.8182 71.936 17.8407C72.7225 17.8196 73.4983 18.0259 74.1704 18.4348C74.8072 18.8447 75.3063 19.4363 75.6033 20.1329C76.2628 21.8661 76.2628 23.7811 75.6033 25.5143Z" fill="#ffffff"/>
<path d="M97.2127 18.1502C96.6454 16.9347 95.7467 15.904 94.6198 15.1766C93.5405 14.4908 92.286 14.1316 91.0074 14.1422C90.1339 14.1388 89.2705 14.329 88.4794 14.6992C87.6699 15.0847 86.9718 15.6699 86.4508 16.3997C86.3559 16.5339 86.2758 16.6732 86.1959 16.8129V7.55371H81.9648V31.2181H86.1959V28.9107C86.2959 29.0749 86.3908 29.2439 86.5008 29.4027C87.0285 30.1301 87.7408 30.7034 88.5642 31.0635C89.3373 31.3898 90.1682 31.5571 91.0074 31.5555V31.5604C92.374 31.5901 93.7157 31.192 94.8449 30.4217C95.9476 29.6352 96.8051 28.5526 97.318 27.299C97.9028 25.8841 98.1919 24.3645 98.1674 22.8337C98.2159 21.2196 97.8893 19.6164 97.2131 18.15M93.426 25.4149C93.1226 26.0972 92.6324 26.6799 92.012 27.0955C91.3648 27.5054 90.6095 27.7116 89.8437 27.6872C89.0891 27.7062 88.3466 27.4946 87.7154 27.0805C87.0981 26.6568 86.6131 26.0672 86.3164 25.3798C85.6569 23.7466 85.6569 21.9212 86.3164 20.2879C86.6111 19.6046 87.0969 19.021 87.7154 18.6073C88.3488 18.1991 89.0905 17.9912 89.8437 18.0106C90.6096 17.9904 91.3643 18.1981 92.012 18.6073C92.6292 19.018 93.119 19.5933 93.426 20.2681C93.7894 21.0734 93.9653 21.9507 93.9406 22.8339C93.9609 23.7215 93.7852 24.6027 93.426 25.4147" fill="#ffffff"/>
<path d="M115.029 18.1502C114.462 16.9347 113.563 15.904 112.436 15.1766C111.355 14.4902 110.099 14.1309 108.819 14.1422C107.947 14.1394 107.085 14.3296 106.296 14.6992C105.486 15.0848 104.788 15.6699 104.267 16.3997C104.175 16.5341 104.09 16.6736 104.012 16.8175V7.55371H99.7812V31.2182H104.012V28.9107C104.112 29.0749 104.207 29.2439 104.317 29.4027C104.844 30.1312 105.556 30.7047 106.381 31.0635C107.152 31.3893 107.981 31.5566 108.819 31.5555V31.5604C110.187 31.5907 111.53 31.1926 112.661 30.4217C113.763 29.6353 114.621 28.5526 115.134 27.299C115.719 25.8841 116.008 24.3645 115.983 22.8337C116.032 21.2196 115.705 19.6164 115.029 18.15M111.242 25.4149C110.937 26.0962 110.447 26.6784 109.828 27.0955C109.181 27.5054 108.425 27.7116 107.66 27.6872C106.903 27.7056 106.159 27.494 105.526 27.0805C104.911 26.6542 104.427 26.0657 104.126 25.3804C103.472 23.7462 103.472 21.9227 104.126 20.2885C104.423 19.6063 104.908 19.0231 105.526 18.6079C106.161 18.2003 106.904 17.9925 107.659 18.0112C108.425 17.991 109.18 18.1987 109.827 18.6079C110.443 19.0201 110.933 19.5949 111.241 20.2687C111.581 21.084 111.756 21.9586 111.756 22.8419C111.756 23.7253 111.581 24.5999 111.241 25.4152" fill="#ffffff"/>
<path d="M16.8829 24.7842C10.4967 26.5461 8.23038 29.14 5.46875 30.3667C8.23697 32.2958 11.4753 33.4404 14.8409 33.6795C18.2065 33.9185 21.5741 33.243 24.5872 31.7246C21.7402 27.9835 18.8532 27.7141 16.8829 24.7842Z" fill="#ffffff"/>
<path opacity="0.6" d="M22.3984 23.6654C21.2767 23.8229 20.2455 24.0025 19.2891 24.1999C19.1635 24.2261 19.038 24.2515 18.9132 24.2786C18.2552 24.423 17.6008 24.5823 16.95 24.7567L16.8516 24.7842C18.8219 27.7141 21.7093 27.9835 24.5559 31.7252C24.9588 31.5217 25.3531 31.3041 25.7386 31.0724V31.0289C24.6883 28.8077 23.2293 27.3801 22.399 23.665" fill="#ffffff"/>
<path d="M18.9065 13.6344C19.9572 13.5058 21.0181 13.4831 22.0734 13.5667C22.1159 14.4257 22.0734 15.6541 22.0734 15.6541C22.0734 15.6541 23.655 14.4119 24.3861 15.9961C24.8761 17.0588 24.2511 18.7274 22.2355 20.083C22.0757 20.2099 21.8252 20.3292 21.9624 20.5588C22.0995 20.7885 23.038 20.4738 23.8142 20.2121C26.7624 19.2188 31.5386 17.2072 31.4638 14.5562C31.4388 13.6816 30.8117 13.0015 29.9841 12.4817L29.9464 12.4603C24.7882 9.54595 16.4704 11.1435 16.4704 11.1435C16.4704 11.1435 18.9648 9.457 19.723 6.69596C20.3601 4.37732 19.6404 1.32522 19.4017 0.398512C19.3704 0.362498 19.3659 0.300311 19.3387 0.271973C13.6419 0.958395 14.2602 3.36166 7.53354 4.25413C6.30396 6.93664 6.18588 11.5135 6.17742 12.9918C5.62797 13.2028 -0.289075 15.0607 -0.014152 18.3565C0.224364 20.8034 4.84846 21.4775 6.38071 21.6365C6.55783 21.655 4.51962 19.8385 4.27854 18.1996C4.24666 18.0479 4.4224 17.9832 4.50387 18.0166C5.51186 20.1272 7.20587 21.8657 8.23314 21.4627C9.26042 21.0597 9.14903 18.1018 9.35488 17.1609C9.56072 16.2201 10.6197 15.8166 11.1064 16.9134C11.5255 17.8566 12.3367 19.7573 14.3637 19.7809C13.8687 19.0183 13.5428 18.1586 13.4079 17.2595C13.1717 15.0572 14.6292 14.2289 15.6446 14.0154C16.6601 13.8018 18.9065 13.6344 18.9065 13.6344Z" fill="#ffffff"/>
<path opacity="0.6" d="M25.797 11.0321C25.797 11.0321 20.7604 1.93489 19.3274 0.271973C19.5667 1.19908 20.3507 4.37673 19.7117 6.69557C18.9513 9.457 16.4492 11.1435 16.4492 11.1435C16.4492 11.1435 21.2349 10.2271 25.8043 11.0487L25.797 11.0321Z" fill="#ffffff"/>
<path opacity="0.6" d="M15.6439 14.0155C14.6255 14.2286 13.1643 15.0571 13.4004 17.2595C13.5361 18.159 13.8634 19.019 14.3602 19.7812C14.3883 19.7812 14.4161 19.7826 14.4448 19.7812C14.4861 19.7812 14.5267 19.778 14.5678 19.7761C14.6089 19.7741 14.6447 19.7731 14.6845 19.7696C14.7132 19.7674 14.7424 19.7633 14.7715 19.7605C15.0012 19.7359 15.2287 19.693 15.4516 19.6322C18.1227 18.9102 18.7578 15.5233 18.8936 13.9297C18.8957 13.9043 18.8975 13.8805 18.8993 13.8561C18.901 13.8317 18.9036 13.8041 18.9054 13.7799C18.9087 13.7319 18.9123 13.6772 18.915 13.6333C18.915 13.6333 16.6621 13.8012 15.6435 14.0143" fill="#ffffff"/>
</g>
<defs>
<clipPath id="clip0_7548_203">
<rect width="116" height="33.4552" fill="white" transform="translate(0 0.272461)"/>
</clipPath>
</defs>
</svg>
