<svg width="100%" height="100%" viewBox="0 0 180 40" fill="none" xmlns="http://www.w3.org/2000/svg">
<g clip-path="url(#clip0_10238_2262)">
<path d="M30.4224 10.6994L22.8911 14.9693C22.6106 15.1283 22.4378 15.4221 22.4376 15.7401L22.4277 33.8151C22.4275 34.134 22.601 34.4286 22.8824 34.5876L25.7335 36.1982C26.0135 36.3564 26.358 36.3564 26.638 36.1982L29.4899 34.5873C29.7709 34.4285 29.9443 34.1346 29.9446 33.8162L29.9582 20.4965C29.9586 20.1777 30.1324 19.8834 30.414 19.7248L30.4178 19.7227C30.6979 19.5649 31.0422 19.5653 31.322 19.7236L31.3229 19.7241C31.6038 19.8832 31.7769 20.1773 31.7769 20.4957V27.491C31.7769 27.8087 31.9492 28.1024 32.2291 28.2616C32.5097 28.4213 32.8557 28.4217 33.1367 28.2627L38.8371 25.0361C39.118 24.8771 39.2911 24.583 39.2912 24.2646L39.2919 15.7468C39.2919 15.4292 39.1197 15.1356 38.8399 14.9763L31.3308 10.7002C31.0499 10.5403 30.7035 10.54 30.4224 10.6994Z" fill="#397DFE"></path>
<path d="M29.0366 8.91234L29.0314 5.68238C29.0309 5.36522 28.8586 5.07222 28.5792 4.91321L25.7326 3.29329C25.452 3.13365 25.1061 3.1332 24.8252 3.29211L13.0717 9.94035C12.7904 10.0995 12.4439 10.0988 12.1632 9.93857L12.1594 9.9364C11.8803 9.77708 11.7085 9.48405 11.7083 9.16702V9.16603C11.708 8.84763 11.8809 8.55333 12.1617 8.39413L18.3309 4.89649C18.611 4.73766 18.7838 4.44433 18.7844 4.12667C18.7849 3.80817 18.6122 3.51358 18.3315 3.35415L12.6357 0.119639C12.355 -0.0397401 12.009 -0.0398971 11.7283 0.119273L4.21611 4.3775C3.93599 4.53628 3.76319 4.82954 3.76258 5.14715L3.7461 13.6712C3.74548 13.99 3.91844 14.2848 4.19957 14.4442L11.7308 18.7141C12.0113 18.8731 12.3568 18.8732 12.6373 18.7144L28.5827 9.68528C28.864 9.526 29.0371 9.2312 29.0366 8.91234Z" fill="#397DFE"></path>
<path d="M0.00527454 18.8953L1.22926e-06 22.1261C-0.000531428 22.4445 0.172076 22.739 0.45268 22.8984L12.1925 29.5698C12.4735 29.7295 12.6461 30.0245 12.6452 30.3433V30.3477C12.6442 30.6647 12.4717 30.9573 12.1922 31.1161L12.1914 31.1166C11.9107 31.2759 11.5647 31.2761 11.2839 31.1169L5.11466 27.6192C4.83451 27.4604 4.48945 27.4601 4.20903 27.6185C3.92787 27.7773 3.75446 28.0714 3.75425 28.3899L3.74959 34.851C3.74935 35.1694 3.92222 35.4637 4.20299 35.6229L11.7144 39.8824C11.9945 40.0413 12.3395 40.0416 12.6199 39.8833L20.1455 35.6353C20.427 35.4764 20.6005 35.182 20.6005 34.8631V26.3234C20.6005 26.0053 20.4278 25.7114 20.1474 25.5523L4.21202 16.5063C3.93091 16.3467 3.58436 16.3469 3.30341 16.5068L0.457527 18.1261C0.178069 18.2851 0.00578056 18.5781 0.00527454 18.8953Z" fill="#397DFE"></path>
<path d="M62.4848 9.36236C61.8551 8.70967 61.0909 8.20614 60.1932 7.85069C59.295 7.49589 58.2866 7.31836 57.1671 7.31836H46.1816V31.2984H50.7999V22.1599H57.1671C58.2866 22.1599 59.2951 21.9826 60.1932 21.6273C61.0909 21.2724 61.8551 20.7684 62.4848 20.1156C63.1145 19.4629 63.5922 18.6846 63.9192 17.7794C64.2455 16.8749 64.409 15.8615 64.409 14.739C64.409 13.6396 64.2454 12.6321 63.9192 11.7157C63.5922 10.8 63.1145 10.015 62.4848 9.36236ZM59.616 15.5291C59.616 16.3999 59.359 17.0698 58.8463 17.5389C58.333 18.0088 57.6332 18.2433 56.7471 18.2433H50.7999V11.2691H56.7471C57.6332 11.2691 58.333 11.4983 58.8463 11.9562C59.359 12.4146 59.616 13.0787 59.616 13.9488V15.5291Z" fill="white"></path>
<path d="M79.7676 15.629C79.0909 14.8043 78.2282 14.1516 77.1786 13.6707C76.129 13.1896 74.8926 12.9492 73.4702 12.9492C72.1407 12.9492 70.9513 13.1725 69.9017 13.6191C68.8523 14.0657 67.9656 14.696 67.2429 15.5086C66.5196 16.3219 65.966 17.301 65.5809 18.446C65.1962 19.5915 65.0039 20.874 65.0039 22.2939C65.0039 23.7368 65.2018 25.0369 65.5987 26.1933C65.9949 27.35 66.5608 28.335 67.2955 29.1478C68.0301 29.961 68.9277 30.5907 69.9893 31.0374C71.0503 31.484 72.2571 31.7074 73.6101 31.7074C75.3125 31.7074 76.8113 31.4142 78.1056 30.829C79.4003 30.2434 80.4203 29.4339 81.167 28.4001L78.7531 25.7471C78.1931 26.4525 77.5577 27.0321 76.8463 27.487C76.1345 27.9415 75.2195 28.1686 74.1 28.1686C72.6305 28.1686 71.5225 27.7768 70.7763 26.992C70.0297 26.2077 69.6567 25.1675 69.6567 23.871V23.4276H81.7967V21.9846C81.7967 20.7478 81.6272 19.5857 81.2895 18.4975C80.9512 17.4099 80.4438 16.4534 79.7676 15.629ZM77.1438 20.7135H69.6568V20.4387C69.6568 19.2018 70.0068 18.1943 70.7065 17.4153C71.4061 16.637 72.3509 16.2472 73.5404 16.2472C74.7062 16.2472 75.5983 16.6312 76.2166 17.3982C76.8343 18.1658 77.1439 19.1676 77.1439 20.4043L77.1438 20.7135Z" fill="white"></path>
<path d="M89.8065 8.45706H85.7834V11.5147C85.7834 12.1331 85.661 12.5969 85.4161 12.906C85.171 13.2152 84.7103 13.3698 84.034 13.3698H82.6348V16.9084H85.3284V26.7449C85.3284 28.2075 85.7307 29.3333 86.5354 30.1212C87.3403 30.9094 88.5122 31.3034 90.0514 31.3034H93.2702V27.7648H89.8065V16.9084H93.5501V13.3698H89.8065V8.45706Z" fill="white"></path>
<path d="M103.609 13.6784C103.061 13.8844 102.589 14.1594 102.193 14.5028C101.796 14.8465 101.475 15.2415 101.23 15.6882C100.986 16.1348 100.805 16.5985 100.688 17.0796H100.513V13.3691H96.0352V31.3027H100.513V20.309C100.513 19.3245 100.898 18.6142 101.668 18.179C102.438 17.7442 103.58 17.5263 105.096 17.5263H106.496V13.3691H105.516C104.793 13.3691 104.157 13.4722 103.609 13.6784Z" fill="white"></path>
<path d="M121.664 15.4743C120.93 14.6615 120.038 14.0372 118.988 13.6019C117.939 13.1671 116.761 12.9492 115.455 12.9492C114.148 12.9492 112.976 13.1671 111.939 13.6019C110.9 14.0372 110.014 14.6615 109.28 15.4743C108.545 16.2875 107.979 17.2667 107.583 18.4116C107.186 19.5572 106.988 20.851 106.988 22.2939C106.988 23.7368 107.186 25.0369 107.583 26.1933C107.979 27.35 108.545 28.3405 109.28 29.165C110.014 29.9894 110.9 30.6198 111.939 31.0546C112.976 31.4893 114.148 31.7074 115.455 31.7074C116.761 31.7074 117.939 31.4893 118.988 31.0546C120.038 30.6198 120.93 29.9894 121.664 29.165C122.399 28.3405 122.964 27.35 123.361 26.1933C123.758 25.0369 123.956 23.7368 123.956 22.2939C123.956 20.851 123.758 19.5572 123.361 18.4116C122.964 17.2667 122.399 16.2875 121.664 15.4743ZM119.268 23.9773C119.268 25.3514 118.93 26.3939 118.253 27.1036C117.577 27.8138 116.644 28.1686 115.455 28.1686C114.288 28.1686 113.367 27.8138 112.691 27.1036C112.014 26.3939 111.676 25.3514 111.676 23.9773V20.6447C111.676 19.2937 112.014 18.263 112.691 17.5528C113.367 16.8432 114.288 16.4879 115.455 16.4879C116.644 16.4879 117.577 16.8432 118.253 17.5528C118.93 18.263 119.268 19.2937 119.268 20.6447V23.9773Z" fill="white"></path>
<path d="M136.308 17.0982L134.034 16.6854C132.844 16.4815 131.981 16.1638 131.445 15.7321C130.908 15.3005 130.64 14.6306 130.64 13.7223C130.64 12.837 130.972 12.1505 131.637 11.6621C132.302 11.174 133.299 10.9299 134.628 10.9299C135.934 10.9299 137.019 11.1568 137.882 11.6111C138.744 12.0652 139.479 12.6556 140.086 13.3819L143.235 10.4559C142.255 9.2856 141.077 8.4026 139.701 7.80565C138.325 7.2087 136.715 6.91016 134.873 6.91016C133.497 6.91016 132.267 7.0766 131.182 7.4088C130.098 7.74165 129.171 8.21733 128.401 8.83673C127.631 9.45625 127.042 10.2013 126.634 11.0726C126.226 11.9444 126.022 12.9186 126.022 13.9965C126.022 17.8949 128.459 20.2223 133.334 20.9793L135.643 21.3202C136.925 21.5478 137.8 21.9112 138.267 22.411C138.733 22.9113 138.966 23.5586 138.966 24.3542C138.966 25.3773 138.604 26.1896 137.882 26.7917C137.159 27.3941 136.086 27.6952 134.663 27.6952C133.404 27.6952 132.255 27.4456 131.217 26.9453C130.179 26.4451 129.241 25.7177 128.401 24.7632L125.287 27.7226C126.337 28.916 127.59 29.8796 129.048 30.6139C130.505 31.3476 132.284 31.7149 134.383 31.7149C135.853 31.7149 137.153 31.5312 138.284 31.1646C139.415 30.798 140.371 30.2761 141.153 29.5999C141.934 28.9236 142.529 28.1208 142.937 27.1922C143.345 26.2635 143.549 25.2265 143.549 24.0799C143.549 22.0851 142.96 20.5322 141.783 19.4198C140.605 18.3076 138.779 17.5342 136.308 17.0982Z" fill="white"></path>
<path d="M175.798 13.3671L172.614 22.8288L171.355 27.3541H171.145L169.956 22.8288L166.772 13.3671H157.641L153.548 17.9707L151.134 21.2001H150.959V6.9082H146.48V31.3007H150.959V25.8382L153.373 23.2615L158.061 31.3007H163.378L156.416 20.3069L162.436 13.6735L168.871 32.1295L168.031 34.6331H164.743V38.1718H167.436C168.183 38.1718 168.836 38.103 169.396 37.9656C169.956 37.8282 170.433 37.6103 170.83 37.3128C171.226 37.015 171.57 36.6311 171.862 36.162C172.154 35.6922 172.416 35.1367 172.649 34.4957L179.996 13.3671H175.798Z" fill="white"></path>
</g>
<defs>
<clipPath id="clip0_10238_2262">
<rect width="180" height="40" fill="white"></rect>
</clipPath>
</defs>
</svg>