<?xml version="1.0" encoding="UTF-8"?><svg id="Calque_2" xmlns="http://www.w3.org/2000/svg" viewBox="0 0 1750 1760.39"><defs><style>.cls-1{fill:#6172f3;}.cls-1,.cls-2{stroke-width:0px;}.cls-2{fill:#fff;}</style></defs><g id="Calque_1-2"><g id="Favicon"><g id="Calque_1-2"><g id="Calque_1-2-2"><path class="cls-1" d="m200.2,0h1350.07c110.41,0,199.74,89.84,199.74,201.33v1357.73c0,111.03-89.33,201.33-200.2,201.33H200.2c-110.86-.46-200.2-90.3-200.2-201.79V201.33C0,89.84,89.33,0,200.2,0Z"/><path class="cls-2" d="m289.86,850.71c1.83-6.45,2.75-12.9,2.29-19.35,7.33-84.31,32.53-166.32,73.76-240.03.46-.46.92-.92,1.37-2.3,26.57,36.4,63.22,63.58,105.82,77.4-61.39,118.4-73.76,241.41-31.15,368.11,33.44,99.51,95.29,177.38,182.79,234.96,209.82,137.75,491.1,78.32,628.08-133.15,136.98-211.01,77.88-493.89-132.4-631.64-112.7-73.71-251.96-93.53-380.69-54.36-5.04-46.99-25.2-90.76-57.72-124.39,25.2-9.21,51.31-16.13,77.42-21.65,24.74-5.07,49.48-8.29,74.21-10.14,1.37,0,3.21.46,3.66-1.38h73.3c5.5,1.84,10.99,2.3,16.49,2.3,93.91,8.29,184.62,39.16,263.87,90.76,211.65,135.45,313.81,392.99,252.42,635.79-61.39,244.64-271.2,422.94-521.34,443.67-6.87-.46-13.29.46-19.7,2.3h-7.33c-.46-1.38-1.83-1.38-3.21-1.38h-33.44c-1.37,0-2.75,0-3.21,1.38h-14.2c-.92-2.3-3.21-1.38-5.04-1.38-289.07-19.81-520.42-248.33-544.7-538.58.46-5.99-.46-11.52-2.29-17.05v-12.9c2.75-5.07.92-10.14.92-15.66,0-5.99,1.83-11.98-.92-17.97l.92-13.36h0Z"/><path class="cls-2" d="m856.09,1467.61c.46-1.38,1.83-1.38,3.21-1.38h33.44c1.37,0,2.75,0,3.21,1.38h-39.86Z"/><path class="cls-2" d="m289.86,863.61c2.75,5.99.92,11.98.92,17.97,0,5.07,1.83,10.6-.92,15.66v-33.63Z"/><path class="cls-2" d="m1182.73,878.82c0,173.23-140.18,312.37-314.27,312.37s-310.14-141.44-310.14-313.29c2.29-173.23,144.31-311.9,316.56-309.6,169.5,2.76,306.02,140.52,307.85,310.52h0Z"/><path class="cls-2" d="m535.87,636.48c-91.16,1.38-166.3-71.41-168.13-163.55-1.83-92.14,71.47-167.24,162.63-168.62h5.96c95.29,0,164.46,77.4,164.92,168.16.46,90.76-74.67,164.48-165.38,164.01h0Z"/></g></g></g></g></svg>