<svg xmlns="http://www.w3.org/2000/svg" viewBox="0 0 178 28" width="178" height="28">
  <path fill="white" d="M14 11.2a2.8 2.8 0 1 0 0 5.6 2.8 2.8 0 0 0 0-5.6M8.4 14a5.6 5.6 0 1 1 11.2 0 5.6 5.6 0 0 1-11.2 0M4.2 2.8a1.4 1.4 0 0 0-1.4 1.4V7A1.4 1.4 0 1 1 0 7V4.2A4.2 4.2 0 0 1 4.2 0H7a1.4 1.4 0 1 1 0 2.8zm15.4-1.4c0-.77.62-1.4 1.4-1.4h2.8A4.2 4.2 0 0 1 28 4.2V7a1.4 1.4 0 1 1-2.8 0V4.2a1.4 1.4 0 0 0-1.4-1.4H21a1.4 1.4 0 0 1-1.4-1.4m7 18.2c.77 0 1.4.63 1.4 1.4v2.8a4.2 4.2 0 0 1-4.2 4.2H21a1.4 1.4 0 1 1 0-2.8h2.8a1.4 1.4 0 0 0 1.4-1.4V21c0-.77.62-1.4 1.4-1.4m-25.2 0c.77 0 1.4.63 1.4 1.4v2.8a1.4 1.4 0 0 0 1.4 1.4H7A1.4 1.4 0 1 1 7 28H4.2A4.2 4.2 0 0 1 0 23.8V21c0-.77.63-1.4 1.4-1.4"/>
  <g fill="white" transform="translate(36 6)">
    <path d="M132.2 15.8c-1 0-1.8-.2-2.6-.6-.7-.4-1.3-1-1.7-1.6-.4-.8-.6-1.6-.6-2.6s.2-1.8.6-2.5c.4-.8 1-1.3 1.7-1.7q1.2-.6 2.7-.6c1 0 1.8.2 2.5.6.8.3 1.3.9 1.7 1.6a5.2 5.2 0 0 1 .5 2.9v.3h-8.2V10h6l-.8 1 .2-.4v-.4c0-.4 0-.8-.2-1.1-.2-.4-.4-.6-.7-.8a2 2 0 0 0-1-.3c-.6 0-1 .1-1.4.4a2 2 0 0 0-.7 1c-.2.4-.3 1-.3 1.5 0 .7 0 1.2.2 1.6a2.1 2.1 0 0 0 2.2 1.3c.5 0 1 0 1.4-.3.4-.2.8-.6 1-1l2.3.7c-.5.9-1.1 1.5-2 2-.7.4-1.6.6-2.8.6m-9.5-5.8c0-.6-.1-1-.4-1.4-.2-.3-.6-.5-1.1-.5-.4 0-.7.1-1 .3q-.45.15-.6.6c-.2.3-.3.6-.3 1v5.6h-2.6V6.4h2.6v1.4a3 3 0 0 1 2.8-1.6c1.1 0 2 .3 2.5 1 .5.6.8 1.4.8 2.5v6h-2.7zM103 8.6c0 .9.2 1.7.5 2.4.4.7 1 1.2 1.6 1.6s1.4.6 2.3.6a4 4 0 0 0 3.8-2.2 5 5 0 0 0 .5-2.4 5 5 0 0 0-.5-2.4 4 4 0 0 0-3.8-2.2c-1 0-1.7.2-2.3.6-.7.4-1.2 1-1.6 1.6a5 5 0 0 0-.5 2.4m-3 0a7.4 7.4 0 0 1 2-5.2 7.9 7.9 0 0 1 5.3-2c1.1 0 2.1.1 3 .5a6.8 6.8 0 0 1 3.9 3.8c.4.9.6 1.8.6 3a7.6 7.6 0 0 1-2.1 5.2 7 7 0 0 1-2.4 1.6c-.9.3-1.9.5-3 .5-1 0-2-.2-3-.5a7.2 7.2 0 0 1-3.8-4c-.4-.9-.5-1.8-.5-2.9m-6.5-2.2H99v2.2h-5.6V6.4ZM95 3.2h2.5v12.4H95zM82.5 11c0-1 .2-1.8.7-2.5.4-.7 1-1.3 1.8-1.7s1.6-.6 2.6-.6 1.8.2 2.6.6a4.5 4.5 0 0 1 2.5 4.2c0 1-.2 1.8-.7 2.5-.4.8-1 1.3-1.8 1.7s-1.6.6-2.6.6-1.8-.2-2.6-.6-1.4-1-1.8-1.7c-.5-.7-.7-1.5-.7-2.5m2.6 0c0 .5.1 1 .4 1.4.2.4.5.7.9 1l1.2.2c.5 0 .9 0 1.2-.3.4-.2.7-.5 1-1 .1-.3.3-.8.3-1.3s-.2-1-.4-1.4q-.3-.6-.9-.9-.45-.3-1.2-.3c-.75 0-.9.1-1.2.3-.4.2-.7.5-1 1-.2.3-.3.8-.3 1.3M74.6 0v15.6H72V0zM78 10c0-.6-.2-1-.4-1.4-.2-.3-.6-.5-1.2-.5l-1 .3-.6.6-.2 1h-.5c0-.7.1-1.4.4-2 .2-.6.6-1 1-1.4a3 3 0 0 1 2-.5c.6 0 1.2.1 1.7.4s.8.7 1 1.2c.3.5.4 1.2.4 2v6H78zm-14.3 2.4 1 1 1 .4.9.1c.3 0 .6 0 .8-.2q.3-.15.3-.6c0-.45-.1-.4-.3-.6l-.6-.5-1.2-.4-1.2-.5-1-1c-.3-.3-.4-.8-.4-1.4 0-.5.2-1 .5-1.3.2-.4.6-.7 1.1-.9A5.2 5.2 0 0 1 69 7c.4.3.8.5 1 .8l-1 1.6a4 4 0 0 0-1.3-.9 3 3 0 0 0-1.3-.3c-.3 0-.6 0-.7.2-.2 0-.3.2-.3.5 0 .2.1.3.3.5.1.2.4.3.7.4a24 24 0 0 1 2.4 1c.5.3.8.6 1 1 .3.3.4.8.4 1.3 0 1-.3 1.7-.9 2.2s-1.4.7-2.4.7a6 6 0 0 1-4.5-1.8l1.3-1.7ZM58 10c0-.6-.1-1-.4-1.4-.2-.3-.6-.5-1.1-.5-.4 0-.7.1-1 .3q-.45.15-.6.6c-.2.3-.2.6-.2 1v5.6H52V6.4h2.6v1.4a3 3 0 0 1 2.7-1.6c1.1 0 2 .3 2.5 1 .5.6.8 1.4.8 2.5v6H58zm-12.7 5.8c-1 0-1.9-.2-2.6-.6-.8-.4-1.3-1-1.7-1.6-.4-.8-.6-1.6-.6-2.6s.2-1.8.6-2.5c.4-.8 1-1.3 1.7-1.7s1.6-.6 2.6-.6 1.9.2 2.6.6c.7.3 1.3.9 1.7 1.6a5.3 5.3 0 0 1 .5 2.9v.3h-8.3V10h6l-.7 1 .2-.4v-.4c0-.4 0-.8-.2-1.1-.2-.4-.4-.6-.7-.8a2 2 0 0 0-1.1-.3c-.5 0-1 .1-1.3.4a2 2 0 0 0-.8 1l-.2 1.5c0 .7 0 1.2.2 1.6a2.1 2.1 0 0 0 2.1 1.3c.6 0 1 0 1.5-.3.4-.2.7-.6 1-1l2.3.7c-.5.9-1.1 1.5-2 2-.7.4-1.7.6-2.8.6m-11.1 0c-1 0-1.9-.2-2.6-.6s-1.3-1-1.7-1.6c-.4-.8-.6-1.6-.6-2.6s.2-1.8.6-2.5c.4-.8 1-1.3 1.7-1.7s1.6-.6 2.6-.6 2 .2 2.6.6c.7.3 1.3.9 1.7 1.6a5.3 5.3 0 0 1 .5 2.9v.3h-8.3V10h6l-.7 1 .2-.4v-.4c0-.4 0-.8-.2-1.1-.2-.4-.4-.6-.7-.8a2 2 0 0 0-1.1-.3c-.5 0-1 .1-1.3.4a2 2 0 0 0-.8 1l-.2 1.5c0 .7 0 1.2.2 1.6a2.1 2.1 0 0 0 2.1 1.3c.6 0 1.1 0 1.5-.3.4-.2.8-.6 1-1l2.3.7c-.5.9-1.1 1.5-2 2-.7.4-1.7.6-2.8.6M25 6.4v9.2h-2.6V6.4h2.5Zm2.6 2.7a2 2 0 0 0-.5-.4h-.7c-.3 0-.6 0-.8.2-.2.1-.4.4-.5.7l-.2 1.1-.7-.7c0-.7.1-1.4.4-2 .3-.5.7-1 1.1-1.3a2.3 2.3 0 0 1 2.4-.3c.3 0 .5.3.7.5zm-13 1.9c0 .5 0 1 .3 1.4a2.6 2.6 0 0 0 2.3 1.3c.4 0 .8 0 1.2-.2a4 4 0 0 0 1-.5l.7-.8V15c-.3.3-.7.5-1.3.7a6 6 0 0 1-1.7.2q-1.5 0-2.7-.6c-.8-.4-1.4-1-1.8-1.7-.5-.7-.7-1.5-.7-2.5s.2-1.8.7-2.5c.4-.7 1-1.3 1.8-1.7q1.2-.6 2.7-.6c.6 0 1.2.1 1.7.3.6.1 1 .3 1.3.6v2.7l-.7-.8a3.5 3.5 0 0 0-2.2-.7 2.7 2.7 0 0 0-2.6 2.7ZM2 11l1 1.3 1.2.9c.4.2.9.3 1.4.3s1-.2 1.4-.4c.3-.3.5-.7.5-1.2s-.1-.8-.3-1.1l-1-.7a18 18 0 0 0-2.8-1.2c-.4-.2-.8-.4-1.2-.8-.4-.3-.7-.7-1-1.2C1 6.5 1 6 1 5.2s.2-1.5.6-2c.4-.6 1-1 1.6-1.4.7-.3 1.5-.5 2.4-.5a5.3 5.3 0 0 1 5 3L8.1 5.7A4.1 4.1 0 0 0 6.6 4l-1.1-.2c-.6 0-1 .1-1.3.4-.2.2-.4.5-.4.9 0 .3.1.6.4.9.2.2.5.5 1 .7.5.3 1 .5 1.8.7l1.3.6 1.1 1c.3.2.6.6.8 1.1s.3 1 .3 1.6A4 4 0 0 1 9 14.9a5 5 0 0 1-1.6.8l-1.8.3A6 6 0 0 1 0 12.4l2-1.5Z"/>
  </g>
</svg>
