<svg width="1675" height="311" viewBox="0 0 1675 311" fill="none" xmlns="http://www.w3.org/2000/svg">
<path fill-rule="evenodd" clip-rule="evenodd" d="M1429.35 306.434C1429.35 306.574 1429.38 306.713 1429.43 306.842C1429.49 306.972 1429.57 307.089 1429.66 307.189C1429.87 307.387 1430.14 307.499 1430.43 307.501H1465.17C1465.31 307.502 1465.45 307.474 1465.58 307.421C1465.71 307.367 1465.83 307.288 1465.93 307.189C1466.03 307.089 1466.11 306.972 1466.16 306.842C1466.22 306.713 1466.24 306.574 1466.24 306.434V199.211C1466.06 191.908 1467.73 184.677 1471.08 178.189C1474.11 172.45 1478.57 167.595 1484.04 164.1C1489.3 160.719 1495.44 158.937 1501.7 158.968C1511.15 158.968 1518.71 161.866 1524.53 167.592C1530.35 173.318 1533.26 180.896 1533.26 190.446V306.363C1533.27 306.647 1533.39 306.917 1533.59 307.118C1533.69 307.218 1533.81 307.297 1533.94 307.351C1534.07 307.404 1534.21 307.431 1534.35 307.43H1569.01C1569.15 307.43 1569.29 307.403 1569.42 307.349C1569.55 307.296 1569.66 307.217 1569.76 307.118C1569.87 307.022 1569.95 306.905 1570.01 306.775C1570.06 306.645 1570.09 306.505 1570.09 306.363V195.377C1570.09 184.629 1573.17 175.925 1579.22 169.212C1585.28 162.5 1593.75 159.069 1604.82 159.069C1613.16 158.881 1621.29 161.715 1627.71 167.049C1633.95 172.252 1637.2 180.735 1637.2 192.78V306.494C1637.2 306.634 1637.22 306.773 1637.28 306.903C1637.33 307.032 1637.41 307.15 1637.51 307.249C1637.71 307.448 1637.99 307.56 1638.27 307.561H1673.01C1673.3 307.562 1673.57 307.45 1673.78 307.249C1673.88 307.15 1673.95 307.032 1674.01 306.903C1674.06 306.773 1674.09 306.634 1674.09 306.494V185.434C1674.09 164.573 1668.91 148.804 1658.33 138.268C1647.75 127.732 1634.38 122.56 1617.95 122.56C1604.92 122.56 1593.66 125.511 1584.14 131.415C1575.16 136.795 1568.02 144.774 1563.68 154.299H1563.25C1559.63 144.985 1553.33 136.955 1545.14 131.224C1536.85 125.441 1526.65 122.556 1514.54 122.57C1502.58 122.57 1492.28 125.451 1483.62 131.214C1479.2 134.114 1475.29 137.748 1472.09 141.961L1464.75 125.568C1464.67 125.38 1464.53 125.222 1464.35 125.116C1464.18 125.011 1463.97 124.956 1463.77 124.955H1430.45C1430.16 124.954 1429.89 125.066 1429.68 125.267C1429.58 125.367 1429.51 125.487 1429.45 125.618C1429.4 125.749 1429.37 125.89 1429.37 126.031L1429.35 306.434Z" fill="white"/>
<path fill-rule="evenodd" clip-rule="evenodd" d="M898.488 306.698C898.489 307.026 898.619 307.341 898.851 307.574C899.08 307.804 899.391 307.935 899.716 307.936H934.484C934.81 307.935 935.121 307.804 935.35 307.574C935.581 307.341 935.711 307.026 935.712 306.698V196.819C935.585 189.676 937.452 182.64 941.106 176.501C944.616 170.562 949.678 165.691 955.748 162.413C961.987 159.001 967.099 157.28 975.13 157.27C979.65 157.27 984.167 157.542 988.655 158.085V158.085C991.1 158.347 993.526 158.76 995.92 159.323C996.106 159.363 996.298 159.363 996.484 159.323C996.671 159.282 996.846 159.2 996.997 159.082C997.149 158.969 997.27 158.82 997.349 158.649C997.438 158.478 997.482 158.288 997.48 158.095V124.404C997.483 124.101 997.375 123.808 997.178 123.579C996.985 123.347 996.712 123.196 996.413 123.156C994.662 122.915 992.257 122.723 989.228 122.532C986.199 122.341 983.683 122.301 981.49 122.301C970.782 122.301 960.166 125.209 951.652 131.025C947.282 133.965 943.466 137.654 940.381 141.924L934.424 125.823C934.34 125.587 934.185 125.384 933.981 125.239C933.776 125.093 933.529 125.016 933.277 125.018H899.686C899.361 125.019 899.05 125.149 898.821 125.38C898.588 125.616 898.458 125.934 898.458 126.266L898.488 306.698Z" fill="white"/>
<path d="M741.58 220.715C733.801 212.554 722.228 206.627 706.208 202.672L679.963 196.252C671.329 194.068 665.049 191.301 661.295 188.02C657.793 185.001 656.093 180.976 656.093 175.843C656.093 169.936 658.709 165.227 664.143 161.443C669.738 157.418 676.883 155.405 685.377 155.405C691.576 155.405 696.768 156.462 700.834 158.565C704.623 160.446 707.908 163.206 710.414 166.616C710.776 167.109 711.118 167.551 711.42 167.964C713.142 169.921 714.425 172.223 715.184 174.716C715.382 175.358 715.803 175.908 716.371 176.266C716.977 176.624 717.695 176.743 718.384 176.598L745.414 170.047C745.772 169.978 746.113 169.841 746.42 169.645C746.726 169.434 746.986 169.163 747.185 168.85C747.38 168.543 747.513 168.201 747.577 167.843C747.653 167.481 747.653 167.108 747.577 166.746V166.616C744.347 157.297 740.694 146.741 729.161 135.852L729.071 135.772C718.344 127.158 703.581 122.78 685.185 122.78C672.466 122.78 660.974 125.105 651.031 129.684C641.55 133.8 633.36 140.407 627.332 148.804C621.566 157.025 618.648 166.736 618.658 177.685C618.658 190.868 622.582 201.937 630.331 210.612C638.079 219.286 650.045 225.465 665.945 229.329L693.9 235.87C701.276 237.651 706.741 240.278 710.182 243.679C711.796 245.194 713.072 247.032 713.926 249.073C714.792 251.132 715.21 253.351 715.153 255.584C715.153 261.531 712.416 266.483 706.781 270.679C700.985 275.036 693.246 277.149 683.122 277.149C674.065 277.149 666.669 275.137 661.144 271.111C654.704 266.442 651.273 261.421 649.672 254.306C649.517 253.637 649.11 253.053 648.535 252.676C647.964 252.288 647.264 252.137 646.583 252.253L616.545 263.383C615.901 263.513 615.325 263.87 614.924 264.389C614.713 264.692 614.566 265.034 614.492 265.396C614.411 265.75 614.411 266.118 614.492 266.472V266.623C618.225 279.766 624.384 288.31 636.469 297.085C648.555 305.86 664.334 310.167 683.374 310.167C697.009 310.167 709.237 307.731 719.692 302.921C730.148 298.111 738.42 291.379 744.457 282.845C750.496 274.097 753.661 263.687 753.514 253.058C753.514 239.886 749.489 229.027 741.58 220.715Z" fill="white"/>
<path d="M868.018 304.65L862.172 277.912C862.141 277.755 862.078 277.605 861.988 277.472C861.898 277.339 861.783 277.225 861.648 277.137C861.375 276.967 861.048 276.906 860.732 276.966L856.214 277.832C854.033 278.199 851.824 278.37 849.613 278.345C846.404 278.376 843.214 277.852 840.183 276.795C837.375 275.646 835.041 273.578 833.562 270.929C831.861 268.04 830.925 263.572 830.925 257.363V158.473H865.869C866.197 158.472 866.512 158.341 866.745 158.11C866.975 157.881 867.106 157.57 867.107 157.245V126.351C867.107 126.188 867.075 126.027 867.013 125.877C866.951 125.727 866.86 125.59 866.745 125.475C866.512 125.244 866.197 125.114 865.869 125.113H830.915V82.4956C830.915 82.333 830.883 82.172 830.821 82.0218C830.759 81.8715 830.668 81.7351 830.553 81.6201C830.438 81.5052 830.301 81.4139 830.151 81.3518C830.001 81.2896 829.84 81.2577 829.678 81.2578H797.314C797.152 81.2577 796.991 81.2896 796.841 81.3518C796.69 81.4139 796.554 81.5052 796.439 81.6201C796.324 81.7351 796.232 81.8715 796.17 82.0218C796.108 82.172 796.076 82.333 796.076 82.4956V113.631C796.076 116.69 794.862 119.623 792.699 121.786C790.536 123.948 787.603 125.163 784.544 125.163H770.878C770.633 125.195 770.404 125.305 770.224 125.475C770.109 125.59 770.018 125.727 769.956 125.877C769.894 126.027 769.862 126.188 769.862 126.351V157.245C769.863 157.57 769.994 157.881 770.224 158.11C770.453 158.341 770.764 158.471 771.089 158.473H796.067V264.136C796.067 274.35 798.381 283.256 803.111 290.189C807.646 296.911 814.032 302.175 821.496 305.345C829.158 308.708 837.452 310.386 845.819 310.265C850.27 310.187 854.701 309.648 859.042 308.655C861.831 308.007 864.566 307.146 867.223 306.079C867.507 305.986 867.745 305.788 867.887 305.526C868.04 305.261 868.087 304.948 868.018 304.65Z" fill="white"/>
<path d="M1296.99 310.286C1272.07 310.26 1248.18 300.35 1230.57 282.731C1212.95 265.112 1203.04 241.223 1203.01 216.306C1203.04 191.39 1212.95 167.503 1230.57 149.885C1248.19 132.266 1272.07 122.355 1296.99 122.326C1321.91 122.355 1345.79 132.266 1363.41 149.885C1381.03 167.503 1390.94 191.39 1390.97 216.306C1390.94 241.222 1381.03 265.109 1363.41 282.728C1345.79 300.346 1321.91 310.257 1296.99 310.286V310.286ZM1296.99 158.554C1281.68 158.57 1267 164.659 1256.17 175.487C1245.34 186.314 1239.25 200.994 1239.24 216.306C1239.25 231.618 1245.34 246.299 1256.17 257.126C1267 267.953 1281.68 274.043 1296.99 274.059C1312.3 274.043 1326.98 267.953 1337.81 257.126C1348.64 246.299 1354.73 231.618 1354.74 216.306C1354.72 200.995 1348.63 186.316 1337.81 175.49C1326.98 164.663 1312.3 158.572 1296.99 158.554V158.554Z" fill="white"/>
<path d="M1392.29 306.492C1392.29 306.758 1392.18 307.014 1391.99 307.203C1391.8 307.392 1391.55 307.498 1391.28 307.498H1361.09C1360.8 307.483 1360.52 307.378 1360.29 307.198C1360.06 307.018 1359.9 306.771 1359.81 306.492L1355.32 290.119C1355.15 289.459 1355.07 288.784 1355.05 288.106V145.018C1355.06 144.34 1355.15 143.665 1355.31 143.005L1359.82 125.968C1359.9 125.688 1360.07 125.44 1360.29 125.259C1360.52 125.079 1360.8 124.975 1361.09 124.962H1391.28C1391.55 124.962 1391.8 125.068 1391.99 125.257C1392.18 125.445 1392.29 125.701 1392.29 125.968V306.492Z" fill="white"/>
<path d="M1093.91 310.018C1072.12 309.955 1051.1 301.927 1034.82 287.446C1016.1 271.064 1004.63 247.264 1002.46 222.257C1000.21 197.6 1007.85 173.058 1023.69 154.029C1031.37 144.745 1040.83 137.081 1051.5 131.482C1062.17 125.884 1073.85 122.461 1085.86 121.414C1098.41 120.254 1111.07 121.764 1123.01 125.843C1134.94 129.922 1145.87 136.479 1155.09 145.083C1172.67 161.586 1182.35 182.251 1182.35 206.533V226.851C1182.36 227.324 1182.17 227.779 1181.84 228.117C1181.51 228.454 1181.06 228.647 1180.58 228.652L1039.57 227.696C1039.45 227.694 1039.33 227.719 1039.23 227.77C1039.12 227.82 1039.02 227.894 1038.95 227.987C1038.88 228.079 1038.82 228.187 1038.8 228.302C1038.77 228.417 1038.77 228.537 1038.8 228.652C1041.48 241.17 1048.06 251.36 1057.77 259.863C1063.32 264.825 1069.82 268.597 1076.88 270.947C1083.95 273.298 1091.41 274.176 1098.83 273.529C1116.46 273.529 1131.2 263.003 1138.32 250.575C1138.54 250.194 1138.89 249.914 1139.32 249.792C1139.74 249.67 1140.19 249.716 1140.58 249.92L1174.59 261.298C1175 261.521 1175.31 261.897 1175.44 262.343C1175.57 262.79 1175.53 263.271 1175.31 263.683C1162.68 287.14 1132.04 309.666 1101.93 309.666C1099.24 309.901 1096.57 310.018 1093.91 310.018ZM1044.2 192.555L1142.46 193.199C1142.58 193.199 1142.7 193.17 1142.81 193.115C1142.92 193.06 1143.01 192.98 1143.08 192.881C1143.15 192.783 1143.2 192.67 1143.22 192.55C1143.24 192.43 1143.23 192.308 1143.19 192.193C1140.51 186.014 1136.48 177.305 1131.21 172.565C1125.48 167.506 1118.77 163.676 1111.5 161.312C1104.23 158.948 1096.56 158.099 1088.95 158.819C1074.12 159.979 1060.34 166.897 1050.56 178.09C1047.77 181.3 1045.41 187.846 1043.51 191.499C1043.46 191.613 1043.44 191.739 1043.45 191.865C1043.45 191.991 1043.5 192.112 1043.56 192.218C1043.63 192.324 1043.73 192.412 1043.84 192.472C1043.95 192.533 1044.07 192.565 1044.2 192.565V192.555Z" fill="white"/>
<path fill-rule="evenodd" clip-rule="evenodd" d="M2.75505 129.864L66.3217 217.64C67.3144 219.013 68.6015 220.128 70.0813 220.896C71.561 221.663 73.1928 222.063 74.8472 222.063C76.5016 222.063 78.1333 221.663 79.6131 220.896C81.0928 220.128 82.38 219.013 83.3727 217.64L139.236 140.499C144.266 133.548 139.97 123.584 131.624 122.838L12.194 112.207C3.00777 111.389 -2.78043 122.225 2.75505 129.864Z" fill="#005FFF"/>
<path fill-rule="evenodd" clip-rule="evenodd" d="M2.75505 129.864L66.3217 217.64C67.3144 219.013 68.6015 220.128 70.0813 220.896C71.561 221.663 73.1928 222.063 74.8472 222.063C76.5016 222.063 78.1333 221.663 79.6131 220.896C81.0928 220.128 82.38 219.013 83.3727 217.64L139.236 140.499C144.266 133.548 139.97 123.584 131.624 122.838L12.194 112.207C3.00777 111.389 -2.78043 122.225 2.75505 129.864Z" fill="url(#paint0_linear_2219_4597)"/>
<path fill-rule="evenodd" clip-rule="evenodd" d="M400.698 129.531L285.11 289.14C279.834 296.429 284.845 306.833 293.636 306.833H394.471C396.598 306.833 398.696 306.319 400.599 305.332C402.501 304.345 404.156 302.912 405.432 301.146L529.222 130.226C534.801 122.527 528.881 111.624 519.643 112.581L410.304 123.923C408.416 124.117 406.587 124.716 404.933 125.681C403.28 126.646 401.837 127.957 400.698 129.531Z" fill="#005FFF"/>
<path fill-rule="evenodd" clip-rule="evenodd" d="M400.698 129.531L285.11 289.14C279.834 296.429 284.845 306.833 293.636 306.833H394.471C396.598 306.833 398.696 306.319 400.599 305.332C402.501 304.345 404.156 302.912 405.432 301.146L529.222 130.226C534.801 122.527 528.881 111.624 519.643 112.581L410.304 123.923C408.416 124.117 406.587 124.716 404.933 125.681C403.28 126.646 401.837 127.957 400.698 129.531Z" fill="url(#paint1_linear_2219_4597)"/>
<path fill-rule="evenodd" clip-rule="evenodd" d="M368.809 130.851L245.004 301.821C243.72 303.597 242.053 305.037 240.136 306.024C238.22 307.012 236.107 307.52 233.967 307.508L137.692 306.876C135.585 306.863 133.508 306.346 131.624 305.364C129.741 304.383 128.1 302.964 126.832 301.217L96.4413 259.426C94.6497 256.963 93.6791 253.962 93.6758 250.877C93.6725 247.791 94.6367 244.788 96.423 242.321L267.657 5.87094C268.929 4.11457 270.576 2.68795 272.469 1.70305C274.362 0.718147 276.448 0.201762 278.566 0.194415C280.683 0.187069 282.773 0.688957 284.672 1.6607C286.571 2.63245 288.227 4.04762 289.51 5.79511L368.748 113.683C370.561 116.147 371.547 119.157 371.558 122.256C371.569 125.355 370.604 128.373 368.809 130.851Z" fill="#005FFF"/>
<path fill-rule="evenodd" clip-rule="evenodd" d="M368.809 130.851L245.004 301.821C243.72 303.597 242.053 305.037 240.136 306.024C238.22 307.012 236.107 307.52 233.967 307.508L137.692 306.876C135.585 306.863 133.508 306.346 131.624 305.364C129.741 304.383 128.1 302.964 126.832 301.217L96.4413 259.426C94.6497 256.963 93.6791 253.962 93.6758 250.877C93.6725 247.791 94.6367 244.788 96.423 242.321L267.657 5.87094C268.929 4.11457 270.576 2.68795 272.469 1.70305C274.362 0.718147 276.448 0.201762 278.566 0.194415C280.683 0.187069 282.773 0.688957 284.672 1.6607C286.571 2.63245 288.227 4.04762 289.51 5.79511L368.748 113.683C370.561 116.147 371.547 119.157 371.558 122.256C371.569 125.355 370.604 128.373 368.809 130.851Z" fill="url(#paint2_linear_2219_4597)"/>
<defs>
<linearGradient id="paint0_linear_2219_4597" x1="-538.95" y1="-404.753" x2="-697.987" y2="-97.874" gradientUnits="userSpaceOnUse">
<stop offset="0.177786" stop-color="#B38AF8"/>
<stop offset="0.563822" stop-color="#005FFF"/>
<stop offset="1" stop-color="#00ECBB"/>
</linearGradient>
<linearGradient id="paint1_linear_2219_4597" x1="-669.056" y1="-801.418" x2="-973.237" y2="-217.145" gradientUnits="userSpaceOnUse">
<stop offset="0.177786" stop-color="#B38AF8"/>
<stop offset="0.563822" stop-color="#005FFF"/>
<stop offset="1" stop-color="#00ECBB"/>
</linearGradient>
<linearGradient id="paint2_linear_2219_4597" x1="-971.19" y1="-1445.26" x2="-1525.14" y2="-719.942" gradientUnits="userSpaceOnUse">
<stop offset="0.177786" stop-color="#B38AF8"/>
<stop offset="0.563822" stop-color="#005FFF"/>
<stop offset="1" stop-color="#00ECBB"/>
</linearGradient>
</defs>
</svg>
