<svg
  version="1.1"
  id="Layer_1"
  xmlns="http://www.w3.org/2000/svg"
  xmlns:xlink="http://www.w3.org/1999/xlink"
  x="0px"
  y="0px"
  width="166.73"
  height="48"
  viewBox="0 0 166.73 48"
  style="enable-background:new 0 0 166.73 48;"
  xml:space="preserve"
>
  <g>
    <path style="fill:#FFFFFF;" d="M23.48,12.79c-1.3,4.86-2.82,9.52-4.57,13.99c-1.75,4.46-3.44,8.46-5.07,11.99h-4.2
                 c-1.63-3.53-3.32-7.53-5.07-11.99C2.82,22.31,1.3,17.65,0,12.79h4.99c0.4,1.63,0.87,3.37,1.42,5.22c0.55,1.85,1.13,3.68,1.75,5.49
                 c0.62,1.82,1.24,3.57,1.87,5.27c0.63,1.7,1.23,3.21,1.8,4.55c0.57-1.33,1.16-2.85,1.8-4.55c0.63-1.7,1.26-3.45,1.87-5.27
                 c0.62-1.81,1.2-3.65,1.75-5.49c0.55-1.85,1.02-3.59,1.42-5.22H23.48z"/>
    <path style="fill:#FFFFFF;" d="M48.15,25.82c0,1.96-0.26,3.78-0.77,5.44c-0.52,1.66-1.27,3.1-2.27,4.3c-1,1.2-2.22,2.13-3.67,2.8
                 c-1.45,0.67-3.11,1-4.97,1c-1.5,0-2.82-0.2-3.97-0.6c-1.15-0.4-2.01-0.78-2.57-1.15V48h-4.65V13.59c1.1-0.27,2.47-0.56,4.12-0.87
                 c1.65-0.32,3.55-0.47,5.72-0.47c2,0,3.8,0.32,5.39,0.95c1.6,0.63,2.96,1.53,4.1,2.7c1.13,1.17,2.01,2.59,2.62,4.27
                 C47.84,21.84,48.15,23.73,48.15,25.82z M43.3,25.82c0-3.03-0.75-5.36-2.25-6.99c-1.5-1.63-3.5-2.45-5.99-2.45
                 c-1.4,0-2.49,0.05-3.27,0.15c-0.78,0.1-1.41,0.22-1.87,0.35v16.38c0.57,0.47,1.38,0.92,2.45,1.35c1.07,0.43,2.23,0.65,3.5,0.65
                 c1.33,0,2.47-0.24,3.42-0.72c0.95-0.48,1.72-1.15,2.32-2c0.6-0.85,1.03-1.85,1.3-3C43.17,28.4,43.3,27.16,43.3,25.82z"/>
    <path style="fill:#FFFFFF;" d="M57.74,35.41c1.9,0,3.3-0.25,4.22-0.75c0.92-0.5,1.37-1.3,1.37-2.4c0-1.13-0.45-2.03-1.35-2.7
                 c-0.9-0.67-2.38-1.42-4.45-2.25c-1-0.4-1.96-0.81-2.87-1.22c-0.92-0.42-1.71-0.91-2.37-1.47c-0.67-0.57-1.2-1.25-1.6-2.05
                 s-0.6-1.78-0.6-2.95c0-2.3,0.85-4.12,2.55-5.47c1.7-1.35,4.01-2.02,6.94-2.02c0.73,0,1.46,0.04,2.2,0.13
                 c0.73,0.08,1.41,0.18,2.05,0.3c0.63,0.12,1.19,0.24,1.67,0.37c0.48,0.13,0.86,0.25,1.12,0.35l-0.85,4
                 c-0.5-0.27-1.28-0.54-2.35-0.82c-1.07-0.28-2.35-0.42-3.85-0.42c-1.3,0-2.43,0.26-3.4,0.77c-0.97,0.52-1.45,1.32-1.45,2.42
                 c0,0.57,0.11,1.07,0.32,1.5c0.22,0.43,0.55,0.82,1,1.17c0.45,0.35,1.01,0.67,1.67,0.97c0.67,0.3,1.46,0.62,2.4,0.95
                 c1.23,0.47,2.33,0.92,3.3,1.37c0.97,0.45,1.79,0.97,2.47,1.57c0.68,0.6,1.21,1.32,1.57,2.17c0.37,0.85,0.55,1.89,0.55,3.12
                 c0,2.4-0.89,4.21-2.67,5.44c-1.78,1.23-4.32,1.85-7.62,1.85c-2.3,0-4.1-0.19-5.39-0.57c-1.3-0.38-2.18-0.67-2.65-0.87l0.85-4
                 c0.53,0.2,1.38,0.5,2.55,0.9C54.26,35.21,55.81,35.41,57.74,35.41z"/>
    <path style="fill:#C5F5B4;" d="M87.76,0.8L92.4,0v38.01c-1.07,0.3-2.43,0.6-4.1,0.9c-1.67,0.3-3.58,0.45-5.74,0.45
                 c-2,0-3.8-0.32-5.39-0.95c-1.6-0.63-2.96-1.53-4.1-2.7c-1.13-1.16-2.01-2.59-2.62-4.27c-0.62-1.68-0.92-3.57-0.92-5.67
                 c0-2,0.26-3.83,0.77-5.49c0.52-1.66,1.27-3.1,2.27-4.3c1-1.2,2.22-2.13,3.67-2.8c1.45-0.66,3.1-1,4.97-1c1.5,0,2.82,0.2,3.97,0.6
                 c1.15,0.4,2.01,0.78,2.57,1.15V0.8z M87.76,18.28c-0.57-0.47-1.38-0.92-2.45-1.35c-1.07-0.43-2.23-0.65-3.5-0.65
                 c-1.33,0-2.47,0.24-3.42,0.72c-0.95,0.48-1.72,1.15-2.32,2c-0.6,0.85-1.03,1.86-1.3,3.02c-0.27,1.17-0.4,2.42-0.4,3.75
                 c0,3.03,0.75,5.37,2.25,7.02c1.5,1.65,3.5,2.47,5.99,2.47c1.27,0,2.32-0.06,3.17-0.17c0.85-0.12,1.51-0.24,1.97-0.37V18.28z"/>
    <path style="fill:#C5F5B4;" d="M98.94,8.09c-0.83,0-1.54-0.27-2.12-0.82c-0.58-0.55-0.87-1.29-0.87-2.22
                 c0-0.93,0.29-1.67,0.87-2.22C97.39,2.27,98.1,2,98.94,2c0.83,0,1.54,0.27,2.12,0.82c0.58,0.55,0.87,1.29,0.87,2.22
                 c0,0.93-0.29,1.67-0.87,2.22C100.48,7.82,99.77,8.09,98.94,8.09z M101.28,38.76h-4.65V12.79h4.65V38.76z"/>
    <path style="fill:#C5F5B4;" d="M105.49,13.54c1.07-0.27,2.47-0.55,4.22-0.85c1.75-0.3,3.77-0.45,6.07-0.45
                 c1.66,0,3.06,0.23,4.2,0.67c1.13,0.45,2.08,1.11,2.85,1.97c0.23-0.17,0.6-0.4,1.1-0.7c0.5-0.3,1.11-0.59,1.85-0.87
                 c0.73-0.28,1.55-0.53,2.45-0.75c0.9-0.22,1.86-0.32,2.9-0.32c2,0,3.63,0.29,4.89,0.87c1.26,0.58,2.26,1.41,2.97,2.47
                 c0.72,1.07,1.2,2.33,1.45,3.8c0.25,1.47,0.37,3.06,0.37,4.79v14.59h-4.65V25.17c0-1.53-0.07-2.85-0.22-3.95
                 c-0.15-1.1-0.43-2.01-0.85-2.75c-0.42-0.73-0.98-1.27-1.7-1.62c-0.72-0.35-1.64-0.52-2.77-0.52c-1.57,0-2.86,0.21-3.87,0.62
                 c-1.02,0.42-1.71,0.79-2.07,1.12c0.27,0.87,0.47,1.82,0.6,2.85c0.13,1.03,0.2,2.11,0.2,3.25v14.59h-4.64V25.17
                 c0-1.53-0.08-2.85-0.25-3.95c-0.17-1.1-0.46-2.01-0.87-2.75c-0.42-0.73-0.98-1.27-1.7-1.62c-0.72-0.35-1.62-0.52-2.72-0.52
                 c-0.47,0-0.97,0.02-1.5,0.05c-0.53,0.03-1.04,0.07-1.52,0.12c-0.48,0.05-0.92,0.11-1.32,0.17c-0.4,0.07-0.67,0.12-0.8,0.15v21.93
                 h-4.65V13.54z"/>
    <path style="fill:#C5F5B4;" d="M144.05,25.82c0-2.3,0.33-4.3,1-6.02c0.67-1.71,1.55-3.14,2.65-4.27c1.1-1.13,2.36-1.98,3.8-2.55
                 c1.43-0.57,2.9-0.85,4.4-0.85c3.5,0,6.18,1.09,8.04,3.27c1.86,2.18,2.8,5.5,2.8,9.96c0,0.2,0,0.46,0,0.77
                 c0,0.32-0.02,0.61-0.05,0.87H148.9c0.2,2.7,0.98,4.75,2.35,6.14c1.36,1.4,3.5,2.1,6.39,2.1c1.63,0,3-0.14,4.12-0.42
                 c1.12-0.28,1.96-0.56,2.52-0.82l0.65,3.9c-0.57,0.3-1.56,0.62-2.97,0.95c-1.42,0.33-3.02,0.5-4.82,0.5c-2.26,0-4.22-0.34-5.87-1.02
                 c-1.65-0.68-3.01-1.62-4.07-2.82c-1.07-1.2-1.86-2.62-2.37-4.27C144.31,29.59,144.05,27.79,144.05,25.82z M161.89,23.28
                 c0.03-2.1-0.49-3.82-1.57-5.17c-1.08-1.35-2.57-2.02-4.47-2.02c-1.07,0-2.01,0.21-2.82,0.62c-0.82,0.42-1.51,0.96-2.07,1.62
                 c-0.57,0.67-1.01,1.43-1.32,2.3c-0.32,0.87-0.52,1.75-0.62,2.65H161.89z"/>
    <path style="fill:#8AC66B;" d="M17.13,12.79H6.54c0.3,1.19,0.64,2.44,1.01,3.74h8.56C16.49,15.23,16.84,13.97,17.13,12.79z"/>
    <path style="fill:#A6E08C;" d="M16.12,16.53H7.56c0.1,0.35,0.19,0.69,0.3,1.05c0.27,0.9,0.54,1.8,0.83,2.7h6.3
                 c0.29-0.9,0.56-1.8,0.83-2.7C15.93,17.22,16.02,16.88,16.12,16.53z"/>
    <path style="fill:#C5F5B4;" d="M11.84,29.29c0.13-0.34,0.26-0.69,0.39-1.04c0.63-1.69,1.25-3.45,1.86-5.23
                 c0.31-0.91,0.61-1.82,0.9-2.74h-6.3c0.29,0.92,0.59,1.84,0.9,2.74c0.61,1.8,1.23,3.55,1.86,5.23
                 C11.58,28.6,11.71,28.95,11.84,29.29z"/>
  </g>
</svg>
