<?xml version="1.0" standalone="no"?>
<!DOCTYPE svg PUBLIC "-//W3C//DTD SVG 20010904//EN"
 "http://www.w3.org/TR/2001/REC-SVG-20010904/DTD/svg10.dtd">
<svg version="1.0" xmlns="http://www.w3.org/2000/svg"
 width="500.000000pt" height="500.000000pt" viewBox="0 0 500.000000 500.000000"
 preserveAspectRatio="xMidYMid meet">
<metadata>
Created by potrace 1.14, written by Peter Selinger 2001-2017
</metadata>
<g transform="translate(0.000000,500.000000) scale(0.100000,-0.100000)"
fill="#000000" stroke="none">
<path d="M1612 3763 c0 -148 -1 -274 -1 -280 -1 -10 -63 -13 -276 -13 -151 0
-276 -3 -276 -7 -5 -27 -3 -1666 1 -1668 4 -2 56 -5 118 -6 68 -2 112 -7 112
-13 0 -6 5 -5 12 2 7 7 17 12 23 12 5 0 3 -5 -5 -10 -10 -7 -11 -10 -2 -10 8
0 11 -10 7 -31 -5 -25 -3 -28 8 -17 8 7 14 24 13 37 -1 22 4 26 32 27 17 1 32
-3 32 -8 0 -5 -9 -6 -20 -3 -14 4 -20 2 -18 -7 4 -19 21 -29 29 -16 4 6 6 -9
5 -33 -1 -24 2 -53 7 -64 5 -11 6 -17 2 -13 -5 4 -15 2 -23 -5 -13 -10 -14 -9
-7 3 7 13 6 13 -7 2 -14 -11 -18 -10 -26 4 -14 26 -42 27 -39 2 1 -12 -4 -22
-11 -24 -7 -1 -8 0 -2 3 5 2 10 9 10 14 0 6 -4 7 -10 4 -5 -3 -10 -1 -10 4 0
6 -4 11 -9 11 -11 0 -9 -26 3 -37 11 -11 86 -11 86 0 0 5 8 3 17 -4 11 -10 14
-10 9 -1 -4 6 -2 12 3 12 6 0 11 -4 11 -10 0 -5 16 -10 35 -10 24 0 37 -6 45
-19 5 -11 18 -18 27 -17 10 2 22 -2 26 -8 6 -7 7 -6 4 4 -2 8 -14 14 -25 14
-24 -2 -26 4 -12 26 9 13 10 13 10 0 1 -12 3 -11 11 3 8 14 14 15 30 6 11 -6
26 -8 33 -6 7 3 13 -6 14 -25 2 -23 -1 -29 -12 -25 -10 4 -13 1 -9 -8 3 -8 9
-13 14 -10 8 6 9 -18 12 -212 l1 -103 88 0 c52 0 88 -4 88 -10 0 -5 5 -10 11
-10 5 0 7 6 3 12 -5 10 -4 10 6 1 9 -9 19 -9 33 -2 14 8 18 8 13 0 -9 -14 0
-14 26 0 15 8 19 8 14 0 -10 -15 7 -14 23 1 10 11 12 10 9 -1 -2 -7 3 -16 10
-18 7 -3 11 -1 10 4 -2 4 2 8 7 8 6 0 9 -4 7 -9 -2 -5 3 -6 11 -3 7 3 14 -1
14 -8 0 -7 -6 -11 -13 -8 -8 3 -11 -4 -10 -21 2 -14 -1 -23 -5 -20 -17 10 -9
-9 9 -22 16 -12 16 -13 0 -19 -9 -4 -14 -13 -12 -20 9 -22 -18 -30 -33 -10 -7
11 -13 13 -13 7 0 -22 5 -27 30 -28 53 -2 61 -4 56 -13 -10 -16 20 -6 38 12
19 19 31 23 21 7 -3 -5 1 -10 10 -10 10 0 14 5 10 13 -4 6 5 -1 20 -17 l26
-28 -7 26 c-4 17 -2 26 6 26 6 0 8 -4 5 -10 -4 -6 10 -10 34 -10 22 0 43 -4
46 -10 3 -5 12 -10 18 -9 9 0 9 2 0 6 -24 9 -13 20 16 15 20 -3 28 -9 24 -18
-3 -8 -10 -11 -16 -7 -6 4 -7 1 -2 -7 12 -19 36 17 31 47 -3 13 0 23 6 23 5 0
8 -6 5 -14 -3 -8 -3 -17 1 -21 4 -3 7 -14 7 -23 0 -12 7 -16 22 -14 17 2 20
-1 16 -16 -5 -23 12 -38 23 -21 5 8 3 9 -5 4 -9 -5 -12 0 -9 16 2 19 -1 24
-19 23 -25 -1 -27 4 -13 26 9 13 11 13 20 0 6 -10 10 -11 10 -2 0 14 26 16 35
2 3 -6 -1 -7 -9 -4 -9 3 -16 2 -16 -3 0 -18 33 -10 38 9 4 18 5 18 19 -2 8
-11 20 -20 26 -20 8 0 8 3 -1 9 -7 4 -15 20 -16 35 -3 23 -1 24 12 14 13 -11
15 -10 10 3 -4 9 -1 16 7 16 10 0 11 -5 5 -17 -5 -10 -6 -20 -2 -24 3 -4 -2
-4 -12 0 -14 5 -17 4 -12 -4 9 -16 48 -15 65 1 11 10 13 10 7 0 -4 -8 -1 -13
8 -13 9 0 16 -6 17 -12 0 -7 4 -3 9 9 8 20 12 21 39 10 24 -9 30 -16 26 -32
-6 -19 -6 -19 6 -1 9 15 9 24 0 39 -10 15 -10 18 1 11 7 -5 16 -9 20 -9 3 0
10 -4 15 -9 5 -6 2 -6 -7 -1 -13 8 -13 7 -1 -8 14 -17 26 -24 17 -9 -3 5 13 9
35 10 22 1 49 7 59 12 16 8 18 7 14 -4 -3 -8 0 -17 7 -22 7 -4 10 -3 5 4 -8
14 56 11 66 -3 4 -6 8 -2 8 9 0 12 -5 16 -15 13 -8 -4 -16 -3 -19 1 -3 4 4 8
14 9 11 1 22 -2 25 -8 4 -5 20 -9 37 -9 25 0 28 -3 19 -14 -9 -10 -6 -17 13
-30 14 -9 29 -16 33 -16 4 0 -5 9 -22 20 -25 17 -27 20 -11 26 15 6 14 9 -11
25 -15 11 -24 19 -20 19 4 0 19 -7 32 -16 14 -9 36 -14 51 -11 15 2 31 -2 40
-10 13 -13 13 -17 -3 -30 -16 -13 -16 -13 5 -3 18 9 20 14 12 30 -7 13 -6 20
3 23 12 4 47 -12 58 -26 3 -5 9 1 12 12 3 14 10 19 21 15 9 -3 13 -11 9 -18
-3 -6 3 -3 15 8 17 15 19 23 11 40 -10 20 -10 20 5 2 9 -11 16 -16 16 -11 0 5
7 -1 16 -13 8 -12 20 -20 25 -16 6 3 17 -2 25 -12 9 -11 13 -13 9 -6 -4 8 4
12 29 12 29 0 34 -3 30 -17 -5 -17 -5 -17 6 0 6 9 9 21 5 26 -3 5 0 13 6 17 7
4 9 3 5 -4 -3 -6 -2 -13 3 -17 6 -3 8 -12 5 -19 -7 -18 12 -30 22 -15 5 8 3 9
-6 4 -10 -6 -12 -4 -7 9 4 10 7 19 7 21 0 6 45 -8 58 -18 7 -5 15 -7 19 -3 3
3 1 6 -5 6 -7 0 -12 4 -12 10 0 11 32 1 42 -14 4 -5 -1 -16 -10 -23 -15 -12
-14 -13 6 -3 18 9 20 14 12 30 -5 10 -13 20 -17 22 -5 3 -1 3 7 0 8 -3 24 -5
35 -5 11 -1 25 -8 32 -16 6 -9 15 -13 19 -8 4 4 2 7 -4 7 -7 0 -12 4 -12 9 0
5 9 7 20 4 15 -4 19 -11 15 -27 -6 -20 -5 -20 6 -2 9 15 9 24 0 39 -10 15 -10
18 1 11 7 -5 16 -9 20 -9 3 0 10 -4 15 -9 5 -6 2 -6 -7 -1 -13 8 -13 7 -1 -8
14 -17 26 -24 17 -9 -3 5 13 9 35 10 22 1 49 7 59 12 16 8 18 7 14 -4 -3 -8 0
-17 7 -22 7 -4 10 -3 5 4 -8 14 56 11 66 -3 4 -6 8 -2 8 9 0 12 -5 16 -15 13
-8 -4 -17 -3 -19 2 -8 12 26 9 53 -5 19 -10 27 -10 32 -2 4 6 17 12 28 13 11
1 18 -2 15 -7 -3 -4 11 -8 30 -8 22 0 36 5 37 13 0 6 4 3 9 -8 12 -28 12 -35
-1 -32 -6 1 -14 -5 -16 -13 -4 -12 -3 -12 5 -2 5 8 13 14 18 15 5 1 8 9 7 18
-2 12 3 16 16 12 10 -3 18 -10 17 -16 0 -7 3 -13 8 -14 5 -1 13 -7 18 -15 8
-10 9 -10 5 2 -2 8 -10 14 -16 13 -12 -3 -15 10 -4 21 10 10 13 37 3 31 -4 -3
-10 1 -13 8 -3 7 5 13 19 13 14 1 21 -2 17 -9 -3 -6 -1 -7 6 -3 15 9 3 29 -13
23 -9 -4 -13 7 -14 34 -2 38 11 48 31 24 5 -6 7 -4 4 5 -2 8 -10 15 -18 15
-17 0 -20 44 -5 64 8 10 8 15 -1 18 -18 6 -16 33 2 33 8 0 14 -6 12 -12 -1 -7
7 -13 18 -14 15 -1 16 0 2 3 -9 3 -15 9 -11 14 3 6 -3 13 -15 16 -14 4 -20 12
-19 29 1 13 7 24 13 25 5 1 -1 5 -15 9 -15 5 -18 8 -8 9 12 1 15 8 12 28 -2
16 -5 53 -6 83 -1 52 -12 75 -30 64 -10 -6 -11 -24 0 -23 20 3 23 -3 11 -18
-8 -9 -9 -14 -4 -11 6 4 11 -6 11 -23 1 -18 -3 -29 -11 -29 -7 0 -15 -6 -18
-12 -3 -10 -7 -10 -19 0 -13 10 -17 10 -21 0 -2 -7 -3 11 -2 40 2 35 -1 52 -9
49 -14 -5 -15 -30 -1 -39 7 -6 6 -10 -1 -15 -6 -5 -10 -16 -8 -25 1 -10 -1
-18 -6 -18 -5 0 -7 17 -5 39 1 21 -1 44 -6 52 -5 8 -9 11 -10 7 -5 -25 -4 -34
6 -40 7 -6 6 -10 -1 -15 -6 -5 -10 -16 -8 -25 2 -15 -1 -16 -17 -8 -22 12 -26
22 -6 14 9 -3 13 5 13 26 0 18 -4 29 -11 26 -7 -2 -11 10 -10 34 0 34 2 37 23
34 13 -3 21 0 20 7 -2 6 4 14 12 16 13 4 13 3 0 -6 -20 -14 -4 -14 22 0 12 6
18 7 14 1 -3 -6 4 -9 18 -8 13 0 22 6 19 11 -3 6 0 4 8 -2 17 -17 26 -16 26 0
0 10 -21 14 -80 14 -46 0 -73 -3 -65 -8 10 -7 9 -9 -4 -9 -20 0 -20 2 -21 123
l0 77 -956 1 c-526 1 -959 1 -963 0 -5 0 -8 3 -8 9 0 5 -8 10 -17 10 -14 0
-15 -2 -4 -9 9 -6 6 -8 -12 -8 -15 0 -27 6 -30 16 -2 9 -15 17 -28 18 -18 2
-20 0 -9 -7 8 -5 18 -6 22 -4 4 3 8 -1 8 -9 0 -9 -12 -14 -33 -15 -28 -1 -33
2 -35 24 -1 14 2 23 6 20 4 -2 14 0 22 5 12 8 11 9 -5 7 -14 -2 -20 2 -19 14
1 10 -2 16 -6 13 -4 -3 -10 1 -13 8 -3 7 5 13 19 13 14 1 21 -2 17 -9 -3 -6
-1 -7 6 -3 15 9 3 29 -14 23 -8 -4 -12 5 -13 26 -1 24 2 28 9 17 9 -13 10 -13
5 0 -3 8 -9 23 -12 33 -4 12 -13 16 -25 12 -11 -4 -19 -2 -19 4 0 6 3 10 8 10
25 -4 32 4 32 37 0 19 4 33 8 30 5 -3 9 1 9 9 0 8 -4 12 -8 9 -4 -2 -10 0 -14
6 -6 10 7 14 33 11 6 -1 12 3 12 8 0 5 -9 8 -19 6 -14 -3 -19 2 -18 16 1 10 6
19 12 20 5 1 -1 5 -15 9 -15 5 -18 8 -8 9 11 1 15 7 11 19 -3 12 1 19 11 19 9
0 14 -8 13 -20 -1 -12 5 -21 16 -22 9 -2 17 1 17 7 0 6 -7 8 -15 4 -10 -4 -14
1 -12 17 1 13 -3 21 -10 20 -7 -2 -18 7 -24 20 -12 21 -11 21 6 7 17 -14 17
-14 5 7 -8 12 -17 20 -20 18 -4 -2 -7 2 -7 10 0 11 5 12 20 3 15 -8 18 -7 12
3 -6 9 -3 11 9 6 11 -4 15 -3 11 4 -4 6 -14 8 -22 5 -10 -4 -13 0 -11 12 2 9
8 17 15 17 6 0 15 4 20 9 5 5 3 6 -4 2 -9 -5 -13 0 -14 16 -1 23 -1 23 -8 -2
l-7 -25 -6 28 c-3 16 -1 27 6 27 6 0 4 5 -4 10 -12 8 -10 10 10 11 17 1 19 3
8 6 -23 6 -23 49 0 63 16 11 16 11 -1 6 -15 -5 -17 -2 -11 17 17 55 17 53 5
37 -9 -12 -11 -10 -11 13 0 17 5 27 15 27 8 0 14 -6 12 -12 -1 -7 7 -13 18
-14 15 -1 16 0 2 3 -9 3 -15 9 -11 14 3 6 -3 13 -15 16 -20 5 -30 33 -12 33 5
0 9 12 9 26 0 18 -3 22 -9 13 -6 -10 -9 -4 -9 18 0 20 7 36 18 43 16 11 16 11
-2 6 -14 -5 -17 -2 -12 10 3 8 6 18 6 20 0 3 5 2 11 -2 8 -4 8 0 0 15 -13 24
-23 29 -15 7 3 -8 1 -16 -4 -20 -5 -3 -8 5 -7 17 1 12 -2 27 -6 33 -6 8 -2 10
15 7 26 -5 43 11 25 23 -8 4 -9 3 -5 -4 4 -7 1 -12 -8 -12 -8 0 -15 8 -15 18
0 9 -2 29 -4 45 -2 15 -1 27 4 27 5 0 6 6 3 13 -3 8 2 14 11 14 10 0 15 -8 13
-21 -2 -13 3 -22 15 -24 9 -2 17 1 17 7 0 6 -6 8 -13 5 -9 -3 -13 3 -13 18 1
13 -4 22 -11 21 -7 -2 -17 6 -23 17 -8 14 -8 20 0 20 6 0 8 5 5 10 -3 6 0 10
7 11 7 1 2 5 -12 9 -15 5 -18 8 -8 9 11 1 15 7 11 21 -4 14 0 20 10 20 10 0
13 -6 10 -19 -6 -22 12 -37 23 -20 5 8 3 9 -6 4 -10 -6 -12 -3 -7 14 5 22 -3
30 -37 35 -26 4 -29 15 -3 12 22 -3 23 -1 13 19 -6 11 -11 44 -10 72 1 45 -1
51 -17 50 -11 -1 -17 -6 -15 -12 2 -5 10 -9 17 -7 8 1 5 -5 -6 -14 -12 -10
-14 -15 -5 -11 12 4 16 -4 16 -33 1 -29 -2 -35 -12 -26 -6 6 -9 15 -7 20 3 5
0 6 -8 4 -8 -3 -13 -14 -11 -24 2 -16 1 -17 -8 -4 -9 13 -11 13 -20 0 -8 -12
-9 -9 -6 12 3 20 1 25 -10 21 -8 -3 -11 -9 -8 -14 3 -5 -1 -9 -8 -9 -9 0 -9
-3 2 -10 12 -8 11 -10 -5 -7 -11 1 -25 6 -32 10 -6 4 -13 1 -16 -5 -2 -7 -4 7
-3 32 1 29 6 44 14 43 7 -2 12 2 12 7 0 6 -6 10 -13 10 -14 0 -15 7 -19 170
l-2 85 121 1 c67 0 121 -2 121 -5 -2 -20 3 -31 12 -26 5 3 7 12 3 20 -3 8 0
15 7 15 6 0 9 -4 6 -9 -3 -5 1 -15 10 -22 14 -11 15 -10 12 6 -2 15 3 19 30
21 17 0 32 -3 32 -8 0 -5 -9 -6 -20 -3 -14 4 -20 2 -18 -7 4 -20 21 -29 30
-15 4 7 6 3 5 -10 0 -12 -4 -20 -8 -17 -4 2 -10 0 -14 -6 -3 -6 4 -11 17 -11
17 -1 18 -3 5 -6 -19 -5 -14 -24 6 -19 7 1 9 1 4 -1 -4 -3 -4 -9 -1 -14 3 -6
11 -5 20 2 12 10 17 9 27 0 9 -10 8 -11 -7 -5 -13 5 -17 4 -13 -3 8 -12 -11
-12 -30 0 -14 9 -36 -26 -25 -39 4 -5 0 -3 -9 4 -9 7 -24 10 -33 6 -29 -11
-17 -20 27 -20 30 1 41 -3 39 -12 -1 -8 2 -11 8 -7 5 3 10 13 10 21 0 8 5 14
11 14 5 0 8 -4 5 -9 -3 -5 21 -9 54 -10 41 0 60 3 61 12 0 6 4 3 9 -8 12 -28
12 -35 -1 -32 -6 1 -14 -5 -16 -13 -4 -12 -3 -12 5 -2 5 8 13 14 18 13 5 0 8
10 7 22 -3 21 -2 22 12 3 14 -19 15 -19 15 -2 0 16 2 16 15 6 13 -10 18 -11
28 -1 9 10 8 11 -5 6 -10 -4 -18 -3 -18 2 0 5 15 9 34 9 19 0 33 -3 31 -6 -2
-3 3 -14 12 -25 14 -19 14 -19 8 8 -5 18 -3 27 5 27 6 0 8 -4 5 -10 -4 -6 9
-10 31 -10 30 0 35 -2 25 -14 -10 -12 -8 -17 11 -26 21 -10 21 -10 5 3 -21 17
-8 30 20 21 10 -3 1 5 -21 18 -31 20 -35 26 -22 31 10 4 14 3 11 -3 -7 -12 27
-30 59 -30 13 0 27 -6 29 -12 3 -8 6 -6 6 5 1 9 -4 17 -11 17 -6 0 -8 3 -5 6
4 4 12 2 19 -4 15 -11 66 -11 86 1 15 10 12 -14 -3 -25 -6 -5 -5 -8 3 -8 8 0
16 9 19 20 5 19 6 20 20 3 8 -10 12 -12 8 -5 -9 18 6 15 22 -5 8 -10 12 -12 8
-5 -4 8 4 12 29 12 29 0 34 -3 30 -17 -5 -17 -5 -17 6 0 6 9 9 21 5 26 -3 5 0
13 6 17 7 4 9 3 5 -4 -3 -6 -2 -13 3 -17 6 -3 8 -12 5 -19 -7 -18 12 -30 22
-15 5 8 3 9 -6 4 -10 -6 -12 -4 -7 9 4 10 7 19 7 21 0 6 45 -8 58 -18 7 -5 15
-7 19 -3 3 3 1 6 -5 6 -7 0 -12 4 -12 10 0 11 32 1 42 -14 4 -5 -1 -16 -10
-23 -15 -12 -14 -13 6 -3 18 9 20 14 12 30 -5 10 -13 20 -17 22 -5 3 -1 3 7 0
8 -3 24 -5 35 -5 11 -1 23 -6 27 -11 5 -7 8 -5 8 4 0 13 2 13 9 1 8 -12 11 -9
16 12 8 29 19 34 31 15 4 -6 3 -8 -3 -5 -11 7 -23 -13 -23 -36 0 -7 5 -6 10 3
9 13 13 12 30 -9 11 -13 20 -18 20 -13 0 6 -4 14 -10 17 -13 8 -13 35 1 35 5
0 8 -4 5 -9 -3 -4 22 -9 56 -10 34 -1 65 -4 70 -7 16 -10 8 -23 -12 -19 -11 2
-23 -1 -26 -7 -4 -7 -2 -8 4 -4 7 4 12 1 12 -6 0 -9 3 -9 10 2 5 8 10 11 10 6
0 -6 5 -5 12 2 9 9 7 17 -8 33 -19 22 -19 22 3 11 12 -7 24 -17 26 -24 3 -8 6
-6 6 4 1 12 6 15 18 11 12 -5 14 -3 9 8 -4 8 -1 6 7 -4 12 -15 16 -15 20 -3
10 24 58 -3 51 -29 -5 -19 -5 -19 7 -1 9 15 9 24 0 39 -10 15 -10 18 1 11 7
-5 16 -9 20 -9 3 0 10 -4 15 -9 5 -5 3 -6 -4 -2 -19 10 -16 1 4 -15 9 -8 14
-9 10 -3 -4 7 8 11 34 12 22 1 49 7 59 12 16 8 18 7 14 -4 -3 -8 0 -17 7 -22
7 -4 10 -3 5 4 -8 14 56 11 66 -3 4 -6 8 -2 8 9 0 12 -5 16 -15 13 -8 -4 -17
-3 -19 2 -8 12 26 9 53 -5 19 -10 27 -10 32 -2 4 6 17 12 28 13 11 1 18 -2 15
-7 -3 -4 11 -8 30 -8 22 0 36 5 37 13 0 6 4 3 9 -8 12 -28 12 -35 -1 -33 -6 2
-14 -4 -16 -12 -4 -12 -3 -12 5 -2 5 8 13 14 18 15 5 1 8 10 6 21 -2 17 -1 18
23 2 13 -9 28 -16 32 -16 4 0 2 4 -5 9 -7 4 -15 20 -16 35 -3 23 -1 24 12 14
13 -11 15 -10 10 3 -4 9 -1 16 7 16 10 0 11 -5 5 -17 -5 -10 -6 -20 -2 -24 3
-4 -2 -4 -12 0 -14 5 -17 4 -12 -4 9 -16 48 -15 65 1 11 10 13 10 7 0 -4 -8
-1 -13 8 -13 9 0 16 -6 17 -12 0 -7 4 -3 9 9 9 22 17 23 57 9 15 -5 20 -13 17
-24 -5 -14 -4 -14 4 -2 6 8 8 18 6 22 -3 4 -1 8 4 8 5 0 14 -10 21 -22 11 -22
11 -22 6 -1 -3 12 0 25 6 29 7 4 10 3 6 -2 -3 -5 1 -18 10 -29 14 -19 14 -19
8 8 -5 18 -3 27 5 27 6 0 8 -4 5 -10 -9 -14 28 -12 44 3 11 10 13 10 7 0 -4
-7 -3 -13 3 -13 6 0 8 -7 5 -15 -5 -12 -10 -13 -20 -4 -9 7 -14 8 -14 1 0 -17
30 -23 36 -7 4 8 11 12 18 8 6 -4 5 1 -3 10 -7 9 -10 17 -7 17 4 0 2 9 -4 19
-7 14 -7 20 1 23 8 3 6 10 -5 21 -20 19 -7 24 13 5 11 -11 13 -10 7 0 -15 25
-17 65 -4 73 11 7 10 9 -1 9 -8 0 -11 6 -7 16 3 8 2 13 -3 10 -5 -3 -11 0 -14
7 -3 7 5 13 19 13 14 1 21 -2 17 -9 -3 -6 -1 -7 6 -3 15 9 3 29 -13 23 -9 -4
-13 7 -14 34 -2 43 14 49 35 14 7 -11 12 -15 12 -10 1 17 -18 40 -31 40 -16 0
-20 55 -4 56 6 1 0 5 -14 9 -18 6 -20 8 -7 9 11 1 15 6 11 13 -4 6 -7 26 -6
45 1 18 -2 33 -7 33 -5 0 -7 -13 -6 -29 2 -23 -1 -28 -14 -24 -12 3 -11 1 3
-11 11 -9 15 -16 10 -16 -6 0 -16 6 -22 12 -10 10 -15 10 -22 -1 -6 -10 -13
-12 -22 -5 -16 11 -38 11 -56 0 -16 -10 -21 -5 -27 23 -2 13 0 19 6 15 6 -3
17 2 24 12 21 27 18 40 -3 21 -26 -24 -30 -22 -29 17 1 19 4 33 8 30 4 -2 10
3 13 12 9 24 7 28 -7 16 -16 -13 -18 0 -20 121 l-1 87 -1121 0 -1122 0 -1
-267z m2298 -118 c5 3 11 1 14 -4 4 -5 -2 -8 -11 -7 -9 2 -18 8 -19 15 -1 6 0
7 3 1 2 -5 9 -8 13 -5z m95 -15 c-3 -5 1 -10 7 -13 7 -3 3 -4 -8 -4 -15 1 -20
6 -16 16 4 10 1 12 -8 6 -8 -5 -11 -4 -6 3 4 6 13 9 21 6 8 -4 13 -10 10 -14z
m-35 -31 c0 -3 -9 -9 -19 -12 -13 -3 -18 0 -15 7 5 13 34 18 34 5z m-42 -37
c7 -21 7 -29 -2 -29 -6 0 -11 13 -12 29 -1 35 1 35 14 0z m88 -2 c1 -14 -1
-19 -3 -12 -3 6 -10 9 -16 5 -7 -3 -9 -3 -5 2 4 4 4 13 -2 19 -6 8 -3 12 8 12
11 0 17 -9 18 -26z m-132 -6 c3 -8 2 -12 -4 -9 -6 3 -10 10 -10 16 0 14 7 11
14 -7z m102 -33 c0 -12 -6 -17 -18 -13 -10 2 -18 9 -18 14 0 5 4 7 9 3 5 -3
12 -1 16 5 9 14 11 13 11 -9z m-93 -10 c3 -13 1 -18 -9 -14 -7 2 -10 11 -7 19
7 19 10 18 16 -5z m38 -19 c-6 -12 -7 -23 -1 -31 6 -6 2 -5 -7 3 -13 12 -14
18 -3 30 17 22 23 20 11 -2z m73 -18 c3 -8 2 -12 -4 -9 -6 3 -10 10 -10 16 0
14 7 11 14 -7z m-111 -25 c-4 -15 -8 -17 -14 -8 -6 11 4 28 18 29 0 0 -1 -9
-4 -21z m-1888 1 c-3 -5 -12 -10 -18 -10 -7 0 -6 4 3 10 19 12 23 12 15 0z
m95 -4 c-7 -7 -13 -7 -20 0 -6 6 -3 10 10 10 13 0 16 -4 10 -10z m307 8 c-3
-3 -12 -4 -19 -1 -8 3 -5 6 6 6 11 1 17 -2 13 -5z m240 0 c-3 -3 -12 -4 -19
-1 -8 3 -5 6 6 6 11 1 17 -2 13 -5z m253 -8 c-4 -4 -16 -4 -26 2 -16 9 -14 10
8 9 15 -1 23 -6 18 -11z m157 0 c-10 -8 -18 -18 -17 -22 1 -5 -4 -10 -12 -12
-9 -2 -8 0 2 7 8 6 11 11 5 11 -5 0 -1 7 9 15 11 8 22 15 25 15 3 0 -2 -7 -12
-14z m310 8 c-3 -3 -12 -4 -19 -1 -8 3 -5 6 6 6 11 1 17 -2 13 -5z m240 0 c-3
-3 -12 -4 -19 -1 -8 3 -5 6 6 6 11 1 17 -2 13 -5z m210 0 c-3 -3 -12 -4 -19
-1 -8 3 -5 6 6 6 11 1 17 -2 13 -5z m167 -7 c-3 -8 -11 -14 -19 -14 -21 0 -19
15 3 20 9 3 18 5 19 6 1 0 0 -5 -3 -12z m-1931 -16 c3 -13 0 -18 -7 -15 -7 3
-13 11 -13 19 0 22 14 18 20 -4z m112 0 c-1 -8 -8 -17 -16 -19 -11 -3 -11 -1
1 7 14 10 7 16 -13 12 -5 -1 -6 2 -3 7 9 15 34 9 31 -7z m80 9 c-3 -5 0 -10 7
-11 10 0 10 -2 0 -6 -6 -2 -10 -9 -7 -13 3 -5 0 -12 -6 -16 -8 -4 -9 -3 -5 4
4 7 1 12 -6 12 -9 0 -9 3 2 10 8 5 11 10 7 10 -9 0 1 20 9 20 3 0 2 -4 -1 -10z
m188 -5 c-3 -9 -8 -14 -10 -11 -3 3 -2 9 2 15 9 16 15 13 8 -4z m240 0 c-3 -9
-8 -14 -10 -11 -3 3 -2 9 2 15 9 16 15 13 8 -4z m292 -4 c-1 -8 -8 -17 -16
-19 -11 -3 -11 -1 1 7 14 10 7 16 -13 12 -5 -1 -6 2 -3 7 9 15 34 9 31 -7z
m160 0 c-1 -8 -8 -17 -16 -19 -11 -3 -11 -1 1 7 14 10 7 16 -13 12 -5 -1 -6 2
-3 7 9 15 34 9 31 -7z m80 9 c-3 -5 0 -10 7 -11 10 0 10 -2 0 -6 -6 -2 -10 -9
-7 -13 3 -5 0 -12 -6 -16 -8 -4 -9 -3 -5 4 4 7 1 12 -6 12 -9 0 -9 3 2 10 8 5
11 10 7 10 -9 0 1 20 9 20 3 0 2 -4 -1 -10z m188 -5 c-3 -9 -8 -14 -10 -11 -3
3 -2 9 2 15 9 16 15 13 8 -4z m240 0 c-3 -9 -8 -14 -10 -11 -3 3 -2 9 2 15 9
16 15 13 8 -4z m138 2 c-6 -8 -8 -17 -4 -20 3 -4 1 -7 -5 -7 -15 0 -15 13 0
28 16 16 23 15 9 -1z m247 -12 c-3 -3 -9 2 -12 12 -6 14 -5 15 5 6 7 -7 10
-15 7 -18z m-153 5 c4 -6 -1 -7 -11 -3 -13 5 -15 3 -9 -7 5 -9 4 -11 -4 -6 -6
4 -9 12 -6 17 8 12 22 12 30 -1z m-1500 -31 c1 -11 -2 -22 -7 -25 -5 -3 -8 -2
-7 3 3 20 -2 27 -11 13 -7 -12 -9 -10 -8 7 2 14 7 19 17 15 10 -4 12 -1 6 9
-4 8 -4 11 0 6 5 -4 9 -17 10 -28z m239 6 c-4 -8 -10 -13 -14 -10 -5 3 -10 -1
-13 -7 -3 -7 -4 -3 -4 8 1 15 6 20 16 16 10 -4 12 -1 6 8 -5 8 -4 11 3 6 6 -4
9 -13 6 -21z m722 0 c2 -12 -2 -12 -17 -5 -23 13 -25 22 -2 13 12 -5 14 -3 8
8 -5 8 -4 11 0 6 5 -4 10 -14 11 -22z m231 0 c-9 -7 -14 -15 -10 -19 4 -4 -1
-4 -12 0 -11 5 -14 9 -7 12 7 2 10 8 7 13 -4 5 2 6 11 2 13 -5 15 -3 9 7 -6 9
-4 11 5 5 10 -6 10 -11 -3 -20z m256 5 c-6 -22 -18 -26 -29 -8 -4 6 -3 8 3 5
6 -4 13 0 17 8 8 22 15 18 9 -5z m120 0 c-3 -12 -8 -19 -11 -16 -5 6 5 36 12
36 2 0 2 -9 -1 -20z m-1006 -5 c0 -8 -4 -15 -9 -15 -10 0 -11 14 -1 23 9 10
10 9 10 -8z m80 0 c0 -8 -4 -15 -9 -15 -10 0 -11 14 -1 23 9 10 10 9 10 -8z
m75 3 c-14 -14 -44 -20 -36 -7 3 5 9 7 14 4 5 -3 11 -1 15 5 3 5 9 10 13 10 3
0 1 -5 -6 -12z m803 -11 c0 -13 -5 -24 -12 -24 -7 0 -11 3 -9 6 2 3 6 14 9 24
9 23 12 22 12 -6z m-1843 -7 c11 -12 10 -12 -2 -3 -8 6 -23 9 -32 8 -10 -2
-20 0 -23 4 -8 14 44 6 57 -9z m47 3 c-6 -7 -17 -13 -23 -12 -7 0 -6 2 2 6 6
2 10 8 8 12 -3 4 1 8 9 8 11 0 12 -4 4 -14z m86 7 c-3 -5 -12 -10 -18 -10 -7
0 -6 4 3 10 19 12 23 12 15 0z m341 -2 c3 -4 -1 -5 -10 -4 -8 1 -18 5 -22 8
-3 4 1 5 10 4 8 -1 18 -5 22 -8z m619 2 c-3 -5 -12 -10 -18 -10 -7 0 -6 4 3
10 19 12 23 12 15 0z m312 -9 c0 -11 -5 -18 -9 -15 -4 3 -5 11 -1 19 7 21 12
19 10 -4z m20 -3 c-3 -8 -6 -5 -6 6 -1 11 2 17 5 13 3 -3 4 -12 1 -19z m252 8
c9 -11 9 -16 0 -22 -8 -5 -9 -3 -4 6 6 10 4 12 -8 7 -11 -4 -14 -2 -10 9 6 17
8 17 22 0z m188 -1 c0 -8 -4 -12 -9 -9 -5 3 -6 10 -3 15 9 13 12 11 12 -6z
m113 4 c0 -4 -6 -9 -13 -12 -8 -3 -14 0 -14 7 0 7 6 13 14 13 7 0 13 -4 13 -8z
m-406 -15 c3 -8 2 -12 -4 -9 -6 3 -10 10 -10 16 0 14 7 11 14 -7z m-1487 -19
c0 -22 -14 -18 -20 4 -3 13 0 18 7 15 7 -3 13 -11 13 -19z m76 -1 c-7 -19 -10
-18 -16 5 -3 13 -1 18 9 14 7 -2 10 -11 7 -19z m607 16 c0 -5 -4 -10 -10 -10
-5 0 -10 5 -10 10 0 6 5 10 10 10 6 0 10 -4 10 -10z m83 -7 c-5 -12 -3 -14 7
-8 9 5 11 4 6 -3 -5 -9 -12 -8 -26 1 -20 12 -18 15 17 26 1 1 -1 -6 -4 -16z
m77 3 c-7 -7 -13 -7 -20 0 -6 6 -3 10 10 10 13 0 16 -4 10 -10z m63 -17 c-8
-8 -13 -7 -18 2 -6 8 -4 10 5 4 10 -6 12 -4 6 11 -6 15 -5 17 5 7 9 -10 10
-16 2 -24z m60 11 c-6 -21 -25 -28 -20 -7 2 10 16 26 24 27 0 0 -1 -9 -4 -20z
m79 -2 c-2 -10 -9 -18 -15 -18 -6 0 -7 3 -4 7 4 3 3 11 -3 17 -6 8 -3 12 9 12
12 0 17 -6 13 -18z m516 -13 c-3 -3 -9 2 -12 12 -6 14 -5 15 5 6 7 -7 10 -15
7 -18z m90 11 c-10 -7 -14 -17 -10 -21 4 -5 1 -5 -5 -1 -18 10 -16 24 5 29 27
7 28 7 10 -7z m192 -5 c0 -13 -29 -8 -34 5 -3 7 2 10 15 7 10 -3 19 -9 19 -12z
m-1890 3 c0 -8 -19 -13 -24 -6 -3 5 1 9 9 9 8 0 15 -2 15 -3z m251 -7 c-6 -8
-8 -17 -4 -20 3 -4 1 -7 -5 -7 -15 0 -15 13 0 28 16 16 23 15 9 -1z m656 -2
c0 -5 -12 -10 -27 -10 -15 0 -27 5 -27 10 0 6 12 10 27 10 15 0 27 -4 27 -10z
m506 -4 c3 -13 1 -18 -9 -14 -7 2 -10 11 -7 19 7 19 10 18 16 -5z m80 0 c3
-13 1 -18 -9 -14 -7 2 -10 11 -7 19 7 19 10 18 16 -5z m91 3 c3 -7 -2 -10 -15
-7 -22 6 -26 20 -4 20 8 0 16 -6 19 -13z m186 6 c0 -4 -7 -13 -15 -20 -13 -11
-14 -10 -9 5 6 14 4 16 -6 10 -8 -5 -11 -4 -7 2 7 11 37 13 37 3z m74 -6 c3
-8 2 -12 -4 -9 -6 3 -10 10 -10 16 0 14 7 11 14 -7z m-718 -10 c-3 -21 -33
-39 -33 -20 0 8 7 12 14 9 8 -3 13 -2 12 3 -2 13 0 24 5 24 2 0 3 -7 2 -16z
m-949 0 c-3 -3 -12 -4 -19 -1 -8 3 -5 6 6 6 11 1 17 -2 13 -5z m116 -14 c-3
-12 -8 -19 -11 -16 -5 6 5 36 12 36 2 0 2 -9 -1 -20z m671 8 c-5 -8 -1 -9 12
-4 14 5 16 4 7 -5 -13 -13 -37 -3 -28 12 4 5 8 9 11 9 3 0 2 -5 -2 -12z m323
5 c-4 -3 -1 -13 6 -22 11 -14 10 -14 -5 -2 -21 15 -23 31 -6 31 6 0 8 -3 5 -7z
m246 -4 c-6 -6 -9 -19 -6 -28 5 -13 3 -14 -7 -4 -11 10 -11 15 0 28 7 8 15 15
18 15 3 0 1 -5 -5 -11z m271 -1 c-5 -7 -2 -9 9 -5 10 4 14 2 11 -7 -7 -18 -32
-16 -29 3 5 22 4 21 11 21 3 0 2 -5 -2 -12z m126 -3 c0 -1 -6 -8 -14 -14 -11
-9 -16 -9 -22 0 -5 8 -3 9 6 4 10 -6 12 -4 7 8 -4 11 -2 14 9 10 7 -3 14 -6
14 -8z m-1903 -10 c0 -8 -4 -12 -9 -9 -4 3 -8 0 -8 -7 0 -7 -3 -9 -6 -6 -4 4
-1 13 6 22 15 19 17 19 17 0z m53 -7 c0 -6 -6 -5 -15 2 -8 7 -15 14 -15 16 0
2 7 1 15 -2 8 -4 15 -11 15 -16z m81 4 c-7 -2 -18 1 -23 6 -8 8 -4 9 13 5 13
-4 18 -8 10 -11z m896 1 c-14 -14 -19 -15 -29 -4 -7 8 -8 11 -3 8 6 -3 17 -2
25 4 23 14 26 11 7 -8z m391 -8 c-3 -3 -9 2 -12 12 -6 14 -5 15 5 6 7 -7 10
-15 7 -18z m-1553 5 c3 -5 1 -10 -4 -10 -6 0 -11 5 -11 10 0 6 2 10 4 10 3 0
8 -4 11 -10z m1034 -7 c0 -11 -3 -13 -6 -5 -2 6 -10 9 -15 6 -7 -4 -8 -2 -4 4
11 18 26 14 25 -5z m801 7 c0 -5 -4 -10 -10 -10 -5 0 -10 5 -10 10 0 6 5 10
10 10 6 0 10 -4 10 -10z m-500 -20 c0 -5 -2 -10 -4 -10 -3 0 -8 5 -11 10 -3 6
-1 10 4 10 6 0 11 -4 11 -10z m120 0 c0 -5 -2 -10 -4 -10 -3 0 -8 5 -11 10 -3
6 -1 10 4 10 6 0 11 -4 11 -10z m-1780 -204 c0 -2 -8 -10 -17 -17 -16 -13 -17
-12 -4 4 13 16 21 21 21 13z m43 -3 c-7 -2 -19 -2 -25 0 -7 3 -2 5 12 5 14 0
19 -2 13 -5z m-38 -31 c-6 -4 -10 -17 -9 -30 1 -12 -2 -24 -6 -27 -3 -2 -5 10
-4 28 3 40 2 37 17 37 8 0 8 -3 2 -8z m78 -13 c-4 -15 -8 -17 -14 -8 -6 11 4
28 18 29 0 0 -1 -9 -4 -21z m-36 -46 c-14 -14 -19 -15 -29 -4 -7 8 -8 11 -3 8
6 -3 17 -2 25 4 23 14 26 11 7 -8z m70 -17 c0 -7 -6 -13 -13 -13 -7 0 -10 7
-6 15 4 11 1 13 -8 7 -8 -5 -11 -4 -6 3 8 14 33 5 33 -12z m-103 -20 c-3 -9
-12 -12 -22 -9 -15 6 -9 11 25 22 1 1 0 -5 -3 -13z m66 -7 c0 -3 -9 -9 -19
-12 -13 -3 -18 0 -15 7 5 13 34 18 34 5z m42 -26 c-5 -10 -7 -24 -5 -30 3 -7
0 -13 -5 -13 -12 0 -10 43 3 52 15 12 17 10 7 -9z m-131 -20 c13 -16 12 -17
-3 -4 -10 7 -18 15 -18 17 0 8 8 3 21 -13z m52 -5 c5 -21 5 -21 -7 -6 -7 10
-17 14 -21 10 -5 -4 -5 -1 -1 6 11 19 23 14 29 -10z m-40 -37 c3 -13 1 -18 -9
-14 -7 2 -10 11 -7 19 7 19 10 18 16 -5z m91 3 c3 -7 -2 -10 -15 -7 -22 6 -26
20 -4 20 8 0 16 -6 19 -13z m-52 -16 c-8 -8 -8 -17 0 -32 10 -20 9 -20 -7 -4
-15 14 -16 20 -5 32 7 9 15 16 18 16 3 0 1 -5 -6 -12z m78 -18 c0 -5 -4 -10
-10 -10 -5 0 -10 5 -10 10 0 6 5 10 10 10 6 0 10 -4 10 -10z m-119 -32 c-5
-13 -9 -27 -9 -31 0 -5 -2 -11 -5 -13 -2 -3 -4 8 -3 23 1 16 6 31 11 35 15 11
15 10 6 -14z m95 -7 c0 -14 -4 -17 -12 -11 -6 6 -14 7 -17 3 -4 -3 -7 -1 -7 5
0 6 8 13 18 15 9 3 17 5 17 6 1 0 1 -8 1 -18z m-54 -33 c-2 -10 -6 -18 -7 -18
-1 0 -5 8 -7 18 -3 11 0 19 7 19 7 0 10 -8 7 -19z m75 -1 c0 -8 -6 -14 -14
-14 -9 0 -10 4 -2 14 6 7 12 13 14 13 1 0 2 -6 2 -13z m-60 -19 c-3 -8 -6 -5
-6 6 -1 11 2 17 5 13 3 -3 4 -12 1 -19z m-37 -29 c0 -4 -11 -6 -25 -5 -14 0
-25 4 -25 8 0 4 11 7 25 6 14 -1 25 -5 25 -9z m56 -4 c-3 -8 0 -15 6 -15 6 0
9 -3 5 -6 -10 -11 -26 6 -20 21 3 8 7 15 10 15 3 0 3 -7 -1 -15z m46 -12 c-6
-2 -10 -9 -7 -13 3 -5 1 -11 -4 -14 -7 -5 -8 11 -2 32 1 1 7 2 14 1 9 0 9 -2
-1 -6z m-82 -23 c0 -5 -5 -10 -11 -10 -5 0 -7 5 -4 10 3 6 8 10 11 10 2 0 4
-4 4 -10z m-39 -28 c-7 -2 -18 1 -23 6 -8 8 -4 9 13 5 13 -4 18 -8 10 -11z
m81 -4 c-2 -10 -9 -18 -15 -18 -6 0 -7 3 -4 7 4 3 3 11 -3 17 -6 8 -3 12 9 12
12 0 17 -6 13 -18z m68 -15 c0 -3 -7 -2 -16 1 -11 4 -15 2 -11 -8 4 -10 1 -13
-9 -9 -11 4 -12 9 -4 19 10 11 40 9 40 -3z m-116 -15 c-5 -7 -2 -9 7 -6 10 4
15 -1 15 -12 0 -11 -5 -16 -15 -12 -10 4 -12 1 -6 -8 5 -8 4 -11 -2 -7 -5 3
-9 16 -7 29 3 28 3 28 10 28 3 0 2 -5 -2 -12z m76 -13 c0 -1 -6 -7 -13 -13
-10 -8 -13 -6 -13 7 0 11 6 17 13 14 7 -3 13 -6 13 -8z m16 -34 c0 -16 -3 -17
-14 -9 -12 10 -7 19 13 28 1 0 1 -9 1 -19z m-43 -20 c3 -13 0 -18 -7 -15 -7 3
-13 11 -13 19 0 22 14 18 20 -4z m-82 -14 c-7 -7 -7 -17 0 -31 9 -19 9 -19 -4
-4 -8 10 -17 15 -20 11 -4 -3 -7 -1 -7 5 0 7 5 12 11 12 5 0 8 4 5 8 -3 5 2 9
10 9 10 0 11 -4 5 -10z m59 -19 c0 -4 -4 -8 -9 -8 -6 0 -12 4 -15 8 -3 5 1 9
9 9 8 0 15 -4 15 -9z m77 -3 c5 -4 2 -5 -6 0 -11 6 -13 4 -8 -8 4 -10 2 -14
-7 -11 -17 6 -16 32 0 30 8 -1 17 -6 21 -11z m-112 -35 c-3 -5 -12 -10 -18
-10 -7 0 -6 4 3 10 19 12 23 12 15 0z m35 -63 c-8 -9 -9 -7 -4 7 5 13 4 17 -4
12 -6 -3 -14 -1 -18 5 -4 8 -3 9 4 5 7 -4 12 -1 12 6 0 8 5 5 11 -5 8 -14 8
-22 -1 -30z m-64 8 c1 -8 -5 -20 -14 -27 -15 -11 -15 -11 -6 2 6 8 10 23 8 33
-1 11 0 16 4 13 3 -4 7 -13 8 -21z m121 5 c-2 -11 -9 -26 -17 -33 -10 -10 -11
-9 -4 3 9 15 10 20 13 40 0 6 3 10 6 10 3 0 3 -9 2 -20z m-77 -30 c0 -4 -7
-13 -15 -20 -13 -11 -14 -10 -9 5 6 14 4 16 -6 10 -8 -5 -11 -4 -7 2 7 11 37
13 37 3z m34 -22 c-5 -7 -2 -9 9 -5 10 4 14 2 11 -7 -7 -18 -32 -16 -29 3 5
22 4 21 11 21 3 0 2 -5 -2 -12z m-74 -17 c0 -6 -4 -12 -8 -15 -5 -3 -9 1 -9 9
0 8 4 15 9 15 4 0 8 -4 8 -9z m128 -33 c-2 -6 -12 -12 -21 -14 -9 -1 -15 2
-11 7 3 5 10 7 15 4 5 -4 9 -1 9 4 0 6 3 11 6 11 3 0 4 -5 2 -12z m-114 -54
c3 -8 2 -12 -4 -9 -6 3 -10 10 -10 16 0 14 7 11 14 -7z m-21 -7 c3 -8 -1 -14
-8 -14 -7 0 -11 6 -8 14 3 7 6 13 8 13 2 0 5 -6 8 -13z m51 -29 c-3 -4 -9 -8
-15 -8 -5 0 -9 4 -9 8 0 5 7 9 15 9 8 0 12 -4 9 -9z m-50 -20 c-5 -8 -2 -9 11
-4 18 6 18 6 2 -12 -9 -10 -15 -21 -12 -24 3 -3 -2 -11 -12 -19 -15 -12 -16
-12 -7 1 5 8 10 26 10 40 2 29 2 30 10 30 3 0 2 -5 -2 -12z m86 -20 c0 -4 -4
-8 -9 -8 -6 0 -12 4 -15 8 -3 5 1 9 9 9 8 0 15 -4 15 -9z m-32 -32 c-10 -7
-15 -15 -12 -18 2 -3 -2 -8 -10 -11 -11 -4 -13 -1 -9 10 5 12 3 14 -7 8 -9 -5
-11 -4 -6 4 4 6 11 9 15 7 4 -3 13 -1 21 5 22 13 27 10 8 -5z m67 -16 c-3 -5
1 -10 7 -13 7 -3 3 -4 -8 -4 -15 1 -20 6 -16 16 4 10 1 12 -8 6 -8 -5 -11 -4
-6 3 4 6 13 9 21 6 8 -4 13 -10 10 -14z m-39 -25 c-1 -8 -5 -17 -8 -21 -5 -4
-4 16 1 34 3 9 9 -1 7 -13z m-76 -4 c0 -6 -4 -12 -8 -15 -5 -3 -9 1 -9 9 0 8
4 15 9 15 4 0 8 -4 8 -9z m43 -28 c-5 -12 -3 -14 8 -8 8 5 11 4 6 0 -12 -14
-37 -15 -34 -2 2 10 17 26 24 27 1 0 -1 -7 -4 -17z m73 -36 c1 -9 -2 -15 -7
-11 -5 3 -6 10 -3 16 5 8 1 9 -10 5 -11 -4 -15 -3 -11 4 10 14 28 6 31 -14z
m-103 -21 c4 -11 1 -13 -10 -9 -12 5 -14 3 -8 -7 5 -9 4 -11 -4 -6 -9 6 -9 11
0 22 14 17 16 17 22 0z m63 -1 c-1 -8 -6 -18 -11 -22 -4 -5 -5 -2 0 6 6 11 4
13 -10 7 -15 -5 -16 -4 -5 9 16 19 29 19 26 0z m-36 -35 c0 -5 -4 -10 -10 -10
-5 0 -10 5 -10 10 0 6 5 10 10 10 6 0 10 -4 10 -10z m-48 -29 c-5 -14 -4 -14
14 -1 18 14 18 14 1 -6 -9 -11 -15 -23 -12 -26 3 -3 -3 -11 -12 -19 -16 -12
-17 -12 -6 1 13 18 14 29 3 51 -6 11 -5 16 5 16 8 0 11 -7 7 -16z m90 1 c-4
-11 -1 -13 9 -7 8 4 11 5 7 1 -3 -4 -9 -6 -12 -4 -3 2 -12 -6 -21 -17 -14 -19
-15 -19 -8 -1 5 14 3 17 -7 11 -9 -5 -11 -4 -6 4 4 6 12 8 18 5 7 -5 9 -2 6 8
-4 8 -1 15 7 15 8 0 11 -7 7 -15z m45 -24 c-3 -8 -6 -5 -6 6 -1 11 2 17 5 13
3 -3 4 -12 1 -19z m-87 -28 c0 -4 -7 -13 -15 -20 -13 -11 -14 -10 -9 5 6 14 4
16 -6 10 -8 -5 -11 -4 -7 2 7 11 37 13 37 3z m85 1 c-9 -8 -36 -10 -30 -2 2 4
11 8 20 8 8 0 13 -3 10 -6z m-51 -23 c-5 -7 -2 -9 9 -5 10 4 14 2 11 -7 -7
-18 -32 -16 -29 3 5 22 4 21 11 21 3 0 2 -5 -2 -12z m-64 -18 c8 -5 11 -10 5
-10 -5 0 -17 5 -25 10 -8 5 -10 10 -5 10 6 0 17 -5 25 -10z m118 -51 c3 -12 2
-12 -6 0 -6 8 -15 10 -22 6 -9 -5 -11 -4 -6 4 10 15 28 10 34 -10z m-31 -31
c-3 -8 -6 -5 -6 6 -1 11 2 17 5 13 3 -3 4 -12 1 -19z m-301 -33 c-1 -8 -6 -18
-11 -22 -4 -4 -5 -2 -1 5 4 7 2 12 -6 12 -9 0 -9 3 2 10 19 12 19 13 16 -5z
m41 9 c-3 -3 -12 -4 -19 -1 -8 3 -5 6 6 6 11 1 17 -2 13 -5z m90 0 c-3 -3 -12
-4 -19 -1 -8 3 -5 6 6 6 11 1 17 -2 13 -5z m-47 -16 c0 -4 -4 -8 -9 -8 -6 0
-12 4 -15 8 -3 5 1 9 9 9 8 0 15 -4 15 -9z m-35 -30 c5 4 5 1 1 -5 -11 -20
-23 -15 -29 10 -5 20 -5 20 7 5 7 -10 17 -14 21 -10z m77 0 c-6 -23 -16 -23
-33 0 -13 16 -13 16 5 2 18 -13 19 -13 14 1 -4 9 -1 16 7 16 7 0 10 -8 7 -19z
m33 -27 c3 -6 -3 -14 -13 -20 -14 -7 -19 -6 -19 4 0 7 7 11 15 7 10 -3 13 -1
8 6 -4 7 -5 12 -2 12 3 0 7 -4 11 -9z m-70 -21 c6 -1 12 -4 15 -7 3 -4 -1 -2
-9 2 -11 6 -13 4 -8 -8 4 -11 2 -14 -8 -10 -8 3 -12 10 -8 16 4 6 0 8 -9 5 -8
-4 -15 0 -15 7 0 10 5 11 16 5 9 -4 21 -9 26 -10z m-68 -5 c5 -4 2 -5 -6 0
-11 6 -13 4 -8 -11 7 -18 6 -18 -6 -2 -8 10 -18 14 -22 10 -5 -4 -5 -2 -2 5 8
12 32 12 44 -2z m143 -9 c0 -2 -7 -7 -16 -10 -8 -3 -12 -2 -9 4 6 10 25 14 25
6z m-267 -29 c3 -8 -1 -14 -8 -14 -7 0 -11 6 -8 14 3 7 6 13 8 13 2 0 5 -6 8
-13z m147 4 c0 -6 -4 -12 -8 -15 -5 -3 -9 1 -9 9 0 8 4 15 9 15 4 0 8 -4 8 -9z
m85 -1 c3 -6 -1 -7 -9 -4 -18 7 -21 14 -7 14 6 0 13 -4 16 -10z m2305 -160 c0
-5 -4 -10 -10 -10 -5 0 -10 5 -10 10 0 6 5 10 10 10 6 0 10 -4 10 -10z m5 -71
c-4 -5 -12 -9 -18 -8 -9 0 -8 2 1 6 6 2 9 10 6 15 -4 7 -2 8 5 4 6 -4 9 -12 6
-17z m52 5 c-3 -3 -12 -4 -19 -1 -8 3 -5 6 6 6 11 1 17 -2 13 -5z m76 -7 c3
-8 -1 -14 -9 -14 -7 0 -11 4 -8 8 2 4 -2 10 -8 12 -8 4 -7 6 3 6 9 1 19 -5 22
-12z m-128 -35 c-3 -3 -11 0 -18 7 -9 10 -8 11 6 5 10 -3 15 -9 12 -12z m82
-7 c0 -22 -14 -18 -20 4 -3 13 0 18 7 15 7 -3 13 -11 13 -19z m39 -14 c-4 -5
-2 -11 4 -13 6 -2 2 -8 -9 -15 -15 -10 -20 -9 -25 2 -3 9 0 12 10 8 8 -3 14
-2 13 3 -2 14 0 24 7 24 3 0 3 -4 0 -9z m-84 -20 c-5 -13 -3 -14 9 -4 12 10
15 8 15 -6 0 -12 -5 -17 -15 -13 -10 4 -12 1 -6 -9 4 -8 6 -12 2 -9 -3 3 -6
10 -7 15 -1 6 -6 17 -10 26 -6 11 -5 16 5 16 8 0 11 -7 7 -16z m94 -41 c0 -12
-4 -16 -9 -11 -5 5 -6 14 -3 20 10 15 12 14 12 -9z m-43 -19 c3 -13 1 -18 -9
-14 -7 2 -10 11 -7 19 7 19 10 18 16 -5z m-78 -32 c0 -32 -11 -29 -17 4 -3 13
0 24 6 24 6 0 11 -13 11 -28z m142 15 c-3 -3 -12 -4 -19 -1 -8 3 -5 6 6 6 11
1 17 -2 13 -5z m-32 -14 c3 -5 1 -10 -4 -10 -6 0 -11 5 -11 10 0 6 2 10 4 10
3 0 8 -4 11 -10z m-32 -30 c-6 -21 -25 -28 -20 -7 2 10 16 26 24 27 0 0 -1 -9
-4 -20z m-1886 4 c-3 -3 -12 -4 -19 -1 -8 3 -5 6 6 6 11 1 17 -2 13 -5z m240
0 c-3 -3 -12 -4 -19 -1 -8 3 -5 6 6 6 11 1 17 -2 13 -5z m210 0 c-3 -3 -12 -4
-19 -1 -8 3 -5 6 6 6 11 1 17 -2 13 -5z m190 0 c-3 -3 -12 -4 -19 -1 -8 3 -5
6 6 6 11 1 17 -2 13 -5z m240 0 c-3 -3 -12 -4 -19 -1 -8 3 -5 6 6 6 11 1 17
-2 13 -5z m240 0 c-3 -3 -12 -4 -19 -1 -8 3 -5 6 6 6 11 1 17 -2 13 -5z m240
0 c-3 -3 -12 -4 -19 -1 -8 3 -5 6 6 6 11 1 17 -2 13 -5z m240 0 c-3 -3 -12 -4
-19 -1 -8 3 -5 6 6 6 11 1 17 -2 13 -5z m-1574 -19 c-3 -9 -8 -14 -10 -11 -3
3 -2 9 2 15 9 16 15 13 8 -4z m240 0 c-3 -9 -8 -14 -10 -11 -3 3 -2 9 2 15 9
16 15 13 8 -4z m138 2 c-6 -8 -8 -17 -4 -20 3 -4 1 -7 -5 -7 -15 0 -15 13 0
28 16 16 23 15 9 -1z m262 -2 c-3 -9 -8 -14 -10 -11 -3 3 -2 9 2 15 9 16 15
13 8 -4z m240 0 c-3 -9 -8 -14 -10 -11 -3 3 -2 9 2 15 9 16 15 13 8 -4z m240
0 c-3 -9 -8 -14 -10 -11 -3 3 -2 9 2 15 9 16 15 13 8 -4z m240 0 c-3 -9 -8
-14 -10 -11 -3 3 -2 9 2 15 9 16 15 13 8 -4z m240 0 c-3 -9 -8 -14 -10 -11 -3
3 -2 9 2 15 9 16 15 13 8 -4z m177 0 c0 -1 -9 -5 -19 -8 -13 -3 -18 -1 -14 9
4 10 33 10 33 -1z m-1845 -14 c3 -6 -3 -14 -13 -20 -14 -7 -19 -6 -19 4 0 7 7
11 15 7 10 -3 13 -1 8 6 -4 7 -5 12 -2 12 3 0 7 -4 11 -9z m241 -16 c3 -19
-10 -19 -26 0 -11 13 -10 14 5 9 14 -6 16 -4 10 7 -5 8 -4 11 0 6 5 -4 10 -14
11 -22z m247 5 c-6 -22 -18 -26 -29 -8 -4 6 -3 8 3 5 6 -4 13 0 17 8 8 22 15
18 9 -5z m44 14 c-3 -3 -12 -4 -19 -1 -8 3 -5 6 6 6 11 1 17 -2 13 -5z m109
-19 c2 -12 -2 -12 -17 -5 -23 13 -25 22 -2 13 12 -5 14 -3 8 8 -5 8 -4 11 0 6
5 -4 10 -14 11 -22z m238 16 c3 -5 0 -14 -8 -20 -10 -9 -15 -8 -19 3 -4 11 -1
13 10 9 11 -4 14 -2 9 5 -4 7 -5 12 -2 12 3 0 7 -4 10 -9z m238 -8 c1 -4 8
-14 17 -21 14 -11 14 -11 -3 -5 -15 5 -17 3 -11 -8 4 -8 5 -11 1 -7 -4 3 -8
10 -8 15 -1 4 -8 14 -17 21 -14 11 -14 11 3 5 15 -5 17 -3 11 8 -4 8 -5 11 -1
7 4 -3 8 -10 8 -15z m242 8 c3 -5 0 -14 -8 -20 -10 -9 -15 -8 -19 3 -4 11 -1
13 10 9 11 -4 14 -2 9 5 -4 7 -5 12 -2 12 3 0 7 -4 10 -9z m242 -16 c2 -12 -2
-12 -17 -5 -23 13 -25 22 -2 13 12 -5 14 -3 8 8 -5 8 -4 11 0 6 5 -4 10 -14
11 -22z m208 -2 c11 -13 16 -23 13 -23 -10 0 -37 31 -37 42 0 6 1 9 3 7 1 -2
11 -14 21 -26z m70 15 c-5 -7 -2 -9 8 -6 8 4 15 0 15 -8 0 -7 -5 -10 -10 -7
-6 4 -8 0 -4 -10 3 -10 4 -17 1 -17 -2 0 -8 10 -13 23 -8 21 -6 37 5 37 3 0 2
-5 -2 -12z m92 -17 c1 -14 -1 -20 -3 -13 -3 6 -8 10 -13 7 -4 -3 -14 3 -21 13
-13 16 -13 16 5 2 18 -13 19 -13 14 1 -3 9 -1 16 5 16 7 0 13 -12 13 -26z
m-2014 -9 c3 -11 0 -19 -7 -19 -7 0 -10 8 -7 19 2 10 6 18 7 18 1 0 5 -8 7
-18z m197 4 c9 -11 9 -16 0 -22 -8 -5 -9 -3 -4 6 6 10 4 12 -8 7 -11 -4 -14
-2 -10 9 6 17 8 17 22 0z m152 -18 c-10 -11 -11 -9 -5 6 6 15 4 17 -6 11 -9
-6 -11 -4 -5 4 5 9 10 10 18 2 8 -8 7 -14 -2 -23z m88 18 c9 -11 9 -16 0 -22
-8 -5 -9 -3 -4 6 6 10 4 12 -8 7 -11 -4 -14 -2 -10 9 6 17 8 17 22 0z m368 -5
c0 -11 -5 -18 -9 -15 -4 3 -5 11 -1 19 7 21 12 19 10 -4z m20 -3 c-3 -8 -6 -5
-6 6 -1 11 2 17 5 13 3 -3 4 -12 1 -19z m409 10 c4 -7 3 -8 -4 -4 -7 4 -12 2
-12 -5 0 -7 -3 -10 -6 -6 -6 5 3 27 11 27 2 0 7 -5 11 -12z m531 -7 c0 -11 -5
-18 -9 -15 -4 3 -5 11 -1 19 7 21 12 19 10 -4z m20 -3 c-3 -8 -6 -5 -6 6 -1
11 2 17 5 13 3 -3 4 -12 1 -19z m-1702 3 c3 -5 0 -13 -6 -17 -8 -5 -9 -3 -4 6
6 10 4 12 -9 7 -10 -4 -15 -3 -11 3 8 13 22 13 30 1z m809 -7 c3 -8 2 -12 -4
-9 -6 3 -10 10 -10 16 0 14 7 11 14 -7z m72 -2 c-3 -3 0 -12 6 -21 10 -13 10
-14 -2 -4 -16 15 -23 46 -8 37 5 -3 7 -9 4 -12z m484 -2 c0 -5 -4 -10 -10 -10
-5 0 -10 5 -10 10 0 6 5 10 10 10 6 0 10 -4 10 -10z m-1306 -14 c-3 -9 -12
-12 -22 -9 -15 6 -9 11 25 22 1 1 0 -5 -3 -13z m114 0 c-10 -7 -14 -17 -10
-21 4 -5 1 -5 -5 -1 -18 10 -16 24 5 29 27 7 28 7 10 -7z m240 0 c-10 -7 -14
-17 -10 -21 4 -5 1 -5 -5 -1 -18 10 -16 24 5 29 27 7 28 7 10 -7z m632 -7 c0
-4 -6 -11 -12 -15 -7 -4 -10 -4 -6 1 4 4 0 14 -10 21 -15 12 -15 12 6 7 12 -3
22 -9 22 -14z m-1083 -4 c0 -8 -6 -16 -13 -19 -7 -3 -10 2 -7 15 6 22 20 26
20 4z m114 -8 c-10 -9 -11 -8 -5 6 3 10 9 15 12 12 3 -3 0 -11 -7 -18z m169
13 c0 -4 -7 -13 -15 -20 -13 -11 -14 -10 -9 5 6 14 4 16 -6 10 -8 -5 -11 -4
-7 2 7 11 37 13 37 3z m80 2 c0 -5 -7 -9 -15 -9 -8 0 -12 4 -9 9 3 4 9 8 15 8
5 0 9 -4 9 -8z m157 -16 c0 -7 -6 -13 -13 -13 -7 0 -10 7 -6 15 4 11 1 13 -8
7 -8 -5 -11 -4 -6 3 8 14 33 5 33 -12z m286 5 c3 -13 1 -18 -9 -14 -7 2 -10
11 -7 19 7 19 10 18 16 -5z m90 5 c4 -10 0 -12 -15 -8 -15 4 -17 7 -6 13 17
11 15 11 21 -5z m121 6 c3 -5 -1 -9 -9 -9 -8 0 -12 4 -9 9 3 4 7 8 9 8 2 0 6
-4 9 -8z m146 -24 c0 -19 -16 -5 -17 14 -2 18 0 20 7 8 5 -8 10 -18 10 -22z
m603 13 c3 -13 1 -18 -9 -14 -7 2 -10 11 -7 19 7 19 10 18 16 -5z m80 0 c3
-13 1 -18 -9 -14 -7 2 -10 11 -7 19 7 19 10 18 16 -5z m91 3 c3 -7 -2 -10 -15
-7 -22 6 -26 20 -4 20 8 0 16 -6 19 -13z m-1772 -26 c-2 -10 -6 -18 -7 -18 -1
0 -5 8 -7 18 -3 11 0 19 7 19 7 0 10 -8 7 -19z m152 10 c-5 -7 -2 -9 9 -5 10
4 14 2 11 -7 -7 -18 -32 -16 -29 3 5 22 4 21 11 21 3 0 2 -5 -2 -12z m363 5
c-4 -3 -1 -13 6 -22 11 -14 10 -14 -5 -2 -21 15 -23 31 -6 31 6 0 8 -3 5 -7z
m960 0 c-4 -3 -1 -13 6 -22 11 -14 10 -14 -5 -2 -21 15 -23 31 -6 31 6 0 8 -3
5 -7z m246 -4 c-6 -6 -9 -19 -6 -28 5 -13 3 -14 -7 -4 -11 10 -11 15 0 28 7 8
15 15 18 15 3 0 1 -5 -5 -11z m-1947 -14 c-1 -8 -5 -17 -8 -21 -5 -4 -4 16 1
34 3 9 9 -1 7 -13z m202 -16 c-3 -8 -7 -3 -11 10 -4 17 -3 21 5 13 5 -5 8 -16
6 -23z m804 17 c7 4 8 2 4 -5 -9 -13 -26 -5 -25 12 0 9 2 8 6 -1 2 -6 10 -9
15 -6z m98 -7 c0 -5 -4 -9 -8 -9 -5 0 -9 7 -9 15 0 8 4 12 9 9 4 -3 8 -9 8
-15z m758 -4 c-3 -3 -9 2 -12 12 -6 14 -5 15 5 6 7 -7 10 -15 7 -18z m-1744 3
c-3 -4 -11 -5 -19 -1 -21 7 -19 12 4 10 11 0 18 -5 15 -9z m426 2 c0 -5 -4
-10 -10 -10 -5 0 -10 5 -10 10 0 6 5 10 10 10 6 0 10 -4 10 -10z m1474 -6 c3
-8 2 -12 -4 -9 -6 3 -10 10 -10 16 0 14 7 11 14 -7z m-1747 -10 c-3 -3 -12 -4
-19 -1 -8 3 -5 6 6 6 11 1 17 -2 13 -5z m413 -4 c0 -5 -2 -10 -4 -10 -3 0 -8
5 -11 10 -3 6 -1 10 4 10 6 0 11 -4 11 -10z m120 0 c0 -5 -2 -10 -4 -10 -3 0
-8 5 -11 10 -3 6 -1 10 4 10 6 0 11 -4 11 -10z m840 0 c0 -5 -2 -10 -4 -10 -3
0 -8 5 -11 10 -3 6 -1 10 4 10 6 0 11 -4 11 -10z m120 0 c0 -5 -2 -10 -4 -10
-3 0 -8 5 -11 10 -3 6 -1 10 4 10 6 0 11 -4 11 -10z"/>
<path d="M3870 3842 c0 -5 7 -9 15 -9 8 0 15 4 15 9 0 4 -7 8 -15 8 -8 0 -15
-4 -15 -8z"/>
<path d="M3910 3839 c0 -6 -8 -23 -19 -37 -10 -15 -18 -35 -18 -45 0 -15 2
-15 16 -3 11 10 21 12 31 6 21 -13 27 -12 27 5 0 10 -6 13 -17 10 -17 -5 -37
21 -25 33 3 3 5 0 5 -7 0 -7 4 -10 9 -7 5 3 9 17 9 31 0 14 -4 25 -9 25 -5 0
-9 -5 -9 -11z"/>
<path d="M3936 3833 c-3 -8 -1 -11 4 -8 15 9 12 -6 -6 -26 -14 -15 -14 -17 3
-15 11 0 18 -6 18 -19 0 -12 -7 -20 -17 -20 -20 0 -70 -52 -57 -60 5 -4 14 5
20 19 7 14 16 23 22 19 5 -3 4 -9 -4 -14 -7 -4 -10 -11 -6 -16 9 -8 28 17 21
28 -2 4 9 12 24 18 16 7 28 20 29 32 1 12 -2 17 -9 13 -7 -4 -8 -2 -4 4 5 8 1
10 -10 5 -12 -4 -15 -2 -12 8 3 8 13 13 22 11 14 -3 15 0 5 16 -14 22 -36 25
-43 5z"/>
<path d="M3982 3838 c2 -6 11 -13 19 -16 11 -3 11 -1 -1 8 -12 9 -12 11 -1 8
19 -5 24 -44 8 -60 -14 -13 -17 -21 -17 -39 0 -5 -4 -8 -9 -4 -10 6 -41 -21
-41 -35 0 -17 16 -17 45 1 17 11 23 19 15 19 -12 0 -12 2 -2 9 8 4 13 11 13
15 -3 19 0 27 7 22 4 -2 9 14 9 38 1 38 -1 42 -24 44 -15 1 -23 -3 -21 -10z
m-3 -129 c-22 -13 -31 -11 -17 5 7 8 17 12 22 9 4 -3 2 -9 -5 -14z"/>
<path d="M3990 3800 c0 -5 5 -10 10 -10 6 0 10 5 10 10 0 6 -4 10 -10 10 -5 0
-10 -4 -10 -10z"/>
<path d="M4055 3671 c-3 -5 -2 -12 3 -15 5 -3 9 1 9 9 0 17 -3 19 -12 6z"/>
<path d="M4135 3671 c-3 -5 -2 -12 3 -15 5 -3 9 1 9 9 0 17 -3 19 -12 6z"/>
<path d="M4114 3658 c4 -13 0 -17 -16 -15 -13 1 -22 -4 -23 -15 -2 -10 1 -18
7 -18 6 0 7 7 4 16 -4 12 -1 14 13 9 24 -7 33 6 19 25 -8 12 -9 12 -4 -2z"/>
<path d="M4190 3659 c0 -5 5 -7 10 -4 6 3 10 8 10 11 0 2 -4 4 -10 4 -5 0 -10
-5 -10 -11z"/>
<path d="M4155 3639 c-11 -16 -1 -19 13 -3 7 8 8 14 3 14 -5 0 -13 -5 -16 -11z"/>
<path d="M4190 3631 c0 -7 -5 -9 -12 -5 -7 5 -8 3 -3 -5 5 -9 10 -10 18 -2 6
6 8 14 4 18 -4 3 -7 1 -7 -6z"/>
<path d="M4100 3605 c0 -8 29 -12 39 -5 9 5 4 8 -13 8 -14 0 -26 -2 -26 -3z"/>
<path d="M4167 3599 c7 -7 15 -10 18 -7 3 3 -2 9 -12 12 -14 6 -15 5 -6 -5z"/>
<path d="M4136 3581 c-4 -5 -1 -13 5 -17 8 -4 9 -3 5 4 -4 7 -3 12 3 12 5 0
12 -5 14 -10 3 -6 4 -5 3 2 -3 16 -23 22 -30 9z"/>
<path d="M4095 3560 c-3 -6 1 -7 10 -4 11 5 14 2 9 -12 -5 -15 -4 -16 4 -4 11
15 7 30 -8 30 -5 0 -12 -4 -15 -10z"/>
<path d="M4195 3561 c-3 -5 -2 -12 3 -15 5 -3 9 1 9 9 0 17 -3 19 -12 6z"/>
<path d="M4150 3538 c0 -6 7 -7 16 -4 13 5 15 2 11 -14 -6 -24 10 -37 26 -21
9 9 8 11 -4 6 -11 -4 -15 0 -15 16 1 13 -6 23 -16 24 -10 2 -18 -1 -18 -7z"/>
<path d="M4133 3524 c3 -23 37 -63 37 -44 0 6 -7 13 -15 16 -8 4 -13 9 -11 13
3 4 0 13 -5 21 -7 12 -8 10 -6 -6z"/>
<path d="M4050 3525 c0 -8 29 -12 39 -5 9 5 4 8 -13 8 -14 0 -26 -2 -26 -3z"/>
<path d="M4102 3497 c10 -8 16 -16 13 -18 -2 -3 6 -6 18 -6 23 -2 15 6 -28 28
-18 9 -19 9 -3 -4z"/>
<path d="M4077 3483 c-12 -12 -7 -21 16 -26 20 -5 20 -5 5 7 -10 7 -15 16 -11
19 3 4 4 7 1 7 -2 0 -8 -3 -11 -7z"/>
<path d="M4175 3460 c-3 -5 -3 -10 2 -11 4 -1 -3 -5 -17 -9 -25 -8 -25 -8 -2
-9 15 -1 21 -5 16 -13 -4 -6 -3 -8 4 -4 6 3 9 16 7 27 -3 15 0 19 11 15 9 -3
12 -1 9 4 -8 13 -22 13 -30 0z"/>
<path d="M1796 3449 c3 -5 11 -7 17 -3 7 3 5 0 -3 -8 -16 -14 -24 -52 -9 -42
5 3 9 0 9 -5 0 -6 -6 -11 -12 -11 -9 0 -8 -4 2 -10 13 -9 13 -10 0 -10 -12 0
-12 -2 -1 -9 8 -5 9 -11 3 -15 -15 -9 -8 -41 9 -42 8 0 20 4 27 9 7 6 12 6 12
0 0 -5 7 -10 16 -10 15 0 15 2 -1 13 -10 8 -14 18 -9 26 6 10 5 11 -7 1 -9 -8
-20 -9 -29 -3 -13 9 -13 10 0 10 9 0 11 3 5 8 -18 13 -15 31 5 27 13 -3 18 2
17 15 -1 11 -7 22 -14 24 -7 3 -10 -1 -7 -12 4 -14 3 -13 -6 2 -17 25 9 43 28
19 6 -9 12 -13 12 -7 0 20 -19 37 -44 39 -14 2 -24 -1 -20 -6z m23 -132 c8
-10 7 -14 -2 -14 -8 0 -14 6 -14 14 0 7 1 13 2 13 2 0 8 -6 14 -13z"/>
<path d="M4117 3447 c-3 -8 -2 -20 3 -26 5 -9 8 -4 8 13 0 29 -3 32 -11 13z"/>
<path d="M1865 3414 c-9 -15 -12 -23 -6 -20 6 4 11 3 11 -2 0 -13 -26 -33 -33
-26 -3 4 -5 -3 -4 -14 1 -15 5 -18 13 -11 7 5 16 8 20 7 5 -2 9 2 9 7 0 6 -4
9 -8 7 -5 -1 -6 2 -3 7 4 5 15 8 26 6 13 -3 18 2 17 16 -1 10 -5 19 -10 19 -4
0 -6 4 -2 9 3 5 1 12 -4 15 -5 3 -17 -6 -26 -20z"/>
<path d="M1910 3420 c0 -5 6 -10 13 -10 8 0 7 -4 -3 -10 -13 -8 -13 -10 0 -10
11 0 11 -3 2 -12 -7 -7 -12 -16 -12 -22 0 -5 3 -6 7 -3 3 4 12 2 19 -4 8 -7
14 -7 19 1 3 5 0 13 -8 16 -16 6 -17 20 -3 43 6 10 5 12 -2 7 -7 -4 -12 -2
-12 3 0 6 -4 11 -10 11 -5 0 -10 -4 -10 -10z"/>
<path d="M4070 3421 c8 -5 18 -7 24 -4 5 4 7 -1 3 -10 -3 -10 -2 -17 4 -17 22
0 3 33 -21 37 -18 2 -21 1 -10 -6z"/>
<path d="M4052 3393 c2 -9 14 -18 28 -20 18 -2 21 -1 10 6 -8 5 -18 7 -24 4
-5 -4 -7 1 -3 10 3 10 2 17 -4 17 -6 0 -9 -7 -7 -17z"/>
<path d="M4140 3394 c0 -9 -5 -12 -12 -8 -7 5 -8 3 -3 -6 6 -10 11 -10 20 3 7
9 16 13 20 9 5 -4 5 -1 1 6 -10 17 -26 15 -26 -4z"/>
<path d="M4175 3380 c-7 -11 22 -26 32 -16 4 3 -1 6 -11 6 -9 0 -14 5 -11 10
3 6 4 10 1 10 -3 0 -8 -5 -11 -10z"/>
<path d="M4101 3360 c-9 -5 -4 -7 13 -7 29 0 32 2 13 10 -8 3 -20 2 -26 -3z"/>
<path d="M4153 3355 c0 -8 4 -12 9 -9 5 3 6 10 3 15 -9 13 -12 11 -12 -6z"/>
<path d="M1877 3335 c-13 -9 -15 -15 -6 -20 6 -4 14 -3 18 2 3 6 16 9 28 8 12
-1 19 3 17 10 -6 15 -36 16 -57 0z"/>
<path d="M4050 3344 c0 -2 9 -8 20 -14 11 -6 20 -7 20 -2 0 6 -9 12 -20 15
-11 3 -20 3 -20 1z"/>
<path d="M4174 3335 c-4 -8 -10 -12 -15 -9 -5 3 -9 0 -9 -5 0 -16 20 -13 26 3
3 8 12 12 20 9 8 -3 14 -3 14 0 0 13 -31 15 -36 2z"/>
<path d="M4113 3320 c1 -14 6 -23 10 -20 5 3 13 -3 18 -12 6 -10 15 -18 20
-18 6 0 4 7 -5 15 -8 9 -19 15 -23 15 -4 -1 -11 9 -15 22 -7 22 -7 22 -5 -2z"/>
<path d="M4047 3319 c7 -7 15 -10 18 -7 3 3 -2 9 -12 12 -14 6 -15 5 -6 -5z"/>
<path d="M4175 3300 c-7 -11 22 -26 32 -16 4 3 -1 6 -11 6 -9 0 -14 5 -11 10
3 6 4 10 1 10 -3 0 -8 -5 -11 -10z"/>
<path d="M2233 3282 c0 -12 5 -22 9 -22 11 0 10 12 -2 30 -7 12 -9 10 -7 -8z"/>
<path d="M3190 3287 c0 -10 8 -17 18 -17 9 0 13 4 7 8 -5 4 -13 11 -17 16 -5
5 -8 2 -8 -7z"/>
<path d="M3540 3294 c0 -5 7 -18 15 -28 8 -11 15 -16 15 -10 0 5 -7 18 -15 28
-8 11 -15 16 -15 10z"/>
<path d="M3850 3282 c11 -21 9 -23 -12 -20 -18 2 -23 -2 -24 -20 -1 -13 7 -27
17 -33 13 -6 19 -6 19 1 0 5 -6 10 -13 10 -7 0 -13 8 -14 19 -1 13 3 17 17 14
25 -7 32 10 14 33 -14 18 -14 18 -4 -4z"/>
<path d="M4071 3293 c-1 -18 13 -23 29 -11 12 8 12 9 -2 5 -9 -3 -19 -1 -22 6
-3 9 -5 9 -5 0z"/>
<path d="M1635 3281 c-6 -11 9 -23 19 -14 9 9 7 23 -3 23 -6 0 -12 -4 -16 -9z"/>
<path d="M1655 3264 c-11 -12 -21 -28 -23 -35 -1 -8 9 -1 23 15 17 18 37 29
56 30 16 0 29 4 29 8 0 16 -66 3 -85 -18z"/>
<path d="M1748 3272 c-5 -16 -1 -20 13 -17 11 2 17 0 14 -5 -3 -4 -13 -7 -23
-5 -18 3 -42 -12 -42 -26 0 -5 11 -2 25 7 14 9 25 13 25 9 0 -4 6 -2 14 4 8 7
14 21 13 32 -1 21 -17 27 -17 7 0 -10 -2 -10 -9 0 -6 11 -9 9 -13 -6z"/>
<path d="M2490 3280 c0 -5 5 -10 11 -10 5 0 7 5 4 10 -3 6 -8 10 -11 10 -2 0
-4 -4 -4 -10z"/>
<path d="M2845 3279 c-4 -6 -5 -12 -2 -15 2 -3 7 2 10 11 7 17 1 20 -8 4z"/>
<path d="M2980 3280 c0 -5 5 -10 11 -10 5 0 7 5 4 10 -3 6 -8 10 -11 10 -2 0
-4 -4 -4 -10z"/>
<path d="M3360 3280 c-9 -6 -10 -10 -3 -10 6 0 15 5 18 10 8 12 4 12 -15 0z"/>
<path d="M2015 3271 c-3 -5 0 -13 6 -17 7 -4 9 -3 5 4 -3 5 0 13 6 15 9 4 10
6 1 6 -6 1 -14 -3 -18 -8z"/>
<path d="M2453 3270 c2 -8 10 -14 16 -12 14 3 15 -15 1 -21 -6 -3 -5 -4 2 -3
14 3 18 26 4 25 -5 0 -13 5 -18 13 -8 10 -9 10 -5 -2z"/>
<path d="M2735 3270 c-7 -12 19 -24 37 -17 7 3 3 6 -10 6 -13 1 -20 5 -17 11
3 6 4 10 1 10 -3 0 -8 -5 -11 -10z"/>
<path d="M3491 3273 c-1 -17 16 -25 25 -12 4 7 3 9 -4 5 -5 -3 -13 0 -15 6 -4
9 -6 10 -6 1z"/>
<path d="M3780 3271 c0 -7 -4 -9 -10 -6 -5 3 -15 -5 -21 -19 -7 -14 -16 -23
-22 -19 -6 4 -7 1 -2 -7 6 -10 11 -9 22 5 7 11 13 23 13 28 0 4 4 6 9 2 11 -6
26 13 17 22 -3 4 -6 1 -6 -6z"/>
<path d="M1707 3257 c4 -6 0 -8 -9 -4 -22 8 -45 -22 -44 -58 1 -26 5 -30 31
-31 47 -2 51 -4 35 -15 -13 -9 -13 -10 0 -6 8 2 14 10 13 16 -4 15 10 14 25
-1 8 -8 12 -9 12 -1 0 6 -6 13 -12 15 -7 3 -13 12 -13 21 0 9 -4 16 -10 14 -5
-1 -9 -10 -9 -19 1 -10 -3 -15 -8 -12 -5 3 -7 9 -4 12 3 3 1 11 -5 19 -9 10
-8 18 5 31 20 23 20 29 1 29 -8 0 -11 -5 -8 -10z m-12 -52 c2 -26 -1 -32 -10
-25 -6 5 -14 8 -17 5 -2 -3 -4 5 -3 17 1 12 7 24 13 26 7 2 9 9 5 15 -3 7 -2
8 2 4 5 -4 10 -23 10 -42z"/>
<path d="M1676 3207 c3 -10 9 -15 12 -12 3 3 0 11 -7 18 -10 9 -11 8 -5 -6z"/>
<path d="M1994 3256 c5 -14 3 -17 -11 -12 -15 6 -16 5 -5 -5 17 -18 35 1 21
21 -9 12 -10 12 -5 -4z"/>
<path d="M2173 3253 c-3 -7 -10 -10 -16 -6 -6 3 -7 1 -3 -5 10 -17 26 -15 26
4 0 8 4 13 8 10 4 -2 14 -1 22 4 11 7 9 9 -9 7 -13 -1 -26 -7 -28 -14z"/>
<path d="M2390 3260 c-13 -8 -12 -10 3 -10 9 0 17 5 17 10 0 12 -1 12 -20 0z"/>
<path d="M2550 3260 c0 -5 5 -10 10 -10 6 0 10 5 10 10 0 6 -4 10 -10 10 -5 0
-10 -4 -10 -10z"/>
<path d="M2617 3263 c-2 -5 -3 -16 -1 -26 2 -13 -2 -17 -12 -13 -8 3 -14 1
-14 -5 0 -6 8 -9 18 -7 11 2 17 12 16 26 -1 16 3 21 12 18 8 -3 14 -1 14 4 0
12 -27 13 -33 3z"/>
<path d="M2890 3263 c5 -2 8 -9 5 -13 -3 -5 -1 -11 4 -14 5 -4 8 2 7 11 -2 9
-8 18 -15 19 -6 1 -7 0 -1 -3z"/>
<path d="M2934 3262 c3 -5 1 -12 -5 -14 -6 -2 2 -9 17 -16 25 -11 27 -10 12 1
-10 8 -15 16 -12 19 3 4 0 9 -7 14 -7 4 -10 3 -5 -4z"/>
<path d="M3150 3261 c0 -6 6 -8 14 -5 11 4 13 0 9 -14 -2 -11 -1 -22 4 -25 5
-3 8 7 7 21 -1 25 -34 47 -34 23z"/>
<path d="M3255 3259 c-4 -6 -4 -13 -1 -16 3 -4 6 -1 6 6 0 7 5 9 12 5 7 -4 8
-3 4 4 -9 15 -13 15 -21 1z"/>
<path d="M3297 3264 c-8 -8 3 -34 15 -34 6 0 4 8 -3 17 -12 15 -12 16 4 10 9
-3 17 -2 17 3 0 11 -23 14 -33 4z"/>
<path d="M3376 3262 c-11 -18 2 -47 20 -47 10 0 22 -9 26 -20 6 -17 7 -16 5 5
-2 19 -7 24 -22 22 -15 -2 -21 3 -22 18 -1 12 2 18 9 14 7 -4 8 -2 4 4 -8 14
-13 15 -20 4z"/>
<path d="M3417 3262 c-3 -4 3 -18 14 -31 10 -13 19 -20 19 -15 0 4 -8 16 -17
27 -17 19 -17 20 0 14 9 -4 17 -2 17 3 0 12 -27 13 -33 2z"/>
<path d="M3536 3242 c1 -25 34 -47 34 -23 0 6 -6 8 -14 5 -11 -4 -13 0 -9 14
2 11 1 22 -4 25 -5 3 -8 -7 -7 -21z"/>
<path d="M3667 3244 c-16 -21 -16 -25 -3 -30 18 -7 52 3 43 13 -4 3 1 12 11
20 15 13 15 13 -6 3 -12 -6 -20 -15 -17 -21 4 -5 -4 -9 -16 -9 -21 0 -22 1 -4
20 10 11 16 22 14 24 -2 2 -12 -7 -22 -20z"/>
<path d="M4057 3263 c-10 -10 -8 -41 2 -48 5 -3 13 0 17 6 4 8 3 9 -4 5 -8 -5
-12 1 -12 14 0 13 4 19 12 14 7 -4 8 -3 4 4 -8 14 -10 14 -19 5z"/>
<path d="M4099 3265 c-8 -35 -2 -50 21 -50 19 0 25 6 27 25 2 21 1 22 -5 5
-10 -27 -38 -31 -38 -5 0 13 5 19 13 16 7 -3 13 -1 13 4 0 10 -29 14 -31 5z"/>
<path d="M4170 3247 c-10 -19 -9 -20 2 -6 7 9 19 14 26 12 17 -6 15 4 -3 11
-9 3 -19 -3 -25 -17z"/>
<path d="M2070 3245 c0 -8 4 -15 8 -15 5 0 9 7 9 15 0 8 -4 15 -9 15 -4 0 -8
-7 -8 -15z"/>
<path d="M2421 3241 c-1 -21 -3 -22 -18 -10 -16 13 -17 12 -4 -4 17 -21 35 -8
28 19 -4 15 -5 14 -6 -5z"/>
<path d="M3000 3251 c0 -7 -4 -9 -10 -6 -6 4 -7 -1 -3 -11 6 -15 7 -15 15 1 6
9 7 19 4 22 -3 4 -6 1 -6 -6z"/>
<path d="M3031 3244 c0 -11 3 -14 6 -6 3 7 2 16 -1 19 -3 4 -6 -2 -5 -13z"/>
<path d="M3130 3249 c0 -5 -6 -7 -12 -4 -7 4 -5 0 4 -8 10 -8 14 -18 10 -22
-4 -5 -2 -5 5 -2 6 4 9 16 6 27 -6 21 -13 27 -13 9z"/>
<path d="M3340 3255 c0 -5 5 -17 10 -25 5 -8 10 -10 10 -5 0 6 -5 17 -10 25
-5 8 -10 11 -10 5z"/>
<path d="M3461 3248 c-1 -20 14 -24 25 -6 4 6 3 8 -4 4 -5 -3 -13 0 -15 6 -3
8 -6 6 -6 -4z"/>
<path d="M3591 3251 c-7 -5 -12 -14 -10 -20 2 -6 10 -2 17 9 14 22 13 23 -7
11z"/>
<path d="M2212 3233 c2 -10 10 -17 17 -15 9 2 11 -3 7 -13 -3 -9 -6 -19 -6
-21 0 -3 -5 -2 -12 2 -7 5 -8 3 -3 -6 6 -10 11 -9 22 6 15 21 12 40 -7 36 -8
-2 -10 3 -7 13 4 8 2 15 -4 15 -6 0 -9 -8 -7 -17z"/>
<path d="M2250 3240 c0 -5 5 -10 10 -10 6 0 10 5 10 10 0 6 -4 10 -10 10 -5 0
-10 -4 -10 -10z"/>
<path d="M2290 3240 c0 -5 5 -10 10 -10 6 0 10 5 10 10 0 6 -4 10 -10 10 -5 0
-10 -4 -10 -10z"/>
<path d="M2514 3235 c-4 -8 -11 -12 -17 -8 -5 3 -7 1 -4 -5 4 -5 15 -9 25 -8
9 2 20 -4 24 -13 6 -12 7 -12 5 4 -2 11 -9 19 -15 18 -16 -4 -15 14 1 20 9 4
9 6 -1 6 -7 1 -15 -6 -18 -14z"/>
<path d="M2575 3239 c-11 -16 -1 -19 13 -3 7 8 8 14 3 14 -5 0 -13 -5 -16 -11z"/>
<path d="M2687 3230 c10 -11 19 -20 21 -20 1 0 -2 9 -8 20 -6 11 -15 20 -20
20 -6 0 -2 -9 7 -20z"/>
<path d="M2715 3240 c-3 -5 -1 -10 4 -10 6 0 11 5 11 10 0 6 -2 10 -4 10 -3 0
-8 -4 -11 -10z"/>
<path d="M2850 3240 c0 -5 5 -10 10 -10 6 0 10 5 10 10 0 6 -4 10 -10 10 -5 0
-10 -4 -10 -10z"/>
<path d="M3201 3241 c-8 -5 -9 -11 -3 -15 5 -3 12 1 16 9 6 17 6 18 -13 6z"/>
<path d="M3515 3239 c-4 -6 -5 -12 -2 -15 2 -3 7 2 10 11 7 17 1 20 -8 4z"/>
<path d="M3860 3240 c-9 -6 -10 -10 -3 -10 6 0 15 5 18 10 8 12 4 12 -15 0z"/>
<path d="M3890 3238 c0 -4 4 -8 9 -8 6 0 12 4 15 8 3 5 -1 9 -9 9 -8 0 -15 -4
-15 -9z"/>
<path d="M3988 3238 c5 -5 16 -8 23 -6 8 3 3 7 -10 11 -17 4 -21 3 -13 -5z"/>
<path d="M2017 3234 c-4 -4 -4 -11 -1 -15 7 -12 34 -11 34 1 0 5 -7 6 -17 3
-11 -4 -14 -3 -9 5 8 13 3 16 -7 6z"/>
<path d="M2135 3231 c5 -9 0 -12 -16 -9 -19 2 -24 -2 -26 -22 -1 -20 0 -21 3
-4 4 15 11 20 23 17 22 -6 37 12 20 23 -8 5 -9 3 -4 -5z"/>
<path d="M2648 3233 c6 -2 9 -10 6 -15 -4 -7 -2 -8 5 -4 13 9 5 26 -12 25 -9
0 -8 -2 1 -6z"/>
<path d="M3095 3230 c6 -10 4 -12 -8 -7 -10 3 -17 2 -17 -3 0 -13 27 -13 35
-1 3 5 0 13 -6 17 -8 5 -9 3 -4 -6z"/>
<path d="M3276 3227 c3 -10 9 -15 12 -12 3 3 0 11 -7 18 -10 9 -11 8 -5 -6z"/>
<path d="M3611 3233 c-1 -17 16 -25 25 -12 4 7 3 9 -4 5 -5 -3 -13 0 -15 6 -4
9 -6 10 -6 1z"/>
<path d="M3771 3233 c-1 -17 16 -25 25 -12 4 7 3 9 -4 5 -5 -3 -13 0 -15 6 -4
9 -6 10 -6 1z"/>
<path d="M2193 3204 c0 -17 2 -22 7 -13 5 6 6 18 3 26 -8 19 -10 16 -10 -13z"/>
<path d="M2315 3219 c-11 -16 -1 -19 13 -3 7 8 8 14 3 14 -5 0 -13 -5 -16 -11z"/>
<path d="M2361 3222 c9 -4 15 -15 13 -24 -1 -10 3 -21 8 -25 7 -3 8 -1 4 5 -4
7 -1 12 6 12 10 0 10 2 0 9 -8 4 -13 12 -12 17 0 5 -7 10 -17 11 -15 2 -16 2
-2 -5z"/>
<path d="M2437 3217 c-3 -8 -2 -20 3 -26 5 -9 8 -4 8 13 0 29 -3 32 -11 13z"/>
<path d="M2734 3219 c-4 -7 -3 -9 4 -5 5 3 13 0 15 -6 4 -9 6 -10 6 -1 1 17
-16 25 -25 12z"/>
<path d="M2779 3227 c0 -1 -2 -13 -5 -27 -3 -18 -2 -21 5 -10 5 8 7 18 5 22
-3 4 -1 8 5 8 5 0 12 -6 14 -12 4 -10 6 -10 6 0 1 8 6 10 14 6 6 -4 9 -3 4 1
-7 8 -46 18 -48 12z"/>
<path d="M2870 3208 c-12 -22 -12 -22 6 -6 10 10 15 20 12 24 -4 3 -12 -5 -18
-18z"/>
<path d="M3020 3210 c6 -11 13 -20 16 -20 2 0 0 9 -6 20 -6 11 -13 20 -16 20
-2 0 0 -9 6 -20z"/>
<path d="M3254 3222 c3 -5 0 -13 -6 -15 -9 -4 -10 -6 -1 -6 17 -1 25 16 12 25
-7 4 -9 3 -5 -4z"/>
<path d="M3915 3219 c-11 -16 -1 -19 13 -3 7 8 8 14 3 14 -5 0 -13 -5 -16 -11z"/>
<path d="M3961 3222 c9 -4 15 -15 13 -24 -1 -10 3 -21 8 -25 7 -4 8 -1 3 7 -6
10 -4 12 8 7 10 -3 17 -2 17 3 0 6 -7 10 -15 10 -8 0 -14 5 -12 12 1 6 -7 13
-18 15 -16 2 -16 1 -4 -5z"/>
<path d="M4175 3220 c-7 -11 22 -26 32 -16 4 3 -1 6 -11 6 -9 0 -14 5 -11 10
3 6 4 10 1 10 -3 0 -8 -5 -11 -10z"/>
<path d="M2061 3203 c-1 -16 -6 -20 -20 -16 -22 6 -37 -12 -20 -23 8 -5 9 -3
4 6 -6 10 -3 12 14 7 23 -6 37 12 28 35 -3 7 -6 3 -6 -9z"/>
<path d="M2273 3205 c0 -8 4 -15 9 -15 4 0 8 7 8 15 0 8 -4 15 -8 15 -5 0 -9
-7 -9 -15z"/>
<path d="M2837 3207 c-3 -8 -2 -20 3 -26 5 -9 8 -4 8 13 0 29 -3 32 -11 13z"/>
<path d="M2900 3210 c0 -5 0 -13 -1 -17 0 -5 -11 -14 -25 -21 -13 -7 -22 -18
-18 -23 4 -7 -3 -9 -16 -7 -14 2 -25 -3 -27 -12 -3 -9 -1 -11 4 -5 4 6 16 10
26 10 9 0 16 4 15 8 -2 5 8 14 21 22 21 10 41 55 26 55 -3 0 -5 -4 -5 -10z"/>
<path d="M3873 3205 c0 -8 4 -15 9 -15 4 0 8 7 8 15 0 8 -4 15 -8 15 -5 0 -9
-7 -9 -15z"/>
<path d="M1985 3183 l-17 -28 23 22 c12 12 20 25 17 28 -3 3 -13 -7 -23 -22z"/>
<path d="M2150 3199 c0 -15 18 -19 23 -6 3 8 -1 14 -9 14 -8 0 -14 -4 -14 -8z"/>
<path d="M2337 3193 c5 -12 3 -14 -7 -8 -9 5 -11 4 -6 -4 4 -6 12 -9 17 -6 12
8 12 35 -1 35 -5 0 -6 -7 -3 -17z"/>
<path d="M2468 3203 c6 -2 9 -10 6 -15 -4 -7 -2 -8 4 -4 18 11 14 26 -5 25
-11 0 -13 -3 -5 -6z"/>
<path d="M2573 3197 c1 -10 7 -18 12 -17 6 1 13 -9 17 -22 l6 -23 1 23 c1 15
5 21 13 16 6 -4 8 -3 5 4 -4 5 -15 9 -25 8 -9 -2 -20 4 -24 13 -7 14 -7 13 -5
-2z"/>
<path d="M2630 3201 c0 -5 5 -13 10 -16 6 -3 10 -2 10 4 0 5 -4 13 -10 16 -5
3 -10 2 -10 -4z"/>
<path d="M2670 3195 c0 -8 4 -15 8 -15 5 0 9 7 9 15 0 8 -4 15 -9 15 -4 0 -8
-7 -8 -15z"/>
<path d="M3053 3197 c1 -10 7 -18 12 -17 6 1 13 -9 17 -22 l6 -23 1 23 c1 15
5 21 13 16 6 -4 8 -3 5 4 -4 5 -15 9 -25 8 -9 -2 -20 4 -24 13 -7 14 -7 13 -5
-2z"/>
<path d="M3110 3201 c0 -5 5 -13 10 -16 6 -3 10 -2 10 4 0 5 -4 13 -10 16 -5
3 -10 2 -10 -4z"/>
<path d="M3150 3195 c0 -8 4 -15 8 -15 5 0 9 7 9 15 0 8 -4 15 -9 15 -4 0 -8
-7 -8 -15z"/>
<path d="M3300 3205 c0 -8 29 -12 39 -5 9 5 4 8 -13 8 -14 0 -26 -2 -26 -3z"/>
<path d="M3350 3192 c-12 -13 -26 -52 -15 -40 2 1 3 7 4 11 0 5 8 15 18 22 10
7 16 16 13 18 -3 3 -12 -2 -20 -11z"/>
<path d="M3460 3205 c0 -8 29 -12 39 -5 9 5 4 8 -13 8 -14 0 -26 -2 -26 -3z"/>
<path d="M3510 3192 c-12 -13 -26 -52 -15 -40 2 1 3 7 4 11 0 5 8 15 18 22 10
7 16 16 13 18 -3 3 -12 -2 -20 -11z"/>
<path d="M3580 3197 c0 -10 -7 -15 -20 -12 -11 2 -23 -1 -26 -7 -4 -6 -3 -8 4
-4 5 3 13 0 15 -6 4 -10 6 -10 6 0 1 7 6 10 11 7 11 -7 26 22 16 32 -3 4 -6
-1 -6 -10z"/>
<path d="M3631 3200 c-9 -5 -4 -7 13 -7 29 0 32 2 13 10 -8 3 -20 2 -26 -3z"/>
<path d="M3701 3200 c-9 -5 -4 -7 13 -7 29 0 32 2 13 10 -8 3 -20 2 -26 -3z"/>
<path d="M3791 3200 c-9 -5 -4 -7 13 -7 29 0 32 2 13 10 -8 3 -20 2 -26 -3z"/>
<path d="M3937 3193 c5 -12 3 -14 -7 -8 -9 5 -11 4 -6 -4 4 -6 12 -9 17 -6 12
8 12 35 -1 35 -5 0 -6 -7 -3 -17z"/>
<path d="M4030 3195 c0 -8 2 -15 4 -15 2 0 6 7 10 15 3 8 1 15 -4 15 -6 0 -10
-7 -10 -15z"/>
<path d="M4074 3199 c-3 -6 -3 -13 0 -16 3 -4 6 -1 6 5 0 6 7 9 15 6 8 -4 15
-4 15 -1 0 11 -30 16 -36 6z"/>
<path d="M4141 3193 c-5 -10 -13 -16 -18 -13 -4 3 -9 -6 -10 -20 -1 -22 -1
-23 4 -2 2 12 9 20 14 17 5 -4 12 1 15 9 3 9 11 13 17 9 6 -3 7 -1 3 5 -10 16
-13 15 -25 -5z"/>
<path d="M2414 3192 c3 -5 0 -13 -6 -15 -9 -4 -10 -6 -1 -6 17 -1 25 16 12 25
-7 4 -9 3 -5 -4z"/>
<path d="M2710 3190 c0 -5 7 -7 15 -4 8 4 15 8 15 10 0 2 -7 4 -15 4 -8 0 -15
-4 -15 -10z"/>
<path d="M2921 3193 c-1 -17 16 -25 25 -12 4 7 3 9 -4 5 -5 -3 -13 0 -15 6 -4
9 -6 10 -6 1z"/>
<path d="M3190 3190 c0 -6 7 -10 15 -10 8 0 15 2 15 4 0 2 -7 6 -15 10 -8 3
-15 1 -15 -4z"/>
<path d="M1633 3166 c0 -38 23 -53 37 -25 7 12 8 19 2 15 -6 -3 -17 3 -25 14
-14 21 -14 20 -14 -4z"/>
<path d="M2110 3180 c0 -5 7 -6 17 -3 12 5 14 3 8 -7 -5 -9 -4 -11 4 -6 6 4 9
12 6 17 -8 12 -35 12 -35 -1z"/>
<path d="M2256 3162 c1 -25 34 -47 34 -23 0 6 -6 8 -14 5 -11 -4 -13 0 -9 14
2 11 1 22 -4 25 -5 3 -8 -7 -7 -21z"/>
<path d="M2297 3183 c-3 -5 -1 -17 3 -27 6 -17 7 -18 13 -3 3 9 2 17 -4 17 -6
0 -7 5 -4 10 3 6 4 10 1 10 -3 0 -7 -3 -9 -7z"/>
<path d="M2495 3181 c-3 -5 0 -13 6 -17 8 -5 9 -3 4 6 -6 10 -4 12 8 7 10 -3
17 -2 17 3 0 13 -27 13 -35 1z"/>
<path d="M2790 3178 c0 -6 6 -8 14 -5 8 3 17 2 20 -4 2 -5 3 -4 2 2 -3 15 -36
21 -36 7z"/>
<path d="M2990 3181 c8 -5 18 -7 22 -5 4 3 8 1 8 -5 0 -5 -5 -12 -10 -14 -6
-3 -5 -4 2 -3 23 5 14 29 -12 33 -18 2 -21 1 -10 -6z"/>
<path d="M3236 3179 c3 -5 9 -7 14 -4 4 3 11 0 13 -5 3 -6 4 -5 3 1 -1 7 -10
13 -19 15 -9 1 -15 -2 -11 -7z"/>
<path d="M3295 3180 c-3 -5 -3 -10 2 -10 4 0 1 -5 -7 -10 -8 -5 -10 -10 -5
-10 6 0 17 5 25 10 11 7 11 10 2 10 -7 0 -10 5 -7 10 3 6 4 10 1 10 -3 0 -8
-4 -11 -10z"/>
<path d="M3375 3180 c-3 -5 -3 -10 2 -10 4 0 0 -5 -9 -11 -10 -5 -18 -14 -18
-19 0 -6 9 -2 19 7 11 9 17 21 14 26 -4 6 1 8 10 4 10 -3 17 -2 17 3 0 13 -27
13 -35 0z"/>
<path d="M3456 3181 c-3 -5 1 -14 9 -21 10 -9 15 -9 15 -1 0 6 -5 11 -11 11
-5 0 -7 5 -4 10 3 6 4 10 1 10 -3 0 -7 -4 -10 -9z"/>
<path d="M3596 3173 c-6 -14 -5 -15 5 -6 7 7 10 15 7 18 -3 3 -9 -2 -12 -12z"/>
<path d="M3750 3180 c0 -5 5 -10 10 -10 6 0 10 5 10 10 0 6 -4 10 -10 10 -5 0
-10 -4 -10 -10z"/>
<path d="M3856 3162 c1 -25 34 -47 34 -23 0 6 -6 8 -14 5 -11 -4 -13 0 -9 14
2 11 1 22 -4 25 -5 3 -8 -7 -7 -21z"/>
<path d="M3897 3183 c-3 -5 -1 -17 3 -27 6 -17 7 -18 13 -3 3 9 2 17 -4 17 -6
0 -7 5 -4 10 3 6 4 10 1 10 -3 0 -7 -3 -9 -7z"/>
<path d="M4174 3175 c-4 -8 -10 -12 -15 -9 -5 3 -9 0 -9 -5 0 -16 20 -13 26 3
3 8 12 12 20 9 8 -3 14 -3 14 0 0 13 -31 15 -36 2z"/>
<path d="M2532 3164 c-7 -8 -8 -14 -3 -14 10 0 25 19 20 25 -2 1 -10 -3 -17
-11z"/>
<path d="M3641 3164 c0 -11 3 -14 6 -6 3 7 2 16 -1 19 -3 4 -6 -2 -5 -13z"/>
<path d="M3670 3170 c0 -5 5 -10 10 -10 6 0 10 5 10 10 0 6 -4 10 -10 10 -5 0
-10 -4 -10 -10z"/>
<path d="M3711 3164 c0 -11 3 -14 6 -6 3 7 2 16 -1 19 -3 4 -6 -2 -5 -13z"/>
<path d="M3801 3164 c0 -11 3 -14 6 -6 3 7 2 16 -1 19 -3 4 -6 -2 -5 -13z"/>
<path d="M3830 3170 c0 -5 5 -10 11 -10 5 0 7 5 4 10 -3 6 -8 10 -11 10 -2 0
-4 -4 -4 -10z"/>
<path d="M2163 3163 c-7 -2 -13 -9 -13 -15 0 -7 5 -7 13 1 8 6 17 8 20 4 4 -3
7 -1 7 5 0 13 -7 14 -27 5z"/>
<path d="M2344 3158 c-4 -6 -3 -8 4 -4 5 3 13 0 15 -6 3 -8 6 -6 6 5 1 19 -14
23 -25 5z"/>
<path d="M2435 3161 c3 -2 -3 -9 -12 -16 -13 -10 -14 -13 -2 -20 8 -5 11 -4 6
0 -4 5 5 16 20 26 25 16 25 18 5 16 -11 0 -19 -3 -17 -6z"/>
<path d="M2640 3160 c-8 -5 -12 -11 -10 -14 3 -2 14 2 24 10 22 15 10 19 -14
4z"/>
<path d="M2671 3151 c-19 -14 -21 -20 -10 -26 8 -5 11 -4 6 0 -4 5 5 17 20 27
16 10 24 18 18 18 -5 0 -21 -9 -34 -19z"/>
<path d="M2900 3160 c-9 -6 -10 -10 -3 -10 6 0 15 5 18 10 8 12 4 12 -15 0z"/>
<path d="M2940 3160 c-9 -6 -10 -10 -3 -10 6 0 15 5 18 10 8 12 4 12 -15 0z"/>
<path d="M2974 3155 c3 -9 0 -15 -9 -15 -8 0 -15 -5 -15 -10 0 -17 33 5 36 24
1 9 -2 16 -8 16 -6 0 -8 -7 -4 -15z"/>
<path d="M3120 3160 c-8 -5 -12 -11 -10 -14 3 -2 14 2 24 10 22 15 10 19 -14
4z"/>
<path d="M3151 3151 c-19 -14 -21 -20 -10 -26 8 -5 11 -4 6 0 -4 5 5 17 20 27
16 10 24 18 18 18 -5 0 -21 -9 -34 -19z"/>
<path d="M3216 3156 c4 -11 0 -13 -14 -9 -22 5 -38 -12 -21 -23 8 -5 9 -3 4 5
-5 9 0 12 16 9 16 -2 25 3 27 15 2 9 -1 17 -7 17 -6 0 -8 -6 -5 -14z"/>
<path d="M3425 3160 c-3 -5 -1 -10 4 -10 6 0 11 5 11 10 0 6 -2 10 -4 10 -3 0
-8 -4 -11 -10z"/>
<path d="M3944 3158 c-4 -6 -3 -8 4 -4 5 3 13 0 15 -6 3 -8 6 -6 6 5 1 19 -14
23 -25 5z"/>
<path d="M4000 3160 c-8 -5 -12 -11 -10 -14 3 -2 14 2 24 10 22 15 10 19 -14
4z"/>
<path d="M4031 3151 c-19 -14 -21 -20 -10 -26 8 -5 11 -4 6 0 -4 5 5 17 20 27
16 10 24 18 18 18 -5 0 -21 -9 -34 -19z"/>
<path d="M1985 3147 c-14 -11 -15 -16 -5 -22 9 -5 11 -4 6 3 -4 7 -1 12 8 12
9 0 16 5 16 10 0 13 -3 13 -25 -3z"/>
<path d="M2035 3150 c-3 -6 1 -7 9 -4 18 7 21 14 7 14 -6 0 -13 -4 -16 -10z"/>
<path d="M2390 3149 c0 -5 5 -7 10 -4 6 3 10 8 10 11 0 2 -4 4 -10 4 -5 0 -10
-5 -10 -11z"/>
<path d="M2466 3147 c-15 -11 -16 -16 -6 -22 9 -6 11 -4 5 5 -6 10 -3 12 13 8
12 -4 25 -1 29 4 3 6 1 8 -5 4 -5 -3 -12 -1 -14 4 -2 7 -10 6 -22 -3z"/>
<path d="M3515 3150 c-8 -13 3 -30 18 -30 7 0 6 4 -3 10 -13 9 -13 11 0 20 9
6 10 10 3 10 -6 0 -15 -4 -18 -10z"/>
<path d="M3620 3150 c0 -5 -7 -7 -15 -4 -8 4 -15 2 -15 -4 0 -14 33 -8 38 6 2
7 1 12 -2 12 -3 0 -6 -4 -6 -10z"/>
<path d="M3780 3150 c0 -5 -7 -7 -15 -4 -8 4 -15 2 -15 -4 0 -14 33 -8 38 6 2
7 1 12 -2 12 -3 0 -6 -4 -6 -10z"/>
<path d="M4065 3147 c-14 -11 -15 -16 -5 -22 9 -5 11 -4 6 3 -4 7 -1 12 8 12
9 0 16 5 16 10 0 13 -3 13 -25 -3z"/>
<path d="M2070 3140 c0 -5 5 -10 10 -10 6 0 10 5 10 10 0 6 -4 10 -10 10 -5 0
-10 -4 -10 -10z"/>
<path d="M2215 3141 c-3 -5 0 -13 6 -17 7 -4 9 -3 5 4 -3 5 0 13 6 15 9 4 10
6 1 6 -6 1 -14 -3 -18 -8z"/>
<path d="M2316 3133 c-6 -14 -5 -15 5 -6 7 7 10 15 7 18 -3 3 -9 -2 -12 -12z"/>
<path d="M2550 3140 c0 -5 5 -10 10 -10 6 0 10 5 10 10 0 6 -4 10 -10 10 -5 0
-10 -4 -10 -10z"/>
<path d="M2695 3141 c-3 -5 0 -13 6 -17 7 -4 9 -3 5 4 -3 6 2 13 11 15 16 4
16 5 1 6 -9 0 -19 -3 -23 -8z"/>
<path d="M2776 3137 c3 -10 9 -15 12 -12 3 3 0 11 -7 18 -10 9 -11 8 -5 -6z"/>
<path d="M3033 3135 c0 -8 4 -12 9 -9 4 3 8 9 8 15 0 5 -4 9 -8 9 -5 0 -9 -7
-9 -15z"/>
<path d="M3255 3140 c-7 -12 19 -24 37 -17 7 3 3 6 -10 6 -13 1 -20 5 -17 11
3 6 4 10 1 10 -3 0 -8 -5 -11 -10z"/>
<path d="M3390 3140 c0 -5 5 -10 10 -10 6 0 10 5 10 10 0 6 -4 10 -10 10 -5 0
-10 -4 -10 -10z"/>
<path d="M3916 3133 c-6 -14 -5 -15 5 -6 7 7 10 15 7 18 -3 3 -9 -2 -12 -12z"/>
<path d="M4174 3138 c-4 -5 -3 -12 0 -15 3 -4 6 -1 6 6 0 7 4 10 9 6 5 -3 12
-2 15 3 3 5 -2 9 -10 9 -8 0 -17 -4 -20 -9z"/>
<path d="M2875 3130 c-3 -5 -1 -10 4 -10 6 0 11 5 11 10 0 6 -2 10 -4 10 -3 0
-8 -4 -11 -10z"/>
<path d="M2108 3123 c7 -3 16 -2 19 1 4 3 -2 6 -13 5 -11 0 -14 -3 -6 -6z"/>
<path d="M2518 3123 c7 -3 16 -2 19 1 4 3 -2 6 -13 5 -11 0 -14 -3 -6 -6z"/>
<path d="M3428 3123 c6 -2 18 -2 25 0 6 3 1 5 -13 5 -14 0 -19 -2 -12 -5z"/>
<path d="M3668 3123 c6 -2 18 -2 25 0 6 3 1 5 -13 5 -14 0 -19 -2 -12 -5z"/>
<path d="M3828 3123 c7 -3 16 -2 19 1 4 3 -2 6 -13 5 -11 0 -14 -3 -6 -6z"/>
<path d="M1830 3111 c0 -7 -5 -9 -12 -5 -7 5 -8 3 -3 -5 5 -9 10 -10 18 -2 6
6 8 14 4 18 -4 3 -7 1 -7 -6z"/>
<path d="M1875 3110 c6 -10 4 -12 -11 -6 -15 6 -17 5 -6 -5 9 -9 15 -10 23 -2
8 8 7 13 -2 18 -8 6 -10 4 -4 -5z"/>
<path d="M1950 3099 c0 -5 5 -7 10 -4 6 3 10 8 10 11 0 2 -4 4 -10 4 -5 0 -10
-5 -10 -11z"/>
<path d="M1836 3082 c-3 -4 4 -9 15 -9 23 -2 25 3 4 10 -8 4 -16 3 -19 -1z"/>
<path d="M1885 3080 c-3 -6 1 -7 9 -4 18 7 21 14 7 14 -6 0 -13 -4 -16 -10z"/>
<path d="M1895 3059 c-5 -8 -4 -10 3 -5 7 4 12 2 12 -3 0 -6 7 -11 15 -11 8 0
14 -5 13 -12 -2 -6 6 -13 17 -15 16 -2 16 -1 4 5 -9 4 -15 15 -13 24 1 10 -3
21 -8 25 -7 3 -8 1 -4 -5 9 -15 -6 -16 -21 -1 -8 8 -13 7 -18 -2z"/>
<path d="M1873 3034 c0 -17 2 -22 7 -13 5 6 6 18 3 26 -8 19 -10 16 -10 -13z"/>
<path d="M1897 3023 c-10 -10 -8 -33 3 -33 5 0 7 8 4 18 -5 14 -3 14 10 -2 9
-11 16 -15 16 -9 0 14 -25 34 -33 26z"/>
<path d="M1834 2998 c-4 -6 -3 -8 4 -4 5 3 12 1 14 -6 2 -6 15 -13 29 -15 18
-2 20 -1 9 6 -8 5 -18 7 -22 5 -4 -3 -8 2 -8 10 0 19 -16 21 -26 4z"/>
<path d="M1939 2988 c-5 -18 -2 -55 4 -51 5 3 6 14 4 25 -4 14 -2 18 9 14 9
-3 12 -1 9 4 -5 9 -24 14 -26 8z"/>
<path d="M1833 2965 c0 -8 3 -13 5 -10 3 3 11 -3 19 -13 13 -15 13 -15 3 5
-13 28 -27 37 -27 18z"/>
<path d="M1907 2926 c-4 -10 -3 -15 3 -11 6 3 10 1 10 -6 0 -7 3 -10 6 -6 3 3
2 13 -4 22 -8 16 -9 16 -15 1z"/>
<path d="M1953 2915 c0 -8 4 -12 9 -9 5 3 6 10 3 15 -9 13 -12 11 -12 -6z"/>
<path d="M1859 2888 c-1 -7 -1 -17 0 -21 1 -5 -7 -6 -18 -2 -11 3 -22 1 -26
-4 -4 -7 1 -8 11 -4 11 4 15 3 10 -5 -3 -6 -1 -14 5 -18 7 -4 9 -3 5 4 -3 5
-1 12 6 14 11 4 23 48 13 48 -3 0 -6 -6 -6 -12z"/>
<path d="M1795 2880 c-3 -5 -1 -10 4 -10 6 0 11 5 11 10 0 6 -2 10 -4 10 -3 0
-8 -4 -11 -10z"/>
<path d="M1930 2880 c0 -5 5 -10 10 -10 6 0 10 5 10 10 0 6 -4 10 -10 10 -5 0
-10 -4 -10 -10z"/>
<path d="M1884 2855 c-10 -8 -15 -15 -10 -15 6 0 1 -7 -10 -16 -18 -14 -18
-15 4 -4 13 7 21 14 18 17 -3 3 2 12 12 19 9 7 14 14 11 14 -3 0 -14 -7 -25
-15z"/>
<path d="M1916 2851 c-3 -5 1 -11 9 -14 9 -4 12 -1 8 9 -6 16 -10 17 -17 5z"/>
<path d="M1899 2828 c-4 -15 -6 -50 -3 -41 3 7 5 15 4 19 -1 4 4 11 12 15 10
7 10 9 1 9 -7 0 -13 -1 -14 -2z"/>
<path d="M1950 2819 c0 -5 5 -7 10 -4 6 3 10 8 10 11 0 2 -4 4 -10 4 -5 0 -10
-5 -10 -11z"/>
<path d="M1821 2800 c-9 -5 -4 -7 13 -7 29 0 32 2 13 10 -8 3 -20 2 -26 -3z"/>
<path d="M1874 2776 c5 -14 3 -17 -11 -12 -15 6 -16 5 -5 -5 17 -18 35 1 21
21 -9 12 -10 12 -5 -4z"/>
<path d="M1910 2785 c0 -5 5 -17 10 -25 5 -8 10 -10 10 -5 0 6 -5 17 -10 25
-5 8 -10 11 -10 5z"/>
<path d="M1938 2778 c5 -5 16 -8 23 -6 8 3 3 7 -10 11 -17 4 -21 3 -13 -5z"/>
<path d="M1895 2751 c-6 -11 13 -26 22 -17 4 3 1 6 -6 6 -7 0 -9 5 -6 10 3 6
4 10 1 10 -3 0 -7 -4 -11 -9z"/>
<path d="M1834 2724 c7 -38 14 -40 12 -5 0 17 -4 31 -9 31 -4 0 -5 -12 -3 -26z"/>
<path d="M1939 2748 c-5 -18 -2 -55 4 -51 5 3 6 14 4 25 -4 14 -2 18 9 14 9
-3 12 -1 9 4 -5 9 -24 14 -26 8z"/>
<path d="M1871 2720 c-9 -5 -4 -7 13 -7 29 0 32 2 13 10 -8 3 -20 2 -26 -3z"/>
<path d="M1814 2702 c4 -7 1 -12 -6 -12 -8 0 -6 -5 5 -11 10 -6 21 -8 24 -5 4
3 1 6 -6 6 -7 0 -10 4 -6 9 3 5 0 13 -6 17 -8 4 -9 3 -5 -4z"/>
<path d="M1915 2682 c5 -15 2 -22 -6 -20 -7 2 -15 -5 -17 -14 -2 -10 1 -18 7
-18 6 0 7 7 4 17 -4 10 -2 14 5 9 16 -10 25 11 12 31 -9 16 -10 15 -5 -5z"/>
<path d="M1865 2680 c3 -5 11 -10 16 -10 6 0 7 5 4 10 -3 6 -11 10 -16 10 -6
0 -7 -4 -4 -10z"/>
<path d="M1953 2675 c0 -8 4 -12 9 -9 5 3 6 10 3 15 -9 13 -12 11 -12 -6z"/>
<path d="M1844 2659 c-5 -8 -3 -9 5 -4 9 5 12 0 9 -16 -2 -19 2 -24 22 -26 20
-1 21 0 4 3 -15 4 -20 11 -17 23 6 22 -12 37 -23 20z"/>
<path d="M1930 2640 c0 -5 5 -10 10 -10 6 0 10 5 10 10 0 6 -4 10 -10 10 -5 0
-10 -4 -10 -10z"/>
<path d="M1916 2611 c-3 -5 1 -11 9 -14 9 -4 12 -1 8 9 -6 16 -10 17 -17 5z"/>
<path d="M1820 2600 c18 -12 30 -13 30 -2 0 4 -10 9 -22 9 -18 2 -20 0 -8 -7z"/>
<path d="M1854 2579 c-4 -7 -3 -9 4 -5 5 3 13 0 15 -6 4 -9 6 -10 6 -1 1 17
-16 25 -25 12z"/>
<path d="M1899 2588 c-6 -21 -5 -37 2 -32 5 3 7 9 4 14 -3 4 1 11 7 13 10 4
10 6 1 6 -7 1 -13 0 -14 -1z"/>
<path d="M1950 2579 c0 -5 5 -7 10 -4 6 3 10 8 10 11 0 2 -4 4 -10 4 -5 0 -10
-5 -10 -11z"/>
<path d="M1910 2545 c0 -5 5 -17 10 -25 5 -8 10 -10 10 -5 0 6 -5 17 -10 25
-5 8 -10 11 -10 5z"/>
<path d="M1938 2538 c5 -5 16 -8 23 -6 8 3 3 7 -10 11 -17 4 -21 3 -13 -5z"/>
<path d="M1894 2521 c2 -14 9 -27 17 -29 11 -3 12 -2 1 6 -8 5 -13 12 -12 16
1 4 -1 12 -4 19 -2 6 -3 1 -2 -12z"/>
<path d="M1850 2510 c6 -11 12 -20 14 -20 2 0 2 9 -1 20 -3 11 -9 20 -15 20
-5 0 -4 -9 2 -20z"/>
<path d="M1834 2486 c3 -16 8 -31 11 -35 3 -3 4 7 1 23 -3 16 -8 31 -11 35 -3
3 -4 -7 -1 -23z"/>
<path d="M1939 2508 c-5 -18 -2 -55 4 -51 5 3 6 14 4 25 -4 14 -2 18 9 14 9
-3 12 -1 9 4 -5 9 -24 14 -26 8z"/>
<path d="M1871 2480 c-9 -5 -4 -7 13 -7 29 0 32 2 13 10 -8 3 -20 2 -26 -3z"/>
<path d="M1814 2463 c4 -7 2 -13 -4 -13 -6 0 -8 -4 -5 -10 3 -5 10 -10 15 -10
10 0 7 27 -5 37 -4 4 -5 2 -1 -4z"/>
<path d="M1873 2453 c-7 -2 -13 -11 -13 -19 0 -9 -4 -13 -9 -9 -5 3 -12 1 -15
-4 -13 -20 25 -4 40 17 8 12 14 22 12 21 -2 0 -9 -3 -15 -6z"/>
<path d="M1906 2445 c-3 -8 -1 -15 4 -15 6 0 10 7 10 15 0 8 -2 15 -4 15 -2 0
-6 -7 -10 -15z"/>
<path d="M1941 2436 c-10 -12 -8 -17 11 -26 20 -10 21 -10 6 3 -13 10 -15 16
-6 25 7 7 9 12 6 12 -3 0 -11 -6 -17 -14z"/>
<path d="M1877 2417 c-3 -8 -2 -20 3 -26 5 -9 8 -4 8 13 0 29 -3 32 -11 13z"/>
<path d="M1911 2387 c17 -32 23 -35 15 -10 -6 19 -4 22 11 16 10 -3 15 -3 12
1 -4 4 -16 8 -28 11 -19 3 -20 2 -10 -18z"/>
<path d="M1837 2386 c-4 -11 -5 -21 -2 -24 3 -3 5 0 5 7 0 7 4 10 9 6 5 -3 13
0 17 6 4 7 3 9 -4 5 -5 -3 -12 -1 -14 6 -3 7 -7 5 -11 -6z"/>
<path d="M1857 2358 c-7 -5 0 -6 17 -4 16 3 31 7 33 10 8 8 -37 2 -50 -6z"/>
<path d="M1955 2361 c-3 -5 -2 -12 3 -15 5 -3 9 1 9 9 0 17 -3 19 -12 6z"/>
<path d="M1893 2337 c-3 -6 -1 -7 5 -3 7 4 12 2 12 -5 0 -8 5 -8 16 2 14 11
16 10 12 -11 -2 -18 2 -25 17 -27 15 -2 16 -1 5 5 -8 4 -15 16 -15 26 0 21
-41 31 -52 13z"/>
<path d="M1837 2333 c-11 -11 -8 -20 7 -20 8 0 12 6 9 14 -6 15 -7 15 -16 6z"/>
<path d="M1873 2314 c0 -17 2 -22 7 -13 5 6 6 18 3 26 -8 19 -10 16 -10 -13z"/>
<path d="M1897 2303 c-10 -10 -8 -33 3 -33 5 0 7 8 4 18 -5 14 -3 14 10 -2 9
-11 16 -15 16 -9 0 14 -25 34 -33 26z"/>
<path d="M1834 2278 c-4 -6 -3 -8 4 -4 5 3 12 1 14 -6 2 -6 12 -12 21 -14 9
-1 15 2 11 7 -3 5 -10 7 -15 4 -5 -4 -9 1 -9 9 0 19 -16 21 -26 4z"/>
<path d="M1820 2252 c9 -19 30 -23 30 -5 0 4 -3 3 -7 0 -3 -4 -12 1 -20 11
-13 15 -13 15 -3 -6z"/>
<path d="M1939 2268 c-5 -18 -2 -55 4 -51 5 3 6 14 4 25 -4 14 -2 18 9 14 9
-3 12 -1 9 4 -5 9 -24 14 -26 8z"/>
<path d="M1855 2231 c-3 -5 0 -13 6 -17 7 -4 9 -3 5 4 -3 5 0 13 6 15 9 4 10
6 1 6 -6 1 -14 -3 -18 -8z"/>
<path d="M1877 2207 c-3 -8 -2 -20 3 -26 5 -9 8 -4 8 13 0 29 -3 32 -11 13z"/>
<path d="M1907 2206 c-4 -10 -3 -15 3 -11 6 3 10 1 10 -6 0 -7 3 -10 6 -6 3 3
2 13 -4 22 -8 16 -9 16 -15 1z"/>
<path d="M1953 2195 c0 -8 4 -12 9 -9 5 3 6 10 3 15 -9 13 -12 11 -12 -6z"/>
<path d="M1859 2168 c-1 -7 -1 -16 0 -20 2 -12 -17 -10 -22 2 -3 6 -4 5 -3 -2
4 -22 29 -14 32 10 2 12 2 22 -1 22 -3 0 -6 -6 -6 -12z"/>
<path d="M1895 2160 c-3 -5 -3 -10 1 -10 4 0 -1 -7 -12 -15 -19 -15 -19 -15 0
-30 11 -8 16 -15 11 -15 -5 0 -4 -5 2 -11 8 -8 16 -8 30 0 16 11 15 11 -6 5
-15 -4 -21 -2 -17 4 4 6 -2 15 -11 21 -17 9 -17 11 2 25 11 8 16 16 10 16 -5
0 -3 5 5 10 9 6 10 10 3 10 -6 0 -15 -4 -18 -10z"/>
<path d="M1930 2160 c0 -5 5 -10 10 -10 6 0 10 5 10 10 0 6 -4 10 -10 10 -5 0
-10 -4 -10 -10z"/>
<path d="M1917 2133 c-11 -11 -8 -20 7 -20 8 0 12 6 9 14 -6 15 -7 15 -16 6z"/>
<path d="M1835 2099 c-11 -16 -1 -19 13 -3 7 8 8 14 3 14 -5 0 -13 -5 -16 -11z"/>
<path d="M1950 2099 c0 -5 5 -7 10 -4 6 3 10 8 10 11 0 2 -4 4 -10 4 -5 0 -10
-5 -10 -11z"/>
<path d="M1857 2073 c5 -12 3 -14 -7 -8 -9 5 -11 4 -6 -4 4 -6 12 -9 17 -6 12
8 12 35 -1 35 -5 0 -6 -7 -3 -17z"/>
<path d="M1816 2061 c-4 -5 -3 -17 1 -27 5 -13 3 -15 -7 -9 -9 5 -11 4 -6 -3
10 -16 14 -15 27 9 9 17 8 20 -2 14 -9 -6 -11 -3 -6 8 7 18 2 23 -7 8z"/>
<path d="M1938 2058 c5 -5 16 -8 23 -6 8 3 3 7 -10 11 -17 4 -21 3 -13 -5z"/>
<path d="M1876 2035 c4 -8 8 -15 10 -15 2 0 4 7 4 15 0 8 -4 15 -10 15 -5 0
-7 -7 -4 -15z"/>
<path d="M1917 2043 c-4 -3 -7 -11 -7 -17 0 -6 5 -5 12 2 6 6 9 14 7 17 -3 3
-9 2 -12 -2z"/>
<path d="M1839 2023 c0 -5 -2 -16 -4 -26 -2 -11 -1 -16 3 -13 8 8 14 46 7 46
-3 0 -5 -3 -6 -7z"/>
<path d="M1939 2028 c-5 -18 -2 -55 4 -51 5 3 6 14 4 25 -4 14 -2 18 9 14 9
-3 12 -1 9 4 -5 9 -24 14 -26 8z"/>
<path d="M1797 1999 c7 -7 15 -10 18 -7 3 3 -2 9 -12 12 -14 6 -15 5 -6 -5z"/>
<path d="M1860 2005 c0 -8 29 -12 39 -5 9 5 4 8 -13 8 -14 0 -26 -2 -26 -3z"/>
<path d="M1910 1990 c-9 -6 -10 -10 -3 -10 6 0 15 5 18 10 8 12 4 12 -15 0z"/>
<path d="M1854 1975 c-4 -8 -11 -12 -17 -8 -6 3 -7 1 -3 -5 10 -17 26 -15 26
4 0 9 5 12 12 8 7 -4 8 -3 4 4 -10 16 -15 15 -22 -3z"/>
<path d="M1890 1957 c0 -8 3 -16 6 -20 8 -8 34 3 34 15 0 6 -8 4 -17 -3 -15
-12 -16 -12 -10 4 3 9 2 17 -3 17 -6 0 -10 -6 -10 -13z"/>
<path d="M1953 1955 c0 -8 4 -12 9 -9 5 3 6 10 3 15 -9 13 -12 11 -12 -6z"/>
<path d="M1873 1924 c0 -17 2 -22 7 -13 5 6 6 18 3 26 -8 19 -10 16 -10 -13z"/>
<path d="M1830 1920 c0 -5 7 -7 15 -4 8 4 15 8 15 10 0 2 -7 4 -15 4 -8 0 -15
-4 -15 -10z"/>
<path d="M1930 1920 c0 -5 5 -10 10 -10 6 0 10 5 10 10 0 6 -4 10 -10 10 -5 0
-10 -4 -10 -10z"/>
<path d="M1896 1911 c-3 -5 5 -16 19 -25 21 -14 24 -14 19 -1 -4 8 -13 15 -21
15 -8 0 -11 5 -8 10 3 6 4 10 1 10 -3 0 -7 -4 -10 -9z"/>
<path d="M1851 1885 c4 -3 19 -8 35 -11 16 -3 26 -2 23 1 -4 3 -19 8 -35 11
-16 3 -26 2 -23 -1z"/>
<path d="M1830 1870 c0 -5 7 -10 16 -10 9 0 12 -5 8 -12 -4 -7 -3 -8 4 -4 16
10 15 14 -8 26 -14 7 -20 7 -20 0z"/>
<path d="M1950 1859 c0 -5 5 -7 10 -4 6 3 10 8 10 11 0 2 -4 4 -10 4 -5 0 -10
-5 -10 -11z"/>
<path d="M1877 1847 c-3 -8 -2 -20 3 -26 5 -9 8 -4 8 13 0 29 -3 32 -11 13z"/>
<path d="M1915 1850 c3 -6 1 -10 -6 -10 -7 0 -10 -3 -6 -6 3 -3 13 -2 22 4 16
8 16 9 1 15 -10 4 -15 3 -11 -3z"/>
<path d="M1938 1818 c5 -5 16 -8 23 -6 8 3 3 7 -10 11 -17 4 -21 3 -13 -5z"/>
<path d="M1236 1768 c3 -4 11 -6 17 -2 7 3 5 0 -3 -8 -17 -15 -23 -68 -8 -68
6 0 7 7 4 16 -4 9 -2 13 5 8 8 -4 9 1 4 15 -6 20 2 26 28 22 4 0 7 4 7 9 0 6
-3 11 -7 11 -34 6 -52 5 -47 -3z"/>
<path d="M1296 1755 c-3 -8 -11 -14 -17 -13 -6 2 -13 -8 -14 -21 -1 -13 -8
-29 -16 -35 -18 -14 -23 -36 -8 -36 8 0 7 -6 -2 -17 -10 -11 -10 -14 -1 -9 7
4 12 2 12 -5 0 -16 13 -3 16 16 1 8 -2 15 -7 15 -5 0 -9 4 -9 9 0 4 10 7 23 7
12 -1 28 2 35 7 6 5 12 6 12 1 0 -4 6 1 14 12 14 19 14 19 13 -1 -1 -12 3 -19
12 -17 9 2 11 -3 7 -14 -5 -13 -4 -14 7 -6 8 7 17 8 22 4 4 -4 6 0 3 8 -3 8
-15 14 -26 14 -23 -1 -29 10 -12 21 5 3 7 13 4 23 -5 13 -4 14 4 3 8 -11 10
-11 15 0 3 9 6 10 6 2 1 -6 -3 -15 -9 -18 -15 -9 -12 -22 4 -22 10 0 14 9 12
26 -1 14 -8 25 -14 24 -7 -2 -12 2 -12 7 0 6 -5 10 -11 10 -5 0 -8 -4 -4 -9 7
-12 -24 -43 -36 -35 -5 3 -7 16 -5 29 5 28 -9 43 -18 20z m6 -22 c-9 -4 -10
-9 -2 -18 6 -7 7 -20 4 -30 -5 -13 -9 -14 -15 -3 -7 11 -11 10 -19 -2 -11 -17
-13 -10 -4 14 3 9 10 13 15 10 12 -7 11 10 -1 22 -6 6 -2 10 13 11 12 0 16 -1
9 -4z"/>
<path d="M1551 1600 c14 -31 19 -36 19 -24 0 6 -7 19 -16 30 -14 18 -14 18 -3
-6z"/>
<path d="M1430 1592 c0 -14 28 -23 36 -11 3 6 3 13 0 16 -3 4 -6 1 -6 -7 0
-10 -3 -10 -15 0 -9 7 -15 8 -15 2z"/>
<path d="M3928 1572 c-10 -2 -18 -8 -18 -13 0 -13 17 -11 26 2 4 8 9 7 15 -2
8 -12 11 -11 20 1 9 12 10 12 5 -4 -6 -18 -5 -19 11 -4 10 8 25 13 33 10 8 -2
12 -1 8 3 -8 8 -72 13 -100 7z"/>
<path d="M1410 1566 c0 -2 7 -7 16 -10 8 -3 12 -2 9 4 -6 10 -25 14 -25 6z"/>
<path d="M1475 1560 c3 -5 11 -10 16 -10 6 0 7 5 4 10 -3 6 -11 10 -16 10 -6
0 -7 -4 -4 -10z"/>
<path d="M3879 1563 c0 -4 -2 -16 -4 -25 -3 -18 10 -25 19 -10 2 4 17 8 33 7
23 0 28 -4 27 -23 -1 -13 4 -21 12 -20 7 2 20 -6 29 -17 10 -13 14 -15 13 -5
-2 8 -7 18 -12 22 -6 4 -4 14 4 25 8 10 11 15 6 11 -5 -4 -21 -1 -37 7 -15 8
-34 12 -42 9 -8 -3 -22 2 -31 11 -9 9 -16 13 -17 8z"/>
<path d="M1454 1552 c3 -5 0 -13 -6 -15 -9 -4 -10 -6 -1 -6 17 -1 25 16 12 25
-7 4 -9 3 -5 -4z"/>
<path d="M1515 1549 c-4 -6 -5 -12 -2 -15 2 -3 7 2 10 11 7 17 1 20 -8 4z"/>
<path d="M1414 1533 c2 -9 8 -18 15 -19 6 -1 7 0 1 3 -5 2 -8 9 -5 13 3 5 1
11 -4 14 -5 4 -8 -2 -7 -11z"/>
<path d="M1535 1541 c-6 -11 13 -26 22 -17 4 3 1 6 -6 6 -7 0 -9 5 -6 10 3 6
4 10 1 10 -3 0 -7 -4 -11 -9z"/>
<path d="M1470 1518 c0 -4 7 -8 15 -8 8 0 15 4 15 8 0 5 -7 9 -15 9 -8 0 -15
-4 -15 -9z"/>
<path d="M1515 1509 c-4 -6 -5 -12 -2 -15 2 -3 7 2 10 11 7 17 1 20 -8 4z"/>
<path d="M1445 1500 c-4 -6 -1 -18 7 -27 11 -15 11 -16 -4 -10 -10 3 -18 2
-18 -3 0 -13 27 -13 35 -1 3 5 1 12 -5 16 -5 3 -10 11 -10 16 0 6 5 7 12 3 7
-4 8 -3 4 4 -9 15 -13 15 -21 2z"/>
<path d="M1535 1500 c-11 -17 9 -60 28 -60 7 0 4 5 -7 11 -15 9 -16 13 -5 20
10 6 11 9 2 9 -7 0 -13 5 -13 11 0 5 4 8 9 4 5 -3 12 -2 15 3 3 5 -2 9 -10 9
-8 0 -17 -3 -19 -7z"/>
<path d="M1480 1479 c0 -5 5 -7 12 -3 8 5 9 1 4 -12 -5 -14 -4 -16 5 -7 6 6 8
16 5 22 -9 14 -26 14 -26 0z"/>
<path d="M1574 1473 c2 -9 8 -18 15 -19 6 -1 7 0 2 2 -6 3 -7 12 -4 20 3 8 1
14 -5 14 -6 0 -9 -8 -8 -17z"/>
<path d="M3962 1477 c-10 -11 -9 -17 2 -26 18 -15 31 2 18 25 -7 13 -10 13
-20 1z"/>
<path d="M1505 1440 c-3 -6 1 -7 9 -4 18 7 21 14 7 14 -6 0 -13 -4 -16 -10z"/>
<path d="M4050 1419 c0 -5 5 -7 10 -4 6 3 10 8 10 11 0 2 -4 4 -10 4 -5 0 -10
-5 -10 -11z"/>
<path d="M4093 1417 c-3 -5 0 -14 6 -20 9 -9 10 -7 5 7 -5 13 -4 17 4 12 6 -3
13 -3 16 2 3 5 -2 9 -10 9 -8 0 -17 -4 -21 -10z"/>
<path d="M4147 1416 c5 -14 3 -17 -7 -11 -9 5 -11 4 -6 -4 4 -6 11 -9 16 -6 4
3 11 -1 13 -7 3 -7 6 -8 6 -2 1 5 -6 19 -14 30 -15 18 -15 18 -8 0z"/>
<path d="M4170 1419 c0 -5 5 -7 10 -4 6 3 10 8 10 11 0 2 -4 4 -10 4 -5 0 -10
-5 -10 -11z"/>
<path d="M4054 1389 c3 -15 36 -21 36 -7 0 6 -6 8 -14 5 -8 -3 -17 -2 -20 4
-2 5 -3 4 -2 -2z"/>
<path d="M4099 1368 c-1 -7 -1 -16 0 -20 2 -12 -17 -10 -22 2 -3 6 -4 5 -3 -2
4 -22 29 -14 32 10 2 12 2 22 -1 22 -3 0 -6 -6 -6 -12z"/>
<path d="M4170 1360 c0 -5 5 -10 10 -10 6 0 10 5 10 10 0 6 -4 10 -10 10 -5 0
-10 -4 -10 -10z"/>
<path d="M4120 1332 c-18 -15 -20 -19 -7 -19 10 0 15 3 12 5 -3 3 3 11 13 18
9 7 14 14 11 14 -4 0 -17 -8 -29 -18z"/>
<path d="M4156 1331 c-3 -5 1 -11 9 -14 9 -4 12 -1 8 9 -6 16 -10 17 -17 5z"/>
<path d="M4067 1319 c7 -7 15 -10 18 -7 3 3 -2 9 -12 12 -14 6 -15 5 -6 -5z"/>
<path d="M4139 1308 c-6 -21 -5 -37 2 -32 5 3 7 9 4 14 -3 4 1 11 7 13 10 4
10 6 1 6 -7 1 -13 0 -14 -1z"/>
<path d="M4190 1299 c0 -5 5 -7 10 -4 6 3 10 8 10 11 0 2 -4 4 -10 4 -5 0 -10
-5 -10 -11z"/>
<path d="M4168 1282 c8 -5 13 -13 12 -18 0 -5 7 -10 17 -11 17 -3 17 -2 0 5
-10 4 -18 12 -17 17 1 5 -4 11 -12 13 -11 3 -11 2 0 -6z"/>
<path d="M4150 1265 c0 -5 5 -17 10 -25 5 -8 10 -10 10 -5 0 6 -5 17 -10 25
-5 8 -10 11 -10 5z"/>
<path d="M4134 1241 c2 -14 9 -27 17 -29 11 -3 12 -2 1 6 -8 5 -13 12 -12 16
1 4 -1 12 -4 19 -2 6 -3 1 -2 -12z"/>
<path d="M4074 1238 c-4 -7 -4 -10 1 -6 4 4 14 0 21 -10 12 -15 12 -15 7 6 -6
24 -18 29 -29 10z"/>
<path d="M4175 1220 c-3 -5 -3 -10 2 -10 4 0 1 -5 -7 -10 -11 -7 -11 -10 -2
-10 7 0 10 -5 6 -12 -4 -6 -3 -8 4 -4 6 3 9 16 7 27 -3 15 0 19 11 15 9 -3 12
-1 9 4 -8 13 -22 13 -30 0z"/>
<path d="M4075 1200 c6 -30 16 -40 12 -12 -2 12 -6 24 -10 28 -3 4 -4 -4 -2
-16z"/>
<path d="M1802 1196 c-11 -18 -8 -55 5 -60 8 -3 10 1 6 11 -4 11 -2 14 5 9 7
-4 12 -2 12 3 0 6 -5 11 -11 11 -5 0 -7 5 -3 11 5 8 9 8 14 -1 5 -8 9 -7 14 5
3 9 6 18 6 20 0 8 -42 0 -48 -9z"/>
<path d="M1850 1177 c-11 -18 -20 -35 -20 -39 0 -11 34 -2 38 10 2 7 8 10 13
6 15 -9 10 8 -6 20 -13 9 -9 11 19 12 19 0 33 -3 30 -8 -3 -4 3 -5 13 -2 16 6
15 4 -2 -10 -11 -10 -14 -14 -7 -11 11 6 12 3 3 -14 -7 -12 -9 -26 -6 -31 3
-5 -6 -7 -19 -4 -21 3 -24 1 -21 -17 4 -17 2 -19 -11 -8 -8 6 -17 9 -21 6 -3
-4 -13 -1 -21 6 -13 10 -14 9 -3 -10 10 -19 9 -22 -4 -17 -8 3 -12 10 -9 15 3
5 1 9 -4 9 -5 0 -9 7 -9 14 0 11 5 12 17 6 10 -5 20 -6 24 -3 12 12 6 18 -23
19 -26 1 -28 -1 -27 -31 0 -18 4 -31 9 -28 4 2 7 0 7 -6 0 -10 25 -9 36 2 10
10 26 9 20 -1 -3 -5 1 -9 9 -9 7 0 19 12 25 26 11 25 12 25 26 7 7 -11 17 -16
21 -12 4 4 1 11 -6 15 -10 7 -8 10 8 16 21 6 21 8 5 19 -9 7 -14 18 -10 24 12
19 16 53 5 47 -5 -4 -14 -3 -21 1 -31 19 -59 13 -78 -19z"/>
<path d="M4111 1200 c-9 -5 -4 -7 13 -7 29 0 32 2 13 10 -8 3 -20 2 -26 -3z"/>
<path d="M1894 1171 c7 -11 -6 -43 -17 -42 -4 1 -8 -2 -9 -6 0 -5 -7 -13 -15
-18 -12 -9 -11 -11 6 -11 11 0 18 3 15 7 -2 4 3 12 11 19 12 10 15 10 15 -1 1
-11 3 -10 10 2 12 20 7 52 -10 57 -7 3 -10 0 -6 -7z"/>
<path d="M4120 1175 c0 -5 5 -17 10 -25 5 -8 10 -10 10 -5 0 6 -5 17 -10 25
-5 8 -10 11 -10 5z"/>
<path d="M4084 1154 c-18 -14 -18 -15 4 -4 12 6 22 13 22 15 0 8 -5 6 -26 -11z"/>
<path d="M4175 1150 c6 -10 4 -12 -8 -7 -10 3 -17 2 -17 -3 0 -13 27 -13 35
-1 3 5 0 13 -6 17 -8 5 -9 3 -4 -6z"/>
<path d="M4050 1125 c0 -8 29 -12 39 -5 9 5 4 8 -13 8 -14 0 -26 -2 -26 -3z"/>
<path d="M4134 1115 c1 -9 12 -22 24 -31 20 -13 21 -13 16 1 -3 8 -13 15 -21
15 -8 0 -12 4 -8 9 3 5 1 12 -4 15 -5 4 -8 -1 -7 -9z"/>
<path d="M4180 1120 c-12 -7 -10 -9 7 -7 12 0 19 5 17 9 -6 10 -6 10 -24 -2z"/>
<path d="M4110 1111 c0 -7 -5 -9 -12 -5 -7 5 -8 3 -3 -5 5 -9 10 -10 18 -2 6
6 8 14 4 18 -4 3 -7 1 -7 -6z"/>
<path d="M4074 1079 c-3 -6 -3 -13 0 -16 3 -4 6 -1 6 5 0 6 7 9 15 6 8 -4 15
-4 15 -1 0 11 -30 16 -36 6z"/>
<path d="M3153 1055 c-3 -9 -3 -19 1 -22 3 -4 6 -1 6 5 0 20 28 13 35 -9 4
-11 9 -18 12 -15 8 7 -25 56 -38 56 -5 0 -12 -7 -16 -15z"/>
<path d="M4135 1061 c-3 -5 0 -13 6 -17 7 -4 9 -3 5 4 -3 5 0 13 6 15 9 4 10
6 1 6 -6 1 -14 -3 -18 -8z"/>
<path d="M4190 1059 c0 -5 5 -7 10 -4 6 3 10 8 10 11 0 2 -4 4 -10 4 -5 0 -10
-5 -10 -11z"/>
<path d="M3030 1051 c0 -6 4 -13 10 -16 6 -3 7 1 4 9 -7 18 -14 21 -14 7z"/>
<path d="M3860 1054 c0 -5 7 -18 15 -28 8 -11 15 -16 15 -10 0 5 -7 18 -15 28
-8 11 -15 16 -15 10z"/>
<path d="M4113 1034 c0 -17 2 -22 7 -13 5 6 6 18 3 26 -8 19 -10 16 -10 -13z"/>
<path d="M2072 1041 c-11 -7 -11 -9 0 -14 9 -3 15 1 15 9 0 8 -1 14 -1 14 -1
0 -7 -4 -14 -9z"/>
<path d="M2720 1040 c-9 -6 -10 -10 -3 -10 6 0 15 5 18 10 8 12 4 12 -15 0z"/>
<path d="M3485 1039 c-4 -6 -5 -12 -2 -15 2 -3 7 2 10 11 7 17 1 20 -8 4z"/>
<path d="M3680 1040 c-9 -6 -10 -10 -3 -10 6 0 15 5 18 10 8 12 4 12 -15 0z"/>
<path d="M4050 1042 c0 -4 12 -8 28 -9 23 -1 24 -1 7 7 -26 11 -35 12 -35 2z"/>
<path d="M4168 1042 c8 -5 13 -13 12 -18 0 -5 7 -10 17 -11 17 -3 17 -2 0 5
-10 4 -18 12 -17 17 1 5 -4 11 -12 13 -11 3 -11 2 0 -6z"/>
<path d="M2175 1030 c-7 -12 19 -24 37 -17 7 3 3 6 -10 6 -13 1 -20 5 -17 11
3 6 4 10 1 10 -3 0 -8 -5 -11 -10z"/>
<path d="M2500 1031 c0 -7 -4 -9 -10 -6 -5 3 -15 -5 -21 -19 -7 -14 -16 -23
-22 -19 -6 4 -7 1 -2 -7 6 -10 11 -9 22 5 7 11 13 23 13 28 0 4 4 6 9 2 11 -6
26 13 17 22 -3 4 -6 1 -6 -6z"/>
<path d="M2851 1033 c-1 -17 16 -25 25 -12 4 7 3 9 -4 5 -5 -3 -13 0 -15 6 -4
9 -6 10 -6 1z"/>
<path d="M2937 1034 c-10 -11 3 -24 23 -24 23 0 35 16 19 26 -8 4 -9 3 -5 -4
5 -8 -1 -12 -14 -12 -12 0 -18 5 -15 10 7 11 2 13 -8 4z"/>
<path d="M3056 1023 c-6 -14 -5 -15 5 -6 7 7 10 15 7 18 -3 3 -9 -2 -12 -12z"/>
<path d="M3375 1030 c-7 -12 19 -24 37 -17 7 3 3 6 -10 6 -13 1 -20 5 -17 11
3 6 4 10 1 10 -3 0 -8 -5 -11 -10z"/>
<path d="M3811 1033 c-1 -17 16 -25 25 -12 4 7 3 9 -4 5 -5 -3 -13 0 -15 6 -4
9 -6 10 -6 1z"/>
<path d="M1973 1015 c0 -8 4 -12 9 -9 5 3 6 10 3 15 -9 13 -12 11 -12 -6z"/>
<path d="M2030 1020 c0 -5 5 -10 10 -10 6 0 10 5 10 10 0 6 -4 10 -10 10 -5 0
-10 -4 -10 -10z"/>
<path d="M2130 1026 c0 -3 9 -10 20 -16 11 -6 20 -8 20 -6 0 3 -9 10 -20 16
-11 6 -20 8 -20 6z"/>
<path d="M2390 1020 c0 -5 5 -10 10 -10 6 0 10 5 10 10 0 6 -4 10 -10 10 -5 0
-10 -4 -10 -10z"/>
<path d="M2536 1022 c-8 -13 0 -46 12 -50 6 -2 16 7 22 20 10 21 10 21 -3 6
-18 -23 -22 -23 -24 2 -1 13 2 18 9 14 7 -4 8 -2 4 4 -8 14 -13 15 -20 4z"/>
<path d="M2615 1019 c-4 -6 -4 -13 -1 -16 3 -4 6 -1 6 6 0 7 5 9 12 5 7 -4 8
-3 4 4 -9 15 -13 15 -21 1z"/>
<path d="M2657 1024 c-8 -8 3 -34 15 -34 6 0 4 8 -3 17 -12 15 -12 16 4 10 9
-3 17 -2 17 3 0 11 -23 14 -33 4z"/>
<path d="M2736 1022 c-11 -18 2 -47 20 -47 10 0 22 -9 26 -20 6 -17 7 -16 5 5
-2 19 -7 24 -22 22 -15 -2 -21 3 -22 18 -1 12 2 18 9 14 7 -4 8 -2 4 4 -8 14
-13 15 -20 4z"/>
<path d="M2777 1022 c-3 -4 3 -18 14 -31 10 -13 19 -20 19 -15 0 4 -8 16 -17
27 -17 19 -17 20 0 14 9 -4 17 -2 17 3 0 12 -27 13 -33 2z"/>
<path d="M3093 1013 c-8 -21 2 -36 28 -40 18 -2 20 -1 9 6 -8 5 -18 7 -22 5
-4 -3 -8 4 -8 16 0 12 4 19 8 16 4 -2 14 -1 22 4 11 7 9 9 -9 7 -13 -1 -25 -7
-28 -14z"/>
<path d="M3165 1019 c-5 -8 -4 -10 3 -5 8 5 12 -1 12 -14 0 -12 -4 -19 -9 -15
-5 3 -12 1 -15 -4 -4 -5 2 -8 11 -7 10 2 20 11 21 21 5 23 -13 41 -23 24z"/>
<path d="M3257 1023 c-2 -5 -3 -16 -1 -26 2 -13 -2 -17 -12 -13 -8 3 -14 1
-14 -5 0 -6 8 -9 18 -7 11 2 17 12 16 26 -1 16 3 21 12 18 8 -3 14 -1 14 4 0
12 -27 13 -33 3z"/>
<path d="M3575 1019 c-4 -6 -4 -13 -1 -16 3 -4 6 -1 6 6 0 7 5 9 12 5 7 -4 8
-3 4 4 -9 15 -13 15 -21 1z"/>
<path d="M3627 1024 c7 -3 16 -5 20 -5 5 0 13 -10 20 -22 7 -12 12 -17 12 -12
1 20 -18 39 -41 41 -13 2 -17 0 -11 -2z"/>
<path d="M3696 1022 c-11 -18 2 -47 20 -47 10 0 22 -9 26 -20 6 -17 7 -16 5 5
-2 19 -7 24 -22 22 -15 -2 -21 3 -22 18 -1 12 2 18 9 14 7 -4 8 -2 4 4 -8 14
-13 15 -20 4z"/>
<path d="M3737 1022 c-3 -4 3 -18 14 -31 10 -13 19 -20 19 -15 0 4 -8 16 -17
27 -17 19 -17 20 0 14 9 -4 17 -2 17 3 0 12 -27 13 -33 2z"/>
<path d="M3856 1002 c1 -25 34 -47 34 -23 0 6 -6 8 -14 5 -11 -4 -13 0 -9 14
2 11 1 22 -4 25 -5 3 -8 -7 -7 -21z"/>
<path d="M4136 1022 c-9 -15 0 -46 15 -50 8 -2 10 0 4 5 -5 4 -11 17 -13 28
-3 20 -2 20 13 1 8 -11 15 -15 15 -9 0 15 -27 36 -34 25z"/>
<path d="M2427 1009 c-9 -6 -15 -14 -12 -20 4 -5 -3 -9 -14 -9 -12 0 -20 5
-18 11 1 6 -5 14 -13 16 -12 4 -12 3 -2 -5 8 -5 13 -13 13 -18 -1 -5 8 -9 19
-9 11 0 20 4 19 8 0 5 8 15 18 23 21 16 16 18 -10 3z"/>
<path d="M2700 1015 c0 -5 5 -17 10 -25 5 -8 10 -10 10 -5 0 6 -5 17 -10 25
-5 8 -10 11 -10 5z"/>
<path d="M2821 1008 c-1 -20 14 -24 25 -6 4 6 3 8 -4 4 -5 -3 -13 0 -15 6 -3
8 -6 6 -6 -4z"/>
<path d="M3781 1008 c-1 -20 14 -24 25 -6 4 6 3 8 -4 4 -5 -3 -13 0 -15 6 -3
8 -6 6 -6 -4z"/>
<path d="M3911 1011 c-7 -5 -12 -14 -10 -20 2 -6 10 -2 17 9 14 22 13 23 -7
11z"/>
<path d="M1985 984 c-11 -17 -12 -24 -4 -18 23 14 41 13 35 -2 -3 -8 -1 -14 5
-14 6 0 9 8 7 18 -2 9 -10 16 -16 15 -16 -4 -15 14 1 20 7 4 8 6 1 6 -7 1 -19
-11 -29 -25z"/>
<path d="M2060 1005 c0 -8 29 -12 39 -5 9 5 4 8 -13 8 -14 0 -26 -2 -26 -3z"/>
<path d="M2220 1000 c-9 -6 -10 -10 -3 -10 6 0 15 5 18 10 8 12 4 12 -15 0z"/>
<path d="M2275 1000 c3 -5 11 -10 16 -10 6 0 7 5 4 10 -3 6 -11 10 -16 10 -6
0 -7 -4 -4 -10z"/>
<path d="M2875 1000 c-3 -6 -1 -18 5 -27 9 -16 10 -15 5 4 -5 18 -3 22 9 17 9
-3 16 -4 16 -1 0 10 -30 16 -35 7z"/>
<path d="M3030 1000 c0 -6 7 -10 15 -10 8 0 15 2 15 4 0 2 -7 6 -15 10 -8 3
-15 1 -15 -4z"/>
<path d="M3130 1000 c0 -5 5 -10 10 -10 6 0 10 5 10 10 0 6 -4 10 -10 10 -5 0
-10 -4 -10 -10z"/>
<path d="M3215 999 c-11 -16 -1 -19 13 -3 7 8 8 14 3 14 -5 0 -13 -5 -16 -11z"/>
<path d="M3327 990 c10 -11 19 -20 21 -20 1 0 -2 9 -8 20 -6 11 -15 20 -20 20
-6 0 -2 -9 7 -20z"/>
<path d="M3355 1000 c-3 -5 -1 -10 4 -10 6 0 11 5 11 10 0 6 -2 10 -4 10 -3 0
-8 -4 -11 -10z"/>
<path d="M3490 1000 c0 -5 5 -10 10 -10 6 0 10 5 10 10 0 6 -4 10 -10 10 -5 0
-10 -4 -10 -10z"/>
<path d="M3615 1000 c3 -5 11 -10 16 -10 6 0 7 5 4 10 -3 6 -11 10 -16 10 -6
0 -7 -4 -4 -10z"/>
<path d="M3835 999 c-4 -6 -5 -12 -2 -15 2 -3 7 2 10 11 7 17 1 20 -8 4z"/>
<path d="M3980 995 c-10 -12 -9 -16 4 -21 9 -3 23 -3 32 0 13 5 14 9 4 21 -7
8 -16 15 -20 15 -4 0 -13 -7 -20 -15z m35 -5 c3 -5 -3 -10 -15 -10 -12 0 -18
5 -15 10 3 6 10 10 15 10 5 0 12 -4 15 -10z"/>
<path d="M4090 990 c9 -17 30 -20 30 -4 0 3 -4 2 -10 -1 -5 -3 -10 1 -10 9 0
9 -5 16 -10 16 -7 0 -7 -7 0 -20z"/>
<path d="M2255 990 c3 -5 0 -10 -8 -10 -8 0 -17 -7 -21 -15 -5 -13 -2 -13 19
1 21 14 26 34 9 34 -3 0 -2 -4 1 -10z"/>
<path d="M2491 993 c-1 -17 16 -25 25 -12 4 7 3 9 -4 5 -5 -3 -13 0 -15 6 -4
9 -6 10 -6 1z"/>
<path d="M2636 987 c3 -10 9 -15 12 -12 3 3 0 11 -7 18 -10 9 -11 8 -5 -6z"/>
<path d="M3288 993 c6 -2 9 -10 6 -15 -4 -7 -2 -8 5 -4 13 9 5 26 -12 25 -9 0
-8 -2 1 -6z"/>
<path d="M3511 973 c-10 -26 -10 -27 4 -9 8 11 15 23 15 28 0 15 -7 8 -19 -19z"/>
<path d="M3596 987 c3 -10 9 -15 12 -12 3 3 0 11 -7 18 -10 9 -11 8 -5 -6z"/>
<path d="M3931 993 c-1 -17 16 -25 25 -12 4 7 3 9 -4 5 -5 -3 -13 0 -15 6 -4
9 -6 10 -6 1z"/>
<path d="M4060 991 c0 -7 -5 -9 -12 -5 -7 5 -8 3 -3 -5 5 -9 10 -10 18 -2 6 6
8 14 4 18 -4 3 -7 1 -7 -6z"/>
<path d="M2057 983 c-2 -5 -3 -15 -2 -23 0 -8 -9 -18 -20 -22 -17 -6 -16 -7 5
-5 14 2 24 8 22 15 -2 10 4 12 20 7 l23 -6 -23 14 c-12 7 -19 16 -16 20 4 4 5
7 1 7 -3 0 -8 -3 -10 -7z"/>
<path d="M2094 979 c-4 -7 -3 -9 4 -5 5 3 13 0 15 -6 4 -9 6 -10 6 -1 1 17
-16 25 -25 12z"/>
<path d="M2139 987 c0 -1 -2 -13 -5 -27 -3 -18 -2 -21 5 -10 5 8 7 18 5 22 -3
4 -1 8 5 8 5 0 12 -6 14 -12 4 -10 6 -10 6 0 1 8 6 10 14 6 6 -4 9 -3 4 1 -7
8 -46 18 -48 12z"/>
<path d="M2310 981 c0 -6 4 -13 10 -16 6 -3 7 1 4 9 -7 18 -14 21 -14 7z"/>
<path d="M2614 982 c3 -5 0 -13 -6 -15 -9 -4 -10 -6 -1 -6 17 -1 25 16 12 25
-7 4 -9 3 -5 -4z"/>
<path d="M2955 979 c-11 -16 -1 -19 13 -3 7 8 8 14 3 14 -5 0 -13 -5 -16 -11z"/>
<path d="M3001 982 c9 -4 15 -15 13 -24 -1 -10 3 -21 8 -25 7 -4 8 -1 3 7 -6
10 -4 12 8 7 8 -3 18 0 20 7 4 10 -1 12 -14 9 -13 -4 -19 -1 -17 8 2 7 -6 14
-17 16 -16 2 -16 1 -4 -5z"/>
<path d="M3073 964 c0 -17 2 -22 7 -13 5 6 6 18 3 26 -8 19 -10 16 -10 -13z"/>
<path d="M3374 979 c-4 -7 -3 -9 4 -5 5 3 13 0 15 -6 4 -9 6 -10 6 -1 1 17
-16 25 -25 12z"/>
<path d="M3419 987 c0 -1 -2 -13 -5 -27 -3 -18 -2 -21 5 -10 5 8 7 18 5 22 -3
4 -1 8 5 8 5 0 12 -6 14 -12 4 -10 6 -10 6 0 1 8 6 10 14 6 6 -4 9 -3 4 1 -7
8 -46 18 -48 12z"/>
<path d="M3574 982 c3 -5 0 -13 -6 -15 -9 -4 -10 -6 -1 -6 17 -1 25 16 12 25
-7 4 -9 3 -5 -4z"/>
<path d="M4175 980 c-3 -5 -3 -10 2 -10 4 0 1 -5 -7 -10 -11 -7 -11 -10 -2
-10 7 0 10 -5 6 -12 -4 -6 -3 -8 4 -4 6 3 9 16 7 27 -3 15 0 19 11 15 9 -3 12
-1 9 4 -8 13 -22 13 -30 0z"/>
<path d="M2197 967 c-3 -8 -2 -20 3 -26 5 -9 8 -4 8 13 0 29 -3 32 -11 13z"/>
<path d="M2913 965 c0 -8 4 -15 9 -15 4 0 8 7 8 15 0 8 -4 15 -8 15 -5 0 -9
-7 -9 -15z"/>
<path d="M3477 967 c-3 -8 -2 -20 3 -26 5 -9 8 -4 8 13 0 29 -3 32 -11 13z"/>
<path d="M2270 960 c0 -6 7 -10 15 -10 8 0 15 2 15 4 0 2 -7 6 -15 10 -8 3
-15 1 -15 -4z"/>
<path d="M2351 960 c-9 -5 -4 -7 13 -7 29 0 32 2 13 10 -8 3 -20 2 -26 -3z"/>
<path d="M2421 960 c-9 -5 -4 -7 13 -7 29 0 32 2 13 10 -8 3 -20 2 -26 -3z"/>
<path d="M2511 960 c-9 -5 -4 -7 13 -7 29 0 32 2 13 10 -8 3 -20 2 -26 -3z"/>
<path d="M2660 965 c0 -8 29 -12 39 -5 9 5 4 8 -13 8 -14 0 -26 -2 -26 -3z"/>
<path d="M2710 952 c-12 -13 -26 -52 -15 -40 2 1 3 7 4 11 0 5 8 15 18 22 10
7 16 16 13 18 -3 3 -12 -2 -20 -11z"/>
<path d="M2820 965 c0 -8 29 -12 39 -5 9 5 4 8 -13 8 -14 0 -26 -2 -26 -3z"/>
<path d="M2977 953 c5 -12 3 -14 -7 -8 -9 5 -11 4 -6 -4 4 -6 12 -9 17 -6 12
8 12 35 -1 35 -5 0 -6 -7 -3 -17z"/>
<path d="M3213 957 c1 -10 7 -18 12 -17 6 1 13 -9 17 -22 l6 -23 1 23 c1 15 5
21 13 16 6 -4 8 -3 5 4 -4 5 -15 9 -25 8 -9 -2 -20 4 -24 13 -7 14 -7 13 -5
-2z"/>
<path d="M3270 961 c0 -5 5 -13 10 -16 6 -3 10 -2 10 4 0 5 -4 13 -10 16 -5 3
-10 2 -10 -4z"/>
<path d="M3310 955 c0 -8 4 -15 8 -15 5 0 9 7 9 15 0 8 -4 15 -9 15 -4 0 -8
-7 -8 -15z"/>
<path d="M3620 965 c0 -8 29 -12 39 -5 9 5 4 8 -13 8 -14 0 -26 -2 -26 -3z"/>
<path d="M3670 952 c-12 -13 -26 -52 -15 -40 2 1 3 7 4 11 0 5 8 15 18 22 10
7 16 16 13 18 -3 3 -12 -2 -20 -11z"/>
<path d="M3780 965 c0 -8 29 -12 39 -5 9 5 4 8 -13 8 -14 0 -26 -2 -26 -3z"/>
<path d="M3830 952 c-12 -13 -26 -52 -15 -40 2 1 3 7 4 11 0 5 8 15 18 22 10
7 16 16 13 18 -3 3 -12 -2 -20 -11z"/>
<path d="M3900 957 c0 -10 -7 -15 -20 -12 -11 2 -23 -1 -26 -7 -4 -6 -3 -8 4
-4 5 3 13 0 15 -6 4 -10 6 -10 6 0 1 7 6 10 11 7 11 -7 26 22 16 32 -3 4 -6
-1 -6 -10z"/>
<path d="M3951 960 c-9 -5 -4 -7 13 -7 29 0 32 2 13 10 -8 3 -20 2 -26 -3z"/>
<path d="M4021 960 c-9 -5 -4 -7 13 -7 29 0 32 2 13 10 -8 3 -20 2 -26 -3z"/>
<path d="M4111 960 c-9 -5 -4 -7 13 -7 29 0 32 2 13 10 -8 3 -20 2 -26 -3z"/>
<path d="M3110 952 c0 -7 -5 -10 -12 -6 -7 4 -8 3 -4 -5 4 -6 12 -9 17 -6 5 4
9 1 9 -6 0 -7 3 -10 6 -6 3 3 1 14 -5 24 -6 11 -11 13 -11 5z"/>
<path d="M3168 953 c6 -2 9 -10 6 -15 -4 -7 -2 -8 5 -4 13 9 5 26 -12 25 -9 0
-8 -2 1 -6z"/>
<path d="M3350 950 c0 -5 7 -7 15 -4 8 4 15 8 15 10 0 2 -7 4 -15 4 -8 0 -15
-4 -15 -10z"/>
<path d="M1973 935 c0 -8 4 -12 9 -9 5 3 6 10 3 15 -9 13 -12 11 -12 -6z"/>
<path d="M2150 938 c0 -6 6 -8 14 -5 8 3 17 2 20 -4 2 -5 3 -4 2 2 -3 15 -36
21 -36 7z"/>
<path d="M2310 940 c0 -5 5 -10 10 -10 6 0 10 5 10 10 0 6 -4 10 -10 10 -5 0
-10 -4 -10 -10z"/>
<path d="M2470 940 c0 -5 5 -10 10 -10 6 0 10 5 10 10 0 6 -4 10 -10 10 -5 0
-10 -4 -10 -10z"/>
<path d="M2555 939 c-11 -16 -1 -19 13 -3 7 8 8 14 3 14 -5 0 -13 -5 -16 -11z"/>
<path d="M2596 939 c3 -5 9 -7 14 -4 4 3 11 0 13 -5 3 -6 4 -5 3 1 -1 7 -10
13 -19 15 -9 1 -15 -2 -11 -7z"/>
<path d="M2655 940 c-3 -5 -3 -10 2 -10 4 0 1 -5 -7 -10 -8 -5 -10 -10 -5 -10
6 0 17 5 25 10 11 7 11 10 2 10 -7 0 -10 5 -7 10 3 6 4 10 1 10 -3 0 -8 -4
-11 -10z"/>
<path d="M2735 940 c-3 -5 -3 -10 2 -10 4 0 0 -5 -9 -11 -10 -5 -18 -14 -18
-19 0 -6 9 -2 19 7 11 9 17 21 14 26 -4 6 1 8 10 4 10 -3 17 -2 17 3 0 13 -27
13 -35 0z"/>
<path d="M2816 941 c-3 -5 1 -14 9 -21 10 -9 15 -9 15 -1 0 6 -5 11 -11 11 -5
0 -7 5 -4 10 3 6 4 10 1 10 -3 0 -7 -4 -10 -9z"/>
<path d="M2859 948 c-6 -21 -5 -37 2 -32 5 3 7 9 4 14 -3 4 1 11 7 13 10 4 10
6 1 6 -7 1 -13 0 -14 -1z"/>
<path d="M2896 922 c1 -25 34 -47 34 -23 0 6 -6 8 -14 5 -11 -4 -13 0 -9 14 2
11 1 22 -4 25 -5 3 -8 -7 -7 -21z"/>
<path d="M2937 943 c-3 -5 -1 -17 3 -27 6 -17 7 -18 13 -3 3 9 2 17 -4 17 -6
0 -7 5 -4 10 3 6 4 10 1 10 -3 0 -7 -3 -9 -7z"/>
<path d="M3430 938 c0 -6 6 -8 14 -5 8 3 17 2 20 -4 2 -5 3 -4 2 2 -3 15 -36
21 -36 7z"/>
<path d="M3556 939 c3 -5 9 -7 14 -4 4 3 11 0 13 -5 3 -6 4 -5 3 1 -1 7 -10
13 -19 15 -9 1 -15 -2 -11 -7z"/>
<path d="M3615 940 c-3 -5 -3 -10 2 -10 4 0 1 -5 -7 -10 -8 -5 -10 -10 -5 -10
6 0 17 5 25 10 11 7 11 10 2 10 -7 0 -10 5 -7 10 3 6 4 10 1 10 -3 0 -8 -4
-11 -10z"/>
<path d="M3695 940 c-3 -5 -3 -10 2 -10 4 0 0 -5 -9 -11 -10 -5 -18 -14 -18
-19 0 -6 9 -2 19 7 11 9 17 21 14 26 -4 6 1 8 10 4 10 -3 17 -2 17 3 0 13 -27
13 -35 0z"/>
<path d="M3776 941 c-3 -5 1 -14 9 -21 10 -9 15 -9 15 -1 0 6 -5 11 -11 11 -5
0 -7 5 -4 10 3 6 4 10 1 10 -3 0 -7 -4 -10 -9z"/>
<path d="M3916 933 c-6 -14 -5 -15 5 -6 7 7 10 15 7 18 -3 3 -9 -2 -12 -12z"/>
<path d="M4070 940 c0 -5 5 -10 10 -10 6 0 10 5 10 10 0 6 -4 10 -10 10 -5 0
-10 -4 -10 -10z"/>
<path d="M2227 929 c-9 -6 -15 -15 -11 -20 4 -7 -3 -9 -16 -7 -14 2 -25 -3
-27 -12 -3 -9 -1 -11 4 -5 4 6 17 10 28 10 11 0 19 6 18 13 -2 6 4 12 12 12 8
0 15 5 15 10 0 12 0 12 -23 -1z"/>
<path d="M2361 924 c0 -11 3 -14 6 -6 3 7 2 16 -1 19 -3 4 -6 -2 -5 -13z"/>
<path d="M2390 930 c0 -5 5 -10 10 -10 6 0 10 5 10 10 0 6 -4 10 -10 10 -5 0
-10 -4 -10 -10z"/>
<path d="M2431 924 c0 -11 3 -14 6 -6 3 7 2 16 -1 19 -3 4 -6 -2 -5 -13z"/>
<path d="M2521 924 c0 -11 3 -14 6 -6 3 7 2 16 -1 19 -3 4 -6 -2 -5 -13z"/>
<path d="M3153 920 c1 -14 6 -23 11 -22 5 2 13 -2 18 -10 8 -11 9 -11 6 0 -2
8 -8 13 -13 12 -6 -1 -13 9 -17 22 -7 22 -7 22 -5 -2z"/>
<path d="M3961 924 c0 -11 3 -14 6 -6 3 7 2 16 -1 19 -3 4 -6 -2 -5 -13z"/>
<path d="M3990 930 c0 -5 5 -10 10 -10 6 0 10 5 10 10 0 6 -4 10 -10 10 -5 0
-10 -4 -10 -10z"/>
<path d="M4031 924 c0 -11 3 -14 6 -6 3 7 2 16 -1 19 -3 4 -6 -2 -5 -13z"/>
<path d="M4121 924 c0 -11 3 -14 6 -6 3 7 2 16 -1 19 -3 4 -6 -2 -5 -13z"/>
<path d="M4150 935 c0 -5 5 -17 10 -25 5 -8 10 -10 10 -5 0 6 -5 17 -10 25 -5
8 -10 11 -10 5z"/>
<path d="M2078 923 c7 -3 16 -2 19 1 4 3 -2 6 -13 5 -11 0 -14 -3 -6 -6z"/>
<path d="M2276 922 c-3 -5 1 -9 9 -9 8 0 15 4 15 9 0 4 -4 8 -9 8 -6 0 -12 -4
-15 -8z"/>
<path d="M2577 913 c5 -12 3 -14 -7 -8 -9 5 -11 4 -6 -4 4 -6 12 -9 17 -6 12
8 12 35 -1 35 -5 0 -6 -7 -3 -17z"/>
<path d="M2785 920 c-3 -5 -1 -10 4 -10 6 0 11 5 11 10 0 6 -2 10 -4 10 -3 0
-8 -4 -11 -10z"/>
<path d="M2984 918 c-4 -6 -3 -8 4 -4 5 3 13 0 15 -6 3 -8 6 -6 6 5 1 19 -14
23 -25 5z"/>
<path d="M3040 920 c-8 -5 -12 -11 -10 -14 3 -2 14 2 24 10 22 15 10 19 -14 4z"/>
<path d="M3067 910 c-15 -14 -16 -20 -5 -26 7 -4 10 -4 6 1 -4 4 0 14 10 21 9
7 15 14 12 17 -3 2 -13 -4 -23 -13z"/>
<path d="M3190 923 c0 -5 5 -15 10 -23 7 -12 9 -10 7 8 -1 19 -17 33 -17 15z"/>
<path d="M3280 920 c-8 -5 -12 -11 -10 -14 3 -2 14 2 24 10 22 15 10 19 -14 4z"/>
<path d="M3311 911 c-19 -14 -21 -20 -10 -26 8 -5 11 -4 6 0 -4 5 5 17 20 27
16 10 24 18 18 18 -5 0 -21 -9 -34 -19z"/>
<path d="M3499 923 c-1 -5 -1 -12 0 -16 1 -5 -8 -7 -20 -5 -13 2 -24 -3 -26
-12 -3 -9 -1 -11 4 -5 4 6 16 10 26 10 9 0 17 4 16 9 0 5 5 13 13 17 10 7 10
9 1 9 -7 0 -14 -3 -14 -7z"/>
<path d="M3537 913 c5 -12 3 -14 -7 -8 -9 5 -11 4 -6 -4 4 -6 12 -9 17 -6 12
8 12 35 -1 35 -5 0 -6 -7 -3 -17z"/>
<path d="M3745 920 c-3 -5 -1 -10 4 -10 6 0 11 5 11 10 0 6 -2 10 -4 10 -3 0
-8 -4 -11 -10z"/>
<path d="M4191 914 c0 -11 3 -14 6 -6 3 7 2 16 -1 19 -3 4 -6 -2 -5 -13z"/>
<path d="M1981 898 c-14 -23 -14 -23 8 -4 22 20 25 26 13 26 -4 0 -13 -10 -21
-22z"/>
<path d="M2025 907 c-15 -12 -16 -15 -4 -22 8 -5 11 -5 7 0 -4 4 0 14 10 21
23 18 11 18 -13 1z"/>
<path d="M2340 910 c0 -5 -7 -7 -15 -4 -8 4 -15 2 -15 -4 0 -14 33 -8 38 6 2
7 1 12 -2 12 -3 0 -6 -4 -6 -10z"/>
<path d="M2500 910 c0 -5 -7 -7 -15 -4 -8 4 -15 2 -15 -4 0 -14 33 -8 38 6 2
7 1 12 -2 12 -3 0 -6 -4 -6 -10z"/>
<path d="M3835 910 c-8 -13 3 -30 18 -30 7 0 6 4 -3 10 -13 9 -13 11 0 20 9 6
10 10 3 10 -6 0 -15 -4 -18 -10z"/>
<path d="M3940 910 c0 -5 -7 -7 -15 -4 -8 4 -15 2 -15 -4 0 -14 33 -8 38 6 2
7 1 12 -2 12 -3 0 -6 -4 -6 -10z"/>
<path d="M4100 910 c0 -5 -7 -7 -15 -4 -8 4 -15 2 -15 -4 0 -14 33 -8 38 6 2
7 1 12 -2 12 -3 0 -6 -4 -6 -10z"/>
<path d="M2055 901 c-3 -5 0 -13 6 -17 7 -4 9 -3 5 4 -3 6 2 13 11 15 16 4 16
5 1 6 -9 0 -19 -3 -23 -8z"/>
<path d="M2136 897 c3 -10 9 -15 12 -12 3 3 0 11 -7 18 -10 9 -11 8 -5 -6z"/>
<path d="M2239 892 c-13 -15 -12 -16 3 -4 13 10 17 10 21 0 4 -9 6 -9 6 -1 2
20 -16 24 -30 5z"/>
<path d="M2615 900 c-7 -12 19 -24 37 -17 7 3 3 6 -10 6 -13 1 -20 5 -17 11 3
6 4 10 1 10 -3 0 -8 -5 -11 -10z"/>
<path d="M2750 900 c0 -5 5 -10 10 -10 6 0 10 5 10 10 0 6 -4 10 -10 10 -5 0
-10 -4 -10 -10z"/>
<path d="M2870 901 c0 -6 4 -13 10 -16 6 -3 7 1 4 9 -7 18 -14 21 -14 7z"/>
<path d="M2956 893 c-6 -14 -5 -15 5 -6 7 7 10 15 7 18 -3 3 -9 -2 -12 -12z"/>
<path d="M3095 901 c-3 -5 0 -13 6 -17 7 -4 9 -3 5 4 -3 6 2 13 11 15 16 4 16
5 1 6 -9 0 -19 -3 -23 -8z"/>
<path d="M3335 901 c-3 -5 0 -13 6 -17 7 -4 9 -3 5 4 -3 6 2 13 11 15 16 4 16
5 1 6 -9 0 -19 -3 -23 -8z"/>
<path d="M3416 897 c3 -10 9 -15 12 -12 3 3 0 11 -7 18 -10 9 -11 8 -5 -6z"/>
<path d="M3575 900 c-7 -12 19 -24 37 -17 7 3 3 6 -10 6 -13 1 -20 5 -17 11 3
6 4 10 1 10 -3 0 -8 -5 -11 -10z"/>
<path d="M3710 900 c0 -5 5 -10 10 -10 6 0 10 5 10 10 0 6 -4 10 -10 10 -5 0
-10 -4 -10 -10z"/>
<path d="M2388 883 c6 -2 18 -2 25 0 6 3 1 5 -13 5 -14 0 -19 -2 -12 -5z"/>
<path d="M2788 883 c6 -2 18 -2 25 0 6 3 1 5 -13 5 -14 0 -19 -2 -12 -5z"/>
<path d="M3748 883 c6 -2 18 -2 25 0 6 3 1 5 -13 5 -14 0 -19 -2 -12 -5z"/>
<path d="M3988 883 c6 -2 18 -2 25 0 6 3 1 5 -13 5 -14 0 -19 -2 -12 -5z"/>
</g>
</svg>
