<svg width="764" height="262" viewBox="0 0 764 262" fill="none" xmlns="http://www.w3.org/2000/svg">
<path d="M592.356 182.811C568.615 182.811 551.566 165.125 551.566 140.747C551.566 116.528 568.615 99.0016 591.718 99.0016C614.822 99.0016 632.03 116.528 632.03 140.747C632.03 142.021 631.87 143.933 631.711 145.527H569.89C571.642 158.592 580.884 167.674 592.993 167.674C601.597 167.674 609.564 163.053 613.547 156.202L627.887 165.443C620.717 175.8 606.855 182.811 592.356 182.811ZM570.686 131.984H612.91C610.042 121.308 601.916 114.138 591.718 114.138C581.521 114.138 573.554 121.308 570.686 131.984Z" fill="white"/>
<path d="M516.299 182.542V101.091H534.776V186.909C534.776 198.163 532.593 206.394 528.057 211.265C522.85 217.144 515.627 220 506.389 220L501.349 203.371C506.893 203.371 510.756 201.859 512.94 198.835C515.123 195.644 516.299 190.269 516.299 182.542Z" fill="white"/>
<path d="M537.11 70.6746C537.11 77.0859 531.913 82.2832 525.501 82.2832C519.09 82.2832 513.893 77.0859 513.893 70.6746C513.893 64.2634 519.09 59.0661 525.501 59.0661C531.913 59.0661 537.11 64.2634 537.11 70.6746Z" fill="white"/>
<path d="M654.212 70.67H672.694V101.073H688.787V116.21H672.694V180.739H654.212V116.21H641.199V101.073H654.212V70.67Z" fill="white"/>
<path fill-rule="evenodd" clip-rule="evenodd" d="M260.096 180.739L275.04 150.488H331.848L346.609 180.739H365.885L303.442 53L241 180.739H260.096ZM282.782 134.667L303.442 92.5667L324.103 134.667H282.782Z" fill="white"/>
<path d="M498.593 128.276C492.81 120.902 485.827 114.923 472.786 114.923C459.242 114.923 449.364 125.769 449.364 140.906C449.364 155.883 459.242 166.877 472.786 166.877C485.827 166.877 492.81 160.76 498.593 153.402V174.361C491.646 179.683 482.798 182.811 472.786 182.811C448.726 182.811 431.359 165.125 431.359 140.906C431.359 116.528 448.726 99.0016 472.786 99.0016C482.764 99.0016 491.658 102.036 498.593 107.326V128.276Z" fill="white"/>
<path d="M395.051 180.739H376.615V101.112H395.051V108.741C398.603 104.762 401.559 102.436 403.96 101.304C406.802 99.9651 409.943 99.1013 413.63 99.1013C417.318 99.1013 423.544 100.609 428.74 103.794L420.36 120.554C416.84 118.04 413.488 116.867 410.136 116.867C400.08 116.867 395.051 124.409 395.051 139.493V180.739Z" fill="white"/>
<path d="M146.06 124.715C157.884 127.737 167.658 130.159 188 134.67C167.658 139.181 157.884 141.603 146.06 144.625C142.081 145.641 138.971 148.751 137.954 152.73C134.933 164.551 132.511 174.329 128 194.67C123.489 174.329 121.067 164.551 118.046 152.73C117.029 148.751 113.919 145.641 109.94 144.625C98.1155 141.603 88.3423 139.181 68 134.67C88.3423 130.159 98.1155 127.737 109.94 124.715C113.919 123.699 117.029 120.589 118.046 116.61C121.067 104.789 123.489 95.0112 128 74.67C132.511 95.0112 134.933 104.789 137.954 116.61C138.971 120.589 142.081 123.699 146.06 124.715Z" fill="white"/>
</svg>
