<svg width="106" height="27" viewBox="0 0 106 27" fill="none" xmlns="http://www.w3.org/2000/svg">
<g clip-path="url(#clip0_6322_12563)">
<path d="M62.279 12.141C63.4701 12.141 64.3621 12.5318 64.9315 13.3042C65.4915 14.0624 65.7619 15.2021 65.7619 16.7845V26.2128H70.6161V16.3794C70.6161 13.7657 69.9044 11.7218 68.4998 10.3043C67.0953 8.88673 65.0264 8.1709 62.3502 8.1709C61.0216 8.1709 59.8543 8.36869 58.8863 8.76429C57.9278 9.15517 57.1117 9.79094 56.4569 10.6528L56.267 10.9024L56.0772 10.6528C55.4224 9.78624 54.6015 9.15046 53.6335 8.76429C52.6513 8.36869 51.5077 8.1709 50.2218 8.1709C47.5646 8.1709 45.4958 8.89144 44.0675 10.3043C42.6392 11.7218 41.918 13.7657 41.918 16.3747V26.208H46.7722V16.7797C46.7722 15.2209 47.0521 14.053 47.6026 13.2995C48.172 12.5271 49.064 12.1362 50.2551 12.1362C51.4461 12.1362 52.3808 12.5318 52.974 13.3136C53.5481 14.0765 53.8423 15.2398 53.8423 16.7797V26.208H58.6965V16.7797C58.6965 15.2445 58.9907 14.0765 59.5649 13.3136C60.158 12.5318 61.069 12.1362 62.2838 12.1362L62.279 12.141Z" fill="#9D7FFF"/>
<path d="M80.7292 8.84912H75.875V26.2128H80.7292V8.84912Z" fill="#9D7FFF"/>
<path d="M80.5343 0.75351C79.9649 0.25431 79.2152 0 78.2994 0C77.3836 0 76.6339 0.263728 76.0692 0.786476C75.4998 1.30922 75.2246 1.94029 75.2246 2.71734C75.2246 3.4944 75.4998 4.12547 76.0692 4.64821C76.6339 5.17096 77.3884 5.43469 78.2994 5.43469C79.2105 5.43469 79.9602 5.16625 80.5296 4.63409C81.099 4.09721 81.379 3.43789 81.379 2.61845C81.379 1.86965 81.1037 1.26213 80.5343 0.758219V0.75351Z" fill="#9D7FFF"/>
<path d="M105.159 21.8236C104.59 21.3244 103.84 21.0701 102.924 21.0701C102.009 21.0701 101.259 21.3338 100.694 21.8565C100.125 22.3793 99.8496 23.0104 99.8496 23.7874C99.8496 24.5645 100.125 25.1955 100.694 25.7183C101.259 26.241 102.013 26.5048 102.924 26.5048C103.835 26.5048 104.585 26.2363 105.155 25.7042C105.724 25.1673 106.004 24.508 106.004 23.6885C106.004 22.9397 105.729 22.3322 105.159 21.8283V21.8236Z" fill="#9D7FFF"/>
<path d="M92.6199 26.4858C93.4124 26.4858 94.1953 26.3916 94.9355 26.2032C95.5951 26.0384 96.1692 25.7935 96.639 25.478L95.4053 22.1955C94.7932 22.5628 94.0956 22.7512 93.3364 22.7512C92.5772 22.7512 91.9177 22.5157 91.4859 22.0495C91.0588 21.588 90.8405 20.9381 90.8405 20.1092V12.447H95.3863V8.84896H90.8405V4.40796H85.9863V20.1752C85.9863 22.2473 86.5605 23.8297 87.6898 24.8846C88.8239 25.9442 90.4799 26.4811 92.6199 26.4811V26.4858Z" fill="#9D7FFF"/>
<path d="M29.6957 8.17554C27.3374 8.17554 25.1879 9.06091 23.5556 10.5161H23.5509L23.0574 10.9965L23.0384 11.0153L16.5898 17.2412L22.8628 23.4577L23.5651 24.1547L23.5841 24.1735C25.2069 25.6099 27.3469 26.4858 29.691 26.4858C34.7682 26.4858 38.8822 22.3886 38.8822 17.3354C38.8822 12.2822 34.7682 8.18496 29.691 8.18496L29.6957 8.17554ZM29.5439 22.2803C28.2769 22.2803 27.1191 21.8094 26.2366 21.0276L26.2271 21.0182L25.8475 20.6414L22.4547 17.2365L25.9424 13.9069L25.9519 13.8975L26.2176 13.6385C27.1002 12.8473 28.2627 12.3669 29.5391 12.3669C32.2865 12.3669 34.512 14.5851 34.512 17.3213C34.512 20.0574 32.2818 22.2756 29.5391 22.2756L29.5439 22.2803Z" fill="#9D7FFF"/>
<path d="M12.7073 20.8581H12.7025C11.8057 21.7623 10.553 22.3274 9.17221 22.3274C6.4438 22.3274 4.2326 20.1234 4.2326 17.406V17.2412C4.2326 14.5239 6.4438 12.3198 9.17221 12.3198C10.553 12.3198 11.8057 12.885 12.7025 13.7986H12.7073L14.9327 15.9461L17.794 13.0215C14.667 9.5036 12.8212 8.17554 9.17221 8.17554C4.10923 8.17554 0 12.2633 0 17.3071V17.3448C0 22.3886 4.10923 26.4811 9.17221 26.4811C12.8212 26.4811 14.6717 25.1531 17.794 21.6351L14.9327 18.7105L12.7073 20.8628V20.8581Z" fill="#9D7FFF"/>
</g>
<defs>
<clipPath id="clip0_6322_12563">
<rect width="106" height="26.5" fill="white"/>
</clipPath>
</defs>
</svg>
