<?xml version="1.0" encoding="UTF-8" standalone="no"?>
<!DOCTYPE svg PUBLIC "-//W3C//DTD SVG 1.1//EN" "http://www.w3.org/Graphics/SVG/1.1/DTD/svg11.dtd">
<svg width="100%" height="100%" viewBox="0 0 103 20" version="1.1" xmlns="http://www.w3.org/2000/svg" xmlns:xlink="http://www.w3.org/1999/xlink" xml:space="preserve" xmlns:serif="http://www.serif.com/" style="fill-rule:evenodd;clip-rule:evenodd;stroke-linejoin:round;stroke-miterlimit:2;">
    <g transform="matrix(1,0,0,1,-8948.79,-881.113)">
        <g transform="matrix(1,0,0,1,8948.79,880.688)">
            <path d="M91.672,0.426L94.171,0.426L94.171,5.974L94.382,5.974C94.53,5.742 94.745,5.513 95.026,5.288C95.307,5.063 95.669,4.873 96.112,4.718C96.562,4.564 97.111,4.486 97.758,4.486C98.686,4.486 99.526,4.697 100.278,5.119C101.031,5.534 101.628,6.163 102.071,7.007C102.514,7.844 102.736,8.899 102.736,10.171C102.736,11.121 102.606,11.95 102.346,12.66C102.092,13.371 101.737,13.961 101.28,14.432C100.83,14.903 100.303,15.259 99.698,15.498C99.101,15.73 98.454,15.846 97.758,15.846C97.111,15.846 96.559,15.768 96.102,15.614C95.645,15.459 95.268,15.259 94.973,15.012C94.678,14.759 94.449,14.499 94.288,14.232L94.077,14.232L94.077,15.614L91.672,15.614L91.672,0.426ZM94.066,10.161C94.066,11.398 94.347,12.341 94.91,12.987C95.479,13.634 96.225,13.958 97.146,13.958C97.61,13.958 98.028,13.877 98.401,13.715C98.781,13.546 99.104,13.304 99.371,12.987C99.646,12.664 99.853,12.267 99.994,11.796C100.141,11.325 100.215,10.78 100.215,10.161C100.215,8.93 99.934,7.992 99.371,7.345C98.809,6.698 98.067,6.374 97.146,6.374C96.682,6.374 96.26,6.459 95.88,6.627C95.507,6.789 95.184,7.032 94.91,7.355C94.643,7.672 94.435,8.065 94.288,8.537C94.14,9.008 94.066,9.549 94.066,10.161Z" style="fill:white;fill-rule:nonzero;"/>
        </g>
        <g transform="matrix(1,0,0,1,8948.79,880.688)">
            <path d="M79.836,10.161C79.836,9.219 79.959,8.393 80.205,7.683C80.458,6.973 80.82,6.382 81.291,5.911C81.763,5.433 82.329,5.074 82.99,4.835C83.65,4.589 84.392,4.466 85.215,4.466C86.305,4.466 87.23,4.677 87.989,5.099C88.755,5.521 89.335,6.125 89.729,6.913C90.13,7.693 90.33,8.632 90.33,9.729L90.33,10.773L82.23,10.773C82.244,11.434 82.367,12.011 82.599,12.503C82.838,12.995 83.176,13.378 83.612,13.652C84.055,13.927 84.586,14.064 85.204,14.064C85.809,14.064 86.301,13.965 86.681,13.768C87.061,13.572 87.349,13.325 87.546,13.03C87.743,12.735 87.866,12.443 87.915,12.155L90.109,12.155L90.109,12.471C90.039,12.83 89.901,13.206 89.698,13.6C89.494,13.993 89.198,14.363 88.812,14.707C88.432,15.052 87.947,15.333 87.356,15.551C86.772,15.762 86.066,15.867 85.236,15.867C83.591,15.867 82.279,15.386 81.302,14.422C80.325,13.459 79.836,12.039 79.836,10.161ZM82.262,9.054L87.968,9.054C87.961,8.505 87.855,8.02 87.651,7.598C87.447,7.176 87.142,6.846 86.734,6.607C86.333,6.368 85.82,6.248 85.194,6.248C84.582,6.248 84.065,6.371 83.643,6.617C83.229,6.856 82.905,7.187 82.673,7.609C82.448,8.031 82.311,8.512 82.262,9.054Z" style="fill:white;fill-rule:nonzero;"/>
        </g>
        <g transform="matrix(1,0,0,1,8948.79,880.688)">
            <path d="M60.656,0.426L63.188,0.426L65.824,12.344L66.035,12.344L69.199,0.426L71.72,0.426L74.884,12.344L75.095,12.344L77.732,0.426L80.242,0.426L80.242,0.742L76.73,15.614L73.587,15.614L70.549,4.275L70.339,4.275L67.312,15.614L64.158,15.614L60.656,0.742L60.656,0.426Z" style="fill:white;fill-rule:nonzero;"/>
        </g>
        <g transform="matrix(1,0,0,1,8948.79,880.688)">
            <path d="M54.947,15.614L52.542,15.614L52.542,14.232L52.331,14.232C52.169,14.499 51.941,14.759 51.646,15.012C51.35,15.259 50.974,15.459 50.517,15.614C50.067,15.768 49.515,15.846 48.861,15.846C47.94,15.846 47.103,15.638 46.351,15.223C45.599,14.802 44.997,14.172 44.547,13.335C44.104,12.499 43.883,11.444 43.883,10.171C43.883,9.208 44.009,8.375 44.263,7.672C44.523,6.961 44.878,6.371 45.328,5.9C45.785,5.429 46.316,5.077 46.92,4.845C47.525,4.606 48.172,4.486 48.861,4.486C49.515,4.486 50.063,4.564 50.506,4.718C50.949,4.866 51.312,5.056 51.593,5.288C51.874,5.513 52.092,5.742 52.247,5.974L52.458,5.974L52.458,0.426L54.947,0.426L54.947,15.614ZM52.553,10.171C52.553,8.934 52.271,7.992 51.709,7.345C51.146,6.698 50.401,6.374 49.473,6.374C49.016,6.374 48.597,6.459 48.218,6.627C47.845,6.789 47.522,7.032 47.247,7.355C46.98,7.672 46.773,8.065 46.625,8.537C46.477,9.008 46.404,9.553 46.404,10.171C46.404,11.402 46.685,12.341 47.247,12.987C47.817,13.634 48.559,13.958 49.473,13.958C49.937,13.958 50.355,13.877 50.728,13.715C51.108,13.546 51.431,13.304 51.698,12.987C51.972,12.664 52.183,12.267 52.331,11.796C52.479,11.325 52.553,10.783 52.553,10.171Z" style="fill:white;fill-rule:nonzero;"/>
        </g>
        <g transform="matrix(1,0,0,1,8948.79,880.688)">
            <path d="M40.021,4.719L42.521,4.719L42.521,15.614L40.021,15.614L40.021,4.719ZM40,0.437L42.531,0.437L42.531,2.883L40,2.883L40,0.437Z" style="fill:white;fill-rule:nonzero;"/>
        </g>
        <g transform="matrix(1,0,0,1,8948.79,880.688)">
            <path d="M38.087,15.614L35.682,15.614L35.682,14.211L35.471,14.211C35.351,14.422 35.161,14.658 34.901,14.918C34.641,15.171 34.286,15.389 33.836,15.572C33.386,15.755 32.817,15.846 32.127,15.846C30.925,15.846 29.958,15.515 29.227,14.855C28.503,14.187 28.141,13.22 28.141,11.954L28.141,4.719L30.64,4.719L30.64,11.806C30.64,12.545 30.837,13.09 31.231,13.441C31.632,13.786 32.159,13.958 32.813,13.958C33.305,13.958 33.762,13.856 34.184,13.652C34.606,13.441 34.944,13.118 35.197,12.682C35.457,12.246 35.587,11.687 35.587,11.005L35.587,4.719L38.087,4.719L38.087,15.614Z" style="fill:white;fill-rule:nonzero;"/>
        </g>
        <g transform="matrix(1,0,0,1,8948.79,880.688)">
            <path d="M26.291,19.832L23.801,19.832L23.801,14.358L23.59,14.358C23.436,14.583 23.218,14.812 22.937,15.044C22.655,15.276 22.293,15.466 21.85,15.614C21.407,15.768 20.859,15.846 20.205,15.846C19.284,15.846 18.447,15.638 17.695,15.223C16.942,14.801 16.341,14.172 15.891,13.335C15.448,12.499 15.227,11.444 15.227,10.171C15.227,9.208 15.353,8.375 15.606,7.672C15.866,6.961 16.221,6.371 16.672,5.9C17.129,5.429 17.659,5.077 18.264,4.845C18.869,4.606 19.516,4.486 20.205,4.486C20.859,4.486 21.411,4.564 21.861,4.718C22.318,4.873 22.694,5.073 22.989,5.32C23.285,5.566 23.513,5.826 23.675,6.1L23.886,6.1L23.886,4.718L26.291,4.718L26.291,19.832ZM23.896,10.171C23.896,8.934 23.615,7.991 23.052,7.345C22.49,6.698 21.745,6.374 20.817,6.374C20.36,6.374 19.941,6.459 19.561,6.627C19.189,6.789 18.865,7.032 18.591,7.355C18.324,7.672 18.116,8.065 17.969,8.536C17.821,9.008 17.747,9.552 17.747,10.171C17.747,11.402 18.029,12.34 18.591,12.987C19.161,13.634 19.902,13.958 20.817,13.958C21.281,13.958 21.699,13.877 22.072,13.715C22.451,13.546 22.775,13.304 23.042,12.987C23.316,12.664 23.527,12.267 23.675,11.796C23.823,11.324 23.896,10.783 23.896,10.171Z" style="fill:white;fill-rule:nonzero;"/>
        </g>
        <g transform="matrix(1,0,0,1,8948.79,880.688)">
            <path d="M11.365,4.719L13.865,4.719L13.865,15.614L11.365,15.614L11.365,4.719ZM11.344,0.437L13.875,0.437L13.875,2.883L11.344,2.883L11.344,0.437Z" style="fill:white;fill-rule:nonzero;"/>
        </g>
        <g transform="matrix(1,0,0,1,8948.79,880.688)">
            <path d="M0,0.426L2.616,0.426L2.616,13.62L10.357,13.62L10.357,15.614L0,15.614L0,0.426Z" style="fill:white;fill-rule:nonzero;"/>
        </g>
    </g>
</svg>
